<?xml version="1.0" encoding="UTF-8" standalone="no"?>
<!-- Created with Inkscape (http://www.inkscape.org/) -->
<svg xmlns:svg="http://www.w3.org/2000/svg" xmlns="http://www.w3.org/2000/svg" version="1.0" width="602.36218" height="199.02756" id="svg2407">
  <defs id="defs2409"/>
  <g transform="translate(-304.013, -559.141)" id="layer1">
    <g transform="matrix(6.17402, 0, 0, -6.17402, -1348.03, 1906.58)" id="g2912">
      <path d="M 338.0625,474.875 L 338.0625,508 L 371.15625,508 L 371.15625,474.875 L 338.0625,474.875 z M 374.5625,474.875 L 374.5625,508 L 452.84375,508 L 452.84375,474.875 L 374.5625,474.875 z" transform="matrix(0.8, 0, 0, -0.8, 0, 595.276)" id="path285" style="fill:#00509b;fill-opacity:1;fill-rule:nonzero;stroke:none"/>
      <path d="M 359.96875,478.875 C 359.87559,478.91121 359.81251,479.03126 359.8125,479.03125 C 359.8125,479.03125 359.81625,479.02874 359.8125,479.09375 C 359.80875,479.1575 359.82126,479.17374 359.9375,479.25 C 360.05375,479.32625 360.06626,479.39999 360.09375,479.625 C 360.1225,479.84875 359.92626,479.92999 359.90625,480.0625 C 359.88625,480.195 359.9325,480.35499 360.09375,480.34375 C 360.25375,480.33125 360.33,480.18751 360.375,480.03125 C 360.41875,479.875 360.58624,479.81374 360.71875,479.75 C 360.85125,479.685 360.97624,479.56624 360.96875,479.40625 C 360.96,479.24625 360.90749,479.30626 360.5625,479.125 C 360.2175,478.945 360.23501,478.915 360.0625,478.875 C 360.01937,478.865 359.9998,478.86293 359.96875,478.875 z M 380.59375,478.875 L 380.59375,484.875 L 383.78125,484.875 L 383.78125,484.15625 L 381.46875,484.15625 L 381.46875,478.875 L 380.59375,478.875 z M 388.78125,478.875 L 388.78125,479.75 L 389.71875,479.75 L 389.71875,478.875 L 388.78125,478.875 z M 390.9375,478.875 L 390.9375,483.15625 C 390.9375,483.6775 390.97875,484.96875 392.53125,484.96875 C 393.72874,484.96875 394.21875,484.11875 394.21875,482.84375 C 394.21875,481.75874 393.9575,480.625 392.8125,480.625 C 392.1525,480.62501 391.81375,481.055 391.71875,481.28125 L 391.71875,478.875 L 390.9375,478.875 z M 399.96875,478.875 L 399.96875,479.75 L 400.90625,479.75 L 400.90625,478.875 L 399.96875,478.875 z M 356.65625,479.03125 C 356.465,478.99125 356.21876,479.34376 356.21875,479.34375 L 356.1875,479.40625 C 356.13,479.4675 356.03124,479.59375 356.03125,479.59375 C 356.03125,479.59375 356.02126,479.74624 355.96875,479.875 C 355.87,480.115 355.96751,480.22625 356,480.40625 C 356.00375,480.5 356.01626,480.69749 356,480.9375 C 355.98375,481.17875 355.75874,481.50501 355.53125,481.5 C 355.29625,481.495 355.1925,481.54624 355.125,481.8125 C 355.08125,481.9825 355.13124,482.08624 355.1875,482.25 C 355.22375,482.3525 355.21876,482.4625 355.21875,482.53125 C 355.21875,482.7075 355.01501,482.9575 354.96875,483.1875 C 354.91625,483.44125 354.86251,483.65001 354.75,483.875 C 354.63875,484.1 354.77126,484.27125 354.78125,484.4375 C 354.78125,484.4375 354.77874,485.29749 354.78125,485.75 C 354.78375,486.00375 354.94499,486.09126 355.0625,486.21875 C 355.1475,486.3125 355.28126,486.40625 355.28125,486.40625 C 355.7125,486.50625 355.79251,486.32499 355.8125,486.15625 C 355.8275,485.9775 355.88876,485.85876 356,485.78125 C 356.26,485.60375 355.93749,485.06249 355.9375,485.0625 C 355.9375,485.0625 355.75124,484.77251 355.71875,484.5 C 355.68625,484.2275 356.0425,484.12749 356.125,484.0625 C 356.43125,483.8225 356.48374,483.70874 356.46875,483.5 C 356.45375,483.305 356.77876,482.54376 356.78125,482.40625 C 356.785,482.22625 356.79874,481.2675 356.8125,480.90625 C 356.81625,480.825 356.84376,480.79001 356.84375,480.78125 C 356.84375,480.6575 356.785,480.53876 356.78125,480.4375 C 356.5325,480.0775 356.94376,479.775 356.9375,479.46875 C 356.935,479.29 356.84876,479.07124 356.65625,479.03125 z M 365.84375,479.625 C 365.70109,479.62359 365.57125,479.66625 365.46875,479.75 C 365.09,480.06 365.31249,480.24999 365.3125,480.25 C 365.3125,480.25 365.33124,480.27999 365.34375,480.34375 C 365.35625,480.405 365.36374,480.59376 365.375,480.8125 C 365.42375,481.07625 365.40624,481.28124 365.40625,481.28125 C 365.21375,481.38625 365.07251,481.46 364.9375,481.6875 C 364.795,481.93 364.77624,481.94875 364.75,482.125 C 364.73125,482.245 364.72124,482.36124 364.71875,482.46875 C 364.71,482.765 364.8625,482.78376 364.84375,482.96875 C 364.82125,483.18 364.67376,483.3 364.625,483.4375 C 364.5925,483.65625 364.56126,483.70001 364.5,483.8125 C 364.41375,483.97125 364.36124,484.25374 364.5,484.40625 C 364.6,484.51625 364.58001,484.75999 364.5625,485.03125 C 364.545,485.30125 364.63999,485.425 364.6875,485.46875 C 364.735,485.5125 364.84625,485.48875 364.875,485.65625 C 364.88625,485.72625 365.05625,486.01626 365.46875,486 C 365.56875,485.99625 365.67875,485.90875 365.78125,485.8125 C 365.875,485.725 365.96124,485.61499 365.96875,485.46875 C 365.9775,485.29 365.895,485.22251 365.84375,485.15625 C 365.8025,485.105 365.72376,485.08624 365.6875,484.84375 C 365.6625,484.6825 365.53124,484.53124 365.53125,484.53125 L 365.53125,483.5 C 365.5225,483.4125 365.68751,483.15624 365.6875,483.15625 L 365.6875,482.71875 C 365.71375,482.615 365.7925,482.535 365.90625,482.4375 C 365.99875,482.26125 365.98624,482.10124 365.96875,481.9375 C 365.9525,481.79375 366.04375,481.72501 366.09375,481.59375 C 366.1275,481.5025 366.12499,481.40001 366.125,481.1875 C 366.12375,480.9575 366.15499,480.95374 366.375,480.65625 C 366.4725,480.33375 366.49,479.95625 366.3125,479.8125 C 366.14188,479.67437 365.98641,479.62641 365.84375,479.625 z M 386.125,480.625 C 385.59624,480.62501 384.4375,480.82375 384.4375,482.59375 C 384.43751,484.21624 385.25,484.96875 386.5,484.96875 C 386.95125,484.96875 387.1925,484.89125 387.53125,484.8125 L 387.53125,484.1875 C 387.34874,484.24876 387.10625,484.34375 386.75,484.34375 C 385.62124,484.34374 385.21875,483.2725 385.21875,482.5 L 387.625,482.5 L 387.625,482.28125 C 387.62499,481.31001 387.13125,480.625 386.125,480.625 z M 397.46875,480.625 C 396.62749,480.62501 396.295,481.2775 396.15625,481.625 L 396.15625,480.71875 L 395.375,480.71875 L 395.375,484.875 L 396.15625,484.875 L 396.15625,483.09375 C 396.15626,482.26876 396.6075,481.40625 397.25,481.40625 C 397.81376,481.40626 397.8125,481.83 397.8125,482.59375 L 397.8125,484.875 L 398.59375,484.875 L 398.59375,482 C 398.59375,481.48874 398.42375,480.625 397.46875,480.625 z M 388.875,480.71875 L 388.875,484.875 L 389.65625,484.875 L 389.65625,480.71875 L 388.875,480.71875 z M 400.03125,480.71875 L 400.03125,484.875 L 400.8125,484.875 L 400.8125,480.71875 L 400.03125,480.71875 z M 402.03125,480.71875 L 402.03125,481.34375 L 403.90625,481.34375 L 401.90625,484.25 L 401.90625,484.875 L 404.9375,484.875 L 404.9375,484.25 L 402.84375,484.25 L 404.84375,481.3125 L 404.84375,480.71875 L 402.03125,480.71875 z M 386.09375,481.25 C 386.6925,481.25 386.84375,481.70875 386.84375,481.96875 L 385.28125,481.96875 C 385.28126,481.78749 385.4525,481.25 386.09375,481.25 z M 392.59375,481.25 C 393.245,481.25 393.34375,482.21375 393.34375,482.8125 C 393.34375,483.57624 393.185,484.34375 392.5,484.34375 C 391.73625,484.34374 391.71875,483.42375 391.71875,482.78125 C 391.71875,482.21749 391.95125,481.25 392.59375,481.25 z M 360.125,481.9375 C 359.98719,481.93363 359.90626,482.03124 359.90625,482.03125 C 359.90625,482.03125 359.78374,482.13 359.84375,482.25 C 359.90125,482.365 359.9175,482.37001 359.9375,482.5625 C 359.9575,482.75375 360.03501,482.58751 360.0625,482.8125 C 360.09125,483.03625 359.97375,483.01249 359.9375,483.125 C 359.90125,483.2375 359.92125,483.65626 360.09375,483.625 C 360.26625,483.5925 360.21499,483.18 360.1875,483 C 360.16,482.81875 360.25874,482.65251 360.375,482.5 C 360.49125,482.3475 360.51001,482.13251 360.28125,482 C 360.22438,481.96687 360.17094,481.93879 360.125,481.9375 z M 356.03125,482.15625 L 356.0625,482.15625 C 356.0625,482.17375 356.09125,482.22374 356.03125,482.25 C 356.03375,482.2725 356.03751,482.34001 355.9375,482.375 C 355.94,482.36375 355.90999,482.27124 355.96875,482.25 C 355.96875,482.22875 355.975,482.185 356.03125,482.15625 z M 359.875,484.46875 C 359.76953,484.51955 359.78125,484.68751 359.78125,484.6875 L 359.78125,484.8125 C 359.7775,484.87625 359.84499,484.92124 359.9375,484.96875 C 360.03,485.0175 360.06626,485.16875 360.0625,485.25 C 360.05875,485.33 360.265,485.6 360.4375,485.46875 C 360.61,485.33625 360.32124,484.96001 360.25,484.875 C 360.1775,484.79125 360.27624,484.53376 360.03125,484.46875 C 359.97,484.45281 359.91016,484.45182 359.875,484.46875 z M 359.96875,485.40625 C 359.72375,485.37 359.78124,485.74999 359.78125,485.75 C 359.78125,485.75 359.77749,486.12125 359.78125,486.28125 C 359.785,486.44125 359.98126,486.47249 360.09375,486.46875 C 360.205,486.465 360.18876,486.57249 360.15625,486.625 C 360.12375,486.6775 360.11001,486.68251 360.09375,486.90625 C 360.07875,487.13125 359.88876,487.23749 359.8125,487.28125 C 359.73625,487.325 359.78124,487.71749 359.78125,487.9375 C 359.78125,488.1575 359.63249,488.22001 359.625,488.34375 C 359.61625,488.46875 359.75751,488.56625 359.8125,488.5625 C 359.86875,488.55875 359.95375,488.39751 359.9375,488.3125 C 359.92125,488.22875 360.10625,487.97876 360.25,487.875 C 360.39375,487.77125 360.36875,487.56874 360.3125,487.46875 C 360.25625,487.3675 360.21874,487.41001 360.21875,487.25 C 360.21875,487.09 360.37124,487.02376 360.375,486.90625 C 360.37875,486.79 360.51875,486.68374 360.53125,486.53125 C 360.5425,486.37875 360.31749,486.21251 360.25,486.15625 C 360.18125,486.1 360.28124,485.99875 360.15625,485.875 C 360.0325,485.75 360.06999,485.76124 360.0625,485.59375 C 360.05375,485.425 359.96874,485.40626 359.96875,485.40625 z M 366.90625,487.71875 C 366.84625,487.7425 366.73126,487.74624 366.65625,487.75 C 366.4875,487.75875 366.27751,487.85125 365.96875,487.875 C 365.66,487.9 365.665,487.95501 365.53125,488.03125 C 365.395,488.10625 365.26375,488.18001 365.03125,488.1875 C 364.79875,488.19625 364.90874,488.285 364.59375,488.3125 C 364.2675,488.3425 363.945,488.71999 363.875,488.84375 C 363.79125,488.995 363.85999,489.31625 363.8125,489.40625 C 363.74125,489.53875 363.72749,489.64125 363.71875,489.78125 C 363.71125,489.92125 363.79751,490.01124 363.84375,490.15625 C 363.8975,490.33125 363.93124,490.41124 364.03125,490.5 C 364.13125,490.5875 364.10126,490.57375 364.125,490.875 C 364.15,491.175 364.34375,491.25001 364.34375,491.25 C 364.34375,491.25 364.63124,491.01624 364.65625,490.875 C 364.665,490.82 364.90626,490.56249 364.90625,490.5625 C 364.83,490.42625 364.67501,490.07251 364.84375,489.96875 C 365.0125,489.865 364.93749,489.59374 364.9375,489.59375 C 364.9375,489.59375 364.90501,489.49251 364.9375,489.3125 C 364.96875,489.13125 365.25125,489.10875 365.34375,489.09375 C 365.43625,489.0775 365.92126,488.96876 366.09375,488.96875 C 366.265,488.96875 366.2475,489.21125 366.25,489.28125 C 366.2525,489.40625 366.29624,489.62626 366.3125,489.875 C 366.3275,490.12375 366.115,490.08001 365.9375,490.15625 C 365.76125,490.2325 365.82499,490.46249 365.78125,490.5625 C 365.75875,490.61375 365.60125,490.6525 365.46875,490.625 C 365.33625,490.59625 365.40126,491.2075 365.40625,491.34375 C 365.41,491.44 365.3275,491.4325 365.1875,491.4375 C 365.0475,491.44125 365.03126,491.5625 365.03125,491.5625 C 365.03125,491.5625 364.9425,491.87374 364.90625,491.9375 C 364.8725,491.995 364.65875,492.4325 364.625,492.46875 C 364.53875,492.565 364.0975,492.9125 364.09375,492.96875 C 364.09,493.025 363.75749,493.41 363.59375,493.40625 C 363.45875,493.40375 363.31126,493.92874 363.21875,493.9375 C 362.95875,493.9625 362.99999,494.15625 363,494.15625 C 363,494.15625 362.99,494.43874 363.21875,494.375 C 363.4475,494.31 363.5625,494.34375 363.5625,494.34375 C 363.5625,494.34375 363.86999,494.465 364.1875,494.46875 C 364.4575,494.47125 364.78124,494.59375 364.78125,494.59375 C 364.78125,494.59375 365.13876,494.69376 365.25,494.625 C 365.30375,494.5925 365.71501,494.6125 366.09375,494.59375 C 366.2775,494.63375 366.6625,494.50625 366.75,494.5 C 366.95,494.48375 366.91501,494.40626 367,494.40625 C 367.08375,494.40625 367.14875,494.4875 367.28125,494.5 C 367.41375,494.51125 367.50376,494.37125 367.53125,494.25 C 367.56,494.13 368.12624,494.05501 368.21875,494.0625 C 368.31125,494.07125 368.46,494.05875 368.5,493.90625 C 368.54,493.75375 368.39374,493.68876 368.28125,493.59375 C 368.17,493.4975 368.17626,493.41876 368.15625,493.25 C 368.13625,493.08125 367.97501,493.06999 367.90625,493.0625 C 367.83875,493.05375 367.53124,493.11874 367.5,493.1875 C 367.4875,493.215 367.45876,493.27001 367.40625,493.28125 C 367.3275,493.2975 367.23874,493.25 367.21875,493.21875 C 367.18625,493.16625 366.615,493.33249 366.34375,493.28125 C 366.33375,493.305 365.71,493.31749 365.78125,493.375 C 365.87875,493.4525 365.75376,493.715 365.625,493.71875 C 365.4975,493.72375 365.37874,493.61251 365.375,493.46875 C 365.37125,493.32375 365.29749,493.39 365.21875,493.34375 C 365.0675,493.25375 365.17124,493.10376 365.21875,493 C 365.26625,492.89625 365.44749,492.98 365.5,492.875 C 365.5425,492.7875 365.57499,492.73751 365.53125,492.71875 C 365.49125,492.70125 365.46,492.715 365.40625,492.6875 C 365.40625,492.6875 365.51249,492.64626 365.59375,492.5625 C 365.6875,492.46625 365.74376,492.31124 365.84375,492.21875 C 365.9825,492.0925 366.20374,491.64625 366.34375,491.53125 C 366.51125,491.3925 366.66999,490.9725 366.71875,490.9375 C 366.7875,490.89 366.79625,490.79125 366.8125,490.53125 C 366.82875,490.27 366.89376,490.20874 367.09375,490.15625 C 367.295,490.10375 367.22624,489.94751 367.25,489.71875 C 367.26,489.625 367.305,489.545 367.34375,489.5 C 367.40125,489.435 367.40625,489.0625 367.40625,489.0625 C 367.5375,488.98 367.47249,488.78374 367.46875,488.6875 C 367.465,488.59125 367.31376,488.54376 367.25,488.3125 C 367.22625,488.23 367.20374,488.07126 367.1875,487.90625 C 367.17125,487.7425 366.96624,487.69374 366.90625,487.71875 z M 380.53125,488.5 L 380.53125,492.71875 C 380.53126,494.00251 381.4,494.5625 382.5625,494.5625 C 383.73499,494.56249 384.59375,494.0025 384.59375,492.71875 L 384.59375,488.5 L 383.71875,488.5 L 383.71875,492.53125 C 383.71875,492.97374 383.71125,493.875 382.53125,493.875 C 381.38499,493.875 381.40625,492.97375 381.40625,492.53125 L 381.40625,488.5 L 380.53125,488.5 z M 390.1875,488.5 L 390.1875,489.375 L 391.125,489.375 L 391.125,488.5 L 390.1875,488.5 z M 406.9375,488.5 L 406.9375,489.375 L 407.875,489.375 L 407.875,488.5 L 406.9375,488.5 z M 412.40625,488.5625 L 412.40625,489.53125 L 413.46875,489.53125 L 413.46875,488.5625 L 412.40625,488.5625 z M 414.21875,488.5625 L 414.21875,489.53125 L 415.28125,489.53125 L 415.28125,488.5625 L 414.21875,488.5625 z M 365.78125,488.71875 C 365.79875,488.71625 365.8775,488.70374 365.875,488.71875 C 365.87375,488.735 365.87499,488.75875 365.78125,488.8125 C 365.78125,488.8125 365.76374,488.8225 365.78125,488.71875 z M 410.375,488.90625 L 409.59375,489.375 L 409.59375,490.34375 L 408.84375,490.34375 L 408.84375,490.96875 L 409.59375,490.96875 L 409.59375,493.5625 C 409.59376,494.1275 409.84625,494.5625 410.84375,494.5625 C 411.05249,494.56249 411.2375,494.54375 411.4375,494.5 L 411.4375,493.90625 C 411.325,493.94125 411.17,493.96875 411.03125,493.96875 C 410.42376,493.96875 410.375,493.53 410.375,493.15625 L 410.375,490.96875 L 411.53125,490.96875 L 411.53125,490.34375 L 410.375,490.34375 L 410.375,488.90625 z M 417.6875,488.90625 L 416.90625,489.375 L 416.90625,490.34375 L 416.1875,490.34375 L 416.1875,490.96875 L 416.90625,490.96875 L 416.90625,493.5625 C 416.90624,494.1275 417.15875,494.5625 418.15625,494.5625 C 418.365,494.56249 418.58125,494.54375 418.78125,494.5 L 418.78125,493.90625 C 418.66876,493.94125 418.51375,493.96875 418.375,493.96875 C 417.76749,493.96875 417.6875,493.53 417.6875,493.15625 L 417.6875,490.96875 L 418.84375,490.96875 L 418.84375,490.34375 L 417.6875,490.34375 L 417.6875,488.90625 z M 364.71875,489 C 364.74859,488.99969 364.78062,489.00937 364.78125,489.03125 C 364.7825,489.075 364.78501,489.11751 364.6875,489.15625 C 364.67625,489.18375 364.63874,489.17 364.5625,489.15625 L 364.53125,489.125 C 364.5425,489.09375 364.58625,489.13376 364.65625,489.03125 C 364.66125,489.03188 364.68891,489.00031 364.71875,489 z M 359.625,489.15625 C 359.51625,489.1275 359.5,489.34376 359.5,489.34375 C 359.5,489.34375 359.51624,489.4475 359.625,489.5 C 359.7325,489.55125 359.76375,489.56 359.84375,489.46875 C 359.92375,489.37625 359.83625,489.25124 359.8125,489.21875 C 359.78875,489.1875 359.73251,489.18375 359.625,489.15625 z M 357.03125,489.25 C 356.8168,489.28621 356.81251,489.40625 356.8125,489.40625 C 356.8125,489.40625 356.8325,489.53999 356.875,489.6875 C 356.88625,489.7225 357.055,489.955 357.125,489.96875 C 357.40625,490.02375 357.50001,490.19374 357.5,490.40625 C 357.5,490.61875 357.37501,490.64999 357.28125,490.75 C 357.27875,490.76375 357.24999,491.40626 357.25,491.40625 C 357.02375,491.7125 357.10376,491.93 357.09375,492.3125 C 357.0825,492.69375 356.68126,492.67625 356.375,492.6875 C 356.22375,492.6925 356.00751,492.84 355.8125,492.96875 C 355.6175,493.1 355.42376,493.2425 355.15625,493.125 C 354.96875,493.0425 354.85751,492.79875 354.78125,492.59375 C 354.765,492.47125 354.77,492.33499 354.78125,492.21875 C 354.81625,491.8725 354.96875,491.65625 354.96875,491.65625 C 354.96875,491.65625 355.17374,491.2025 355.3125,491.15625 C 355.56875,491.07 355.71875,490.84374 355.71875,490.84375 C 356.18875,490.69625 356.35374,490.32 356.3125,489.96875 C 356.28375,489.72875 356.15749,489.51124 356.0625,489.4375 C 355.87625,489.295 355.16375,489.72375 354.90625,489.84375 C 354.73875,489.9 354.6175,489.91375 354.53125,490.125 C 354.41875,490.405 354.21874,490.45249 354.1875,490.65625 C 354.135,491.00375 353.85999,491.16751 353.71875,491.3125 C 353.58625,491.45 353.50876,491.55499 353.65625,491.875 C 353.80375,492.1925 353.47875,492.70749 353.375,492.875 C 353.27125,493.0425 353.1125,493.40751 353.9375,494.09375 C 354.7625,494.78125 355.01125,494.73001 355.65625,494.6875 C 356.30125,494.645 356.89125,493.6475 357.15625,493.5625 C 357.42125,493.4775 357.58374,493.255 357.5625,492.875 C 357.54125,492.495 357.86375,492.33999 357.90625,492 C 357.94875,491.66125 357.76124,491.55374 357.75,491.4375 C 357.74,491.32125 357.79126,491.30501 357.84375,491.15625 C 357.8975,491.0075 357.84499,490.78374 357.8125,490.625 C 357.78125,490.465 357.79001,490.49375 357.875,490.28125 C 357.96,490.07 357.875,489.75 357.875,489.75 C 357.875,489.75 357.85,489.31376 357.34375,489.25 C 357.21688,489.23438 357.10273,489.23793 357.03125,489.25 z M 366.6875,489.5 C 366.8125,489.5 366.90626,489.59374 366.90625,489.71875 C 366.90625,489.84375 366.81249,489.96876 366.6875,489.96875 C 366.5625,489.96875 366.46875,489.84374 366.46875,489.71875 C 366.46875,489.59375 366.56249,489.49999 366.6875,489.5 z M 348.4375,489.5625 C 348.12443,489.62447 348.12499,490.03125 348.125,490.03125 C 348.125,490.03125 347.96875,490.27501 348.03125,490.40625 C 348.095,490.54125 348.09376,490.52499 348.09375,490.78125 C 348.09375,491.0375 348.11749,490.9375 348.15625,491.03125 C 348.195,491.12375 348.15624,491.1875 348.15625,491.1875 C 348.0125,491.1875 347.91249,491.28501 347.90625,491.4375 C 347.7775,491.46625 347.78125,491.68751 347.78125,491.6875 C 347.78125,491.6875 347.76625,492.29751 347.78125,492.4375 C 347.7975,492.5775 347.65626,492.51626 347.65625,492.71875 C 347.65625,492.92125 347.74999,492.96874 347.75,492.96875 L 347.75,493.375 C 347.75,493.45375 347.79374,493.50749 347.8125,493.5625 C 347.84625,493.65875 347.87875,493.75001 347.9375,493.75 C 348.03125,493.75 347.99999,493.87499 348,493.875 C 348,493.875 347.99625,494.14999 348,494.375 C 348.00625,494.725 348.1975,494.96874 348.5625,494.96875 C 348.92875,494.96875 348.84376,494.33501 348.84375,494.21875 C 348.84375,494.1025 349.02,494.03501 349,493.875 L 349,493.0625 C 349,493.0625 349.03749,492.59374 348.84375,492.59375 C 348.64875,492.59375 348.5,492.8125 348.5,492.8125 L 348.34375,492.8125 C 348.34375,492.8125 348.32126,492.39 348.5,492.375 C 348.67875,492.35875 348.80499,492.35874 348.84375,492.125 C 348.8825,491.8925 348.78001,491.70125 348.625,491.46875 C 348.46875,491.23625 348.59375,491.12499 348.59375,491.125 C 348.945,490.9 348.96874,490.56251 348.96875,490.5625 C 348.96875,490.5625 349.03624,490.21374 348.84375,489.875 C 348.79,489.705 348.73626,489.58 348.59375,489.5625 C 348.53609,489.55563 348.48222,489.55365 348.4375,489.5625 z M 359.71875,489.90625 C 359.42625,489.9825 359.40625,490.28124 359.40625,490.28125 L 359.375,490.34375 C 359.375,490.37125 359.4275,490.41 359.625,490.4375 C 359.82125,490.46625 359.53375,490.80124 359.75,490.78125 C 359.96625,490.76125 359.85624,490.94375 359.96875,490.875 C 360.08,490.80625 360.09375,490.625 360.09375,490.625 C 360.09375,490.625 360.0125,489.82999 359.71875,489.90625 z M 387.875,490.25 C 387.03376,490.25 386.70125,490.87125 386.5625,491.21875 L 386.53125,490.34375 L 385.75,490.34375 L 385.75,494.46875 L 386.53125,494.46875 L 386.53125,492.71875 C 386.53124,491.89375 386.9825,491.03125 387.625,491.03125 C 388.18874,491.03125 388.1875,491.455 388.1875,492.21875 L 388.1875,494.46875 L 388.96875,494.46875 L 388.96875,491.625 C 388.96874,491.11376 388.83,490.25 387.875,490.25 z M 397.9375,490.25 C 397.40874,490.25 396.25,490.44875 396.25,492.21875 C 396.25001,493.84126 397.0325,494.5625 398.28125,494.5625 C 398.7325,494.56249 398.975,494.51625 399.3125,494.4375 L 399.3125,493.8125 C 399.13,493.8725 398.8875,493.96875 398.53125,493.96875 C 397.40375,493.96875 397.03125,492.8975 397.03125,492.125 L 399.40625,492.125 L 399.40625,491.90625 C 399.40624,490.935 398.945,490.25 397.9375,490.25 z M 402.625,490.25 C 401.81,490.25 401.4875,490.8575 401.375,491.1875 L 401.34375,490.34375 L 400.5625,490.34375 L 400.5625,494.46875 L 401.34375,494.46875 L 401.34375,492.71875 C 401.34376,491.45125 401.9225,491.09375 402.625,491.09375 L 402.625,490.25 z M 404.78125,490.25 C 403.92249,490.25 403.3125,490.66 403.3125,491.40625 C 403.31249,492.01375 403.7525,492.2975 404.125,492.53125 L 404.53125,492.78125 C 404.80876,492.96251 405.1875,493.125 405.1875,493.4375 C 405.18751,493.8625 404.71625,493.96875 404.34375,493.96875 C 403.91001,493.96875 403.39,493.75375 403.3125,493.71875 L 403.3125,494.40625 C 403.49499,494.4575 403.8425,494.5625 404.40625,494.5625 C 405.335,494.56249 405.96875,494.18 405.96875,493.3125 C 405.96876,492.62624 405.435,492.3625 405,492.09375 L 404.6875,491.90625 C 404.41751,491.74125 404.09375,491.6 404.09375,491.3125 C 404.09374,491.05251 404.41125,490.875 404.75,490.875 C 405.20125,490.87499 405.60625,491.04125 405.71875,491.09375 L 405.71875,490.40625 C 405.51874,490.37251 405.1975,490.25 404.78125,490.25 z M 413.90625,490.25 C 412.75249,490.25 412.34375,490.84125 412.34375,491.5 L 413.15625,491.5 C 413.15624,491.17001 413.37625,490.875 413.84375,490.875 C 414.13999,490.87499 414.4,490.97625 414.46875,491.375 L 414.46875,492.125 C 413.41876,492.12499 412.21875,492.375 412.21875,493.46875 C 412.21874,494.11126 412.60375,494.5625 413.375,494.5625 C 414.00875,494.56249 414.33375,494.19375 414.4375,493.96875 L 414.46875,494.46875 L 415.25,494.46875 L 415.25,491.65625 C 415.25001,491.28374 415.26,490.25 413.90625,490.25 z M 390.25,490.34375 L 390.25,494.46875 L 391.03125,494.46875 L 391.03125,490.34375 L 390.25,490.34375 z M 392,490.34375 L 393.5625,494.46875 L 394.34375,494.46875 L 395.78125,490.34375 L 394.90625,490.34375 L 393.9375,493.34375 L 392.84375,490.34375 L 392,490.34375 z M 407,490.34375 L 407,494.46875 L 407.78125,494.46875 L 407.78125,490.34375 L 407,490.34375 z M 397.65625,490.875 C 397.72273,490.85967 397.79469,490.875 397.875,490.875 C 398.47375,490.87499 398.625,491.3325 398.625,491.59375 L 397.0625,491.59375 C 397.06251,491.43407 397.19089,490.98229 397.65625,490.875 z M 365.8125,491.6875 C 365.8575,491.69 365.86124,491.67875 365.90625,491.75 C 365.91125,491.76875 365.91749,491.90999 365.84375,491.875 C 365.83875,491.84875 365.825,491.82499 365.78125,491.78125 C 365.78125,491.78125 365.76875,491.685 365.8125,491.6875 z M 359.59375,491.8125 C 359.49125,491.83625 359.45251,491.93001 359.40625,492.03125 C 359.31375,492.14625 359.27126,492.18749 359.28125,492.34375 C 359.28125,492.34375 359.29251,492.48375 359.40625,492.5625 C 359.50875,492.6325 359.57501,492.7825 359.5625,492.90625 C 359.55,493.03125 359.40875,493.07875 359.34375,493.21875 C 359.28,493.35875 359.19124,493.54625 359.09375,493.6875 C 358.98125,493.8525 359.01125,493.92124 359,494.125 C 358.98875,494.3275 358.99626,494.56376 359,494.65625 C 359.0075,494.84 359.02,494.81499 359.125,494.90625 C 359.22875,494.99875 359.15626,495.25001 359.15625,495.25 C 359.15625,495.25 359.13751,495.77375 359.125,496.0625 C 359.11375,496.35125 359.18625,496.31376 359.28125,496.4375 C 359.37875,496.5625 359.47749,496.61001 359.59375,496.5625 C 359.71,496.51375 359.69,496.25251 359.625,496.15625 C 359.56125,496.06 359.565,495.48126 359.59375,495.15625 C 359.62125,494.83125 359.64124,494.9625 359.75,494.75 C 359.8575,494.5375 359.73626,494.15625 359.65625,494.03125 C 359.57375,493.9 359.56251,493.8125 359.5625,493.8125 C 359.69125,493.66375 359.68749,493.28126 359.6875,493.28125 C 359.89875,493.115 359.87499,492.96875 359.875,492.96875 C 359.895,492.41625 360.02874,492.91999 359.96875,492.375 C 359.9475,492.1875 359.80374,492.19 359.78125,492 C 359.7,491.78 359.59374,491.81251 359.59375,491.8125 z M 414.3125,492.625 L 414.46875,492.625 L 414.46875,492.875 C 414.46876,493.36126 414.06875,493.96875 413.53125,493.96875 C 413.29626,493.96875 413.0625,493.75875 413.0625,493.4375 C 413.06249,492.90875 413.69625,492.625 414.3125,492.625 z M 365.6875,496.71875 C 365.4725,496.7375 365.37124,496.8825 365.375,496.96875 C 365.37875,497.05625 364.84625,497.61999 364.75,497.65625 C 364.7325,497.6625 364.61874,497.78001 364.5625,497.84375 C 364.455,497.96625 364.035,498.21374 364,498.40625 C 363.99,498.46375 363.81249,499.03124 363.8125,499.03125 C 363.795,499.14875 363.415,499.64124 363.34375,499.75 C 363.28375,499.8425 363.15626,500.27001 362.90625,500.3125 C 362.6575,500.35375 362.51,500.55625 362.4375,500.625 C 362.36625,500.6925 362.41251,501.12376 362.21875,501.3125 C 362.075,501.4525 362.09376,501.58499 362.09375,501.78125 C 362.09375,501.9775 362.22,502.12501 362.375,502.125 C 362.53,502.125 362.6,501.99125 362.6875,501.96875 C 362.77375,501.94625 362.875,502.19001 362.90625,502.28125 C 362.93625,502.37125 363.46999,502.22374 363.59375,502.15625 C 363.71875,502.08875 364.05124,502.00374 364.15625,502 C 364.22125,501.9975 364.38,502.01375 364.4375,502.0625 C 364.5375,502.1475 364.58999,502.38001 364.75,502.46875 C 364.885,502.54375 364.87124,502.56501 364.875,502.65625 C 364.87875,502.74625 364.66874,502.68749 364.59375,502.6875 C 364.5175,502.6875 364.48499,503.0825 364.4375,503.1875 C 364.40625,503.25625 364.2475,503.52374 364.15625,503.53125 C 364.06625,503.53875 364.08999,504.09 364.09375,504.09375 C 364.195,504.175 364.68876,504.66751 364.84375,504.65625 C 364.9975,504.645 365.175,504.88624 365.28125,504.875 C 365.38625,504.86375 365.375,504.75001 365.375,504.75 C 365.375,504.75 365.3725,504.29499 365.40625,504.21875 C 365.44125,504.14375 365.53125,503.9675 365.53125,503.84375 C 365.53125,503.71875 365.62626,503.6625 365.65625,503.59375 C 365.68625,503.52625 365.66001,502.72749 365.65625,502.53125 C 365.6525,502.335 365.81625,502.23374 365.8125,502.125 C 365.80875,502.015 366.0225,501.97625 366.09375,502.03125 C 366.17125,502.09 366.17124,502.13625 366.21875,502.1875 C 366.3275,502.1775 366.5425,502.1975 366.625,502.15625 C 366.73625,502.1 367.29875,502.08001 367.34375,502 C 367.38875,501.92125 367.36249,501.92124 367.5625,501.90625 C 367.76375,501.89125 367.78375,501.17374 367.75,501.03125 C 367.7175,500.8875 367.30876,500.93751 367.21875,500.9375 C 367.1275,500.9375 367.11126,501.005 367.0625,501.03125 C 367.0125,501.0575 367.13626,501.2775 367,501.28125 C 366.865,501.285 366.90249,501.21875 366.90625,501.125 C 366.91,501.03 366.87375,500.98626 366.8125,500.9375 C 366.7525,500.88875 366.57375,500.93876 366.5625,500.96875 C 366.55125,500.99875 366.48374,501.035 366.34375,501.03125 C 366.20375,501.0275 366.25751,500.935 366.25,500.875 C 366.2425,500.81375 366.27749,500.5675 366.375,500.5 C 366.47375,500.43125 366.37876,500.15626 366.40625,499.9375 C 366.4325,499.71875 366.4825,499.70251 366.53125,499.5625 C 366.58,499.4225 366.59249,499.32251 366.65625,499.28125 C 366.78125,499.20125 366.81251,498.90625 366.8125,498.90625 C 366.8125,498.90625 366.85749,498.54874 366.78125,498.5 C 366.70625,498.45 366.68751,498.43001 366.6875,498.34375 C 366.6875,498.25625 366.76126,498.28625 366.75,498.09375 C 366.73875,497.90125 366.50376,497.92125 366.40625,497.90625 C 366.3075,497.89125 366.3025,497.82875 366.125,497.71875 C 366.01125,497.64875 365.92376,497.36751 366,497.3125 C 366.17375,497.18625 366.26751,496.89251 366.1875,496.84375 C 366.1175,496.79875 366.05625,496.80126 365.96875,496.78125 C 365.88,496.76125 365.795,496.70875 365.6875,496.71875 z M 359.375,496.875 C 359.19125,496.93125 359.18749,497.15625 359.1875,497.15625 L 359.21875,497.21875 C 359.29125,497.24625 359.26499,497.435 359.40625,497.40625 C 359.54625,497.37875 359.61624,497.18 359.65625,497.03125 C 359.69625,496.8825 359.56,496.81876 359.375,496.875 z M 365.59375,497.75 C 365.63344,497.76187 365.64874,497.81187 365.65625,497.90625 C 365.67125,498.095 365.62875,498.04376 365.625,498.3125 C 365.62125,498.58 365.61999,499.18626 365.6875,499.25 C 365.755,499.315 365.67,499.84126 365.625,499.875 C 365.57875,499.90875 365.32376,500.205 365.3125,500.375 C 365.30125,500.545 365.28251,500.945 365.09375,501.03125 C 364.905,501.1175 364.9875,501.12124 364.84375,501.125 C 364.70125,501.12875 364.7225,501.07501 364.5,501.09375 C 364.2775,501.1125 364.28001,500.94125 364,500.9375 C 363.72125,500.93375 363.82249,501.01125 363.6875,501 C 363.55125,500.9875 363.56999,500.77375 363.65625,500.78125 C 363.74375,500.78875 363.93749,500.44874 364.03125,500.40625 C 364.12625,500.365 364.30874,499.80125 364.4375,499.71875 C 364.565,499.63625 364.87499,498.89375 364.875,498.75 C 364.875,498.60625 364.86124,498.46124 364.90625,498.4375 C 364.95125,498.415 364.99375,498.3825 365.03125,498.28125 C 365.07,498.17875 365.125,498.09374 365.125,498.09375 C 365.125,498.09375 365.225,498.01001 365.3125,497.96875 C 365.39875,497.9275 365.35376,497.79251 365.4375,497.78125 C 365.47875,497.77562 365.55406,497.73813 365.59375,497.75 z M 380.59375,498.125 L 380.59375,504.09375 L 381.46875,504.09375 L 381.46875,501.34375 L 383.8125,501.34375 L 383.8125,504.09375 L 384.6875,504.09375 L 384.6875,498.125 L 383.8125,498.125 L 383.8125,500.625 L 381.46875,500.625 L 381.46875,498.125 L 380.59375,498.125 z M 359.03125,498.53125 C 358.97641,498.58703 359,498.735 359,498.75 C 359,498.75 359.03125,498.81499 359.0625,498.875 C 359.095,498.935 359.25251,499.04874 359.125,499.125 C 358.99625,499.20125 359.00499,499.25249 359,499.3125 C 358.99625,499.3725 358.96001,499.50251 358.84375,499.53125 C 358.7275,499.55875 358.71875,499.70624 358.75,499.75 C 358.7825,499.79375 358.8325,499.8675 358.84375,500.03125 C 358.85625,500.19625 358.90375,500.29 359,500.28125 C 359.09625,500.27375 359.16001,500.04876 359.15625,499.84375 C 359.1525,499.63875 359.28749,499.57749 359.375,499.4375 C 359.46375,499.29625 359.38501,499.09625 359.3125,499 C 359.24,498.90375 359.29751,498.95126 359.28125,498.75 C 359.265,498.55 359.25749,498.55126 359.125,498.53125 C 359.09188,498.52625 359.04953,498.51266 359.03125,498.53125 z M 355.96875,498.625 C 355.88375,498.63516 355.79687,498.6625 355.75,498.6875 C 355.54875,498.795 355.745,499.03376 355.375,499.0625 C 355.00875,499.09 355.19875,498.92126 354.90625,498.9375 C 354.6475,498.95125 354.64376,499.03374 354.5,499.25 C 354.35625,499.4675 353.99874,499.54876 353.75,499.5625 C 353.5375,499.575 353.30125,499.8775 353.1875,500 C 353.10875,500.08375 352.97001,500.35751 352.9375,500.5625 C 352.9125,500.7175 352.90749,500.87626 352.90625,500.90625 C 352.905,500.92375 352.89874,500.95249 352.90625,501.03125 C 352.9275,501.24625 353.06249,501.75001 353.0625,501.75 L 353.0625,502.0625 C 352.96875,502.09625 352.80876,502.20874 352.78125,502.34375 C 352.7675,502.4075 352.75626,502.4875 352.75,502.5625 C 352.73875,502.70125 352.75499,502.91249 352.78125,502.96875 C 352.81,503.0325 352.9325,503.19124 353,503.375 C 353.0725,503.535 353.25501,503.53999 353.46875,503.53125 C 353.8775,503.515 354.02126,503.85751 354.09375,503.9375 C 354.16625,504.0175 354.24875,504.05625 354.3125,503.96875 C 354.3775,503.88 354.48751,503.85999 354.6875,503.84375 C 354.8875,503.82875 355.0075,503.81126 355.09375,503.5625 C 355.1775,503.32125 355.43751,503.21875 355.4375,503.21875 C 355.4375,503.21875 355.93251,503.11499 356.15625,502.625 C 356.2475,502.42625 356.33125,502.34999 356.375,502.21875 C 356.39625,502.1225 356.47624,502.10874 356.46875,502 C 356.4325,501.49625 356.625,501.3125 356.625,501.3125 L 356.625,500.28125 C 356.665,500.15875 356.695,500.05001 356.71875,499.9375 C 356.84375,499.7525 356.81249,499.46874 356.8125,499.46875 C 356.8125,499.46875 356.77626,499.10626 356.8125,499.09375 C 356.885,499.07 356.91251,499.01999 356.90625,498.875 C 356.9025,498.76125 356.78749,498.76501 356.5625,498.78125 C 356.33875,498.79625 356.38999,498.6675 356.1875,498.625 C 356.12563,498.61187 356.05375,498.61484 355.96875,498.625 z M 343.21875,498.75 C 343.13875,498.74703 343.0775,498.78688 343.0625,498.84375 C 343.0325,498.9575 342.84375,499.12501 342.84375,499.125 C 342.84375,499.125 342.76249,499.22124 342.6875,499.3125 C 342.61125,499.40375 342.75626,499.62626 342.59375,499.8125 C 342.4575,499.96875 342.55376,500.245 342.5,500.59375 C 342.4475,500.94375 342.38,500.88501 342.53125,501.28125 C 342.68375,501.67625 342.65876,501.73125 342.46875,502.15625 C 342.27875,502.5825 342.195,502.795 342.21875,502.875 C 342.24375,502.95625 342.29626,503.01375 342.3125,503.1875 C 342.33125,503.38875 342.31249,503.63124 342.3125,503.84375 C 342.3125,504.23875 342.30249,504.37249 342.59375,504.625 C 342.64375,504.66875 342.73625,504.63374 342.8125,504.65625 C 342.95625,504.7 343.09375,504.78124 343.09375,504.78125 C 343.64875,504.6825 344.33875,503.8725 344.34375,503.625 C 344.3525,503.2525 344.00126,503.24999 343.75,503.25 C 343.49875,503.25 343.46749,503.275 343.40625,503 C 343.345,502.7275 343.5875,502.53376 343.65625,502.375 C 343.72375,502.215 343.56751,502.07626 343.4375,502.03125 C 343.30875,501.985 343.37499,501.75 343.375,501.75 C 343.375,501.75 343.59999,501.43999 343.5625,500.9375 C 343.52375,500.43625 343.68126,500.35126 343.75,500.34375 C 343.81875,500.335 343.96251,499.77625 343.75,499.625 C 343.4525,499.41625 343.42125,499.04125 343.40625,498.875 C 343.39875,498.79125 343.29875,498.75297 343.21875,498.75 z M 348.28125,499.1875 C 347.93125,499.1875 346.93624,499.54001 346.875,499.84375 C 346.815,500.1475 346.79624,500.23624 346.5,500.3125 C 346.2025,500.3875 346.21876,500.74999 346.21875,500.75 L 346.15625,500.90625 C 346.065,500.9825 346.07001,501.05249 346.0625,501.28125 C 346.055,501.50875 345.96875,501.53124 345.96875,501.53125 C 345.96,501.72375 345.94375,501.92 345.90625,502.0625 C 345.8775,502.1775 345.80876,502.27 345.78125,502.3125 C 345.75,502.3625 345.77625,502.91501 345.84375,502.9375 C 345.9125,502.96125 345.95501,503.06749 346,503.28125 C 346.04625,503.49375 346.21875,503.53124 346.21875,503.53125 C 346.21875,503.53125 346.48874,503.55126 346.625,503.75 C 346.7625,503.9475 347.08,503.91376 347.4375,503.90625 C 347.79375,503.89875 347.89375,503.82125 348,503.59375 C 348.10625,503.36625 348.32249,503.395 348.6875,503.40625 C 348.97125,503.415 349.16624,503.22125 349.34375,502.84375 C 349.38125,502.76125 349.3375,502.72875 349.40625,502.625 C 349.5275,502.43875 349.72375,502.38751 349.8125,502.21875 C 349.8125,502.21875 349.76999,501.57624 349.78125,501.5625 C 349.905,501.405 349.98751,500.85625 350.09375,500.75 C 350.2,500.64375 350.27876,500.24874 350.1875,500.1875 C 350.09625,500.12625 350.1125,499.74624 350.15625,499.6875 C 350.26125,499.54625 350.27124,499.28001 349.90625,499.21875 C 349.54125,499.15875 349.33876,499.445 349.125,499.4375 C 348.9125,499.43 348.75751,499.1875 348.28125,499.1875 z M 347.96875,499.84375 C 348.11207,499.79816 348.28688,499.81155 348.375,499.90625 C 348.565,500.115 348.45625,500.0775 348.78125,500.25 C 349.10625,500.4225 349.07374,500.40624 349.0625,500.71875 C 349.05,501.0325 349.14624,501.85375 348.5625,502.25 C 348.19,502.5025 347.96751,502.56624 347.625,502.4375 C 347.34625,502.3325 347.15375,502.29874 347.09375,502.21875 C 347.03375,502.13875 346.69376,501.95126 346.75,501.71875 C 346.80625,501.48625 346.96124,501.57375 346.96875,501.4375 C 346.9775,501.30125 346.98,501.01001 347.15625,500.9375 C 347.3325,500.86625 347.31249,500.84375 347.3125,500.84375 C 347.3125,500.84375 347.675,500.7125 347.75,500.53125 C 347.82625,500.35125 347.7225,500.02249 347.84375,499.90625 C 347.87375,499.87719 347.92098,499.85895 347.96875,499.84375 z M 387.53125,499.875 C 386.37751,499.87499 385.96875,500.465 385.96875,501.125 L 386.78125,501.125 C 386.78126,500.795 387,500.46875 387.46875,500.46875 C 387.76376,500.46876 388.025,500.6 388.09375,501 L 388.09375,501.71875 C 387.045,501.71876 385.84375,502 385.84375,503.09375 C 385.84376,503.73625 386.2275,504.1875 387,504.1875 C 387.63374,504.18749 387.9575,503.82 388.0625,503.59375 L 388.09375,504.09375 L 388.875,504.09375 L 388.875,501.25 C 388.875,500.87626 388.885,499.875 387.53125,499.875 z M 392.3125,499.875 C 391.47124,499.87499 391.13875,500.49625 391,500.84375 L 391,499.96875 L 390.21875,499.96875 L 390.21875,504.09375 L 391,504.09375 L 391,502.34375 C 391.00001,501.51874 391.4525,500.65625 392.09375,500.65625 C 392.65876,500.65624 392.65625,501.08 392.65625,501.84375 L 392.65625,504.09375 L 393.4375,504.09375 L 393.4375,501.21875 C 393.43751,500.70626 393.2675,499.875 392.3125,499.875 z M 397,499.875 C 396.15876,499.87499 395.82625,500.49625 395.6875,500.84375 L 395.65625,499.96875 L 394.875,499.96875 L 394.875,504.09375 L 395.65625,504.09375 L 395.65625,502.34375 C 395.65624,501.51874 396.1075,500.65625 396.75,500.65625 C 397.31374,500.65624 397.3125,501.08 397.3125,501.84375 L 397.3125,504.09375 L 398.09375,504.09375 L 398.09375,501.21875 C 398.09374,500.70626 397.955,499.875 397,499.875 z M 401,499.875 C 399.74999,499.87499 399.1875,500.7125 399.1875,502.03125 C 399.18751,503.33249 399.75,504.1875 401,504.1875 C 402.23999,504.18749 402.8125,503.3325 402.8125,502.03125 C 402.81251,500.71249 402.24,499.875 401,499.875 z M 409.21875,499.875 C 408.68999,499.87499 407.53125,500.07375 407.53125,501.84375 C 407.53124,503.46625 408.34375,504.1875 409.59375,504.1875 C 410.045,504.18749 410.28625,504.14125 410.625,504.0625 L 410.625,503.4375 C 410.4425,503.49874 410.2,503.59375 409.84375,503.59375 C 408.71625,503.59375 408.3125,502.49125 408.3125,501.71875 L 410.71875,501.71875 L 410.71875,501.53125 C 410.71875,500.55999 410.22625,499.875 409.21875,499.875 z M 413.9375,499.875 C 413.1225,499.87499 412.76875,500.4825 412.65625,500.8125 L 412.65625,499.96875 L 411.875,499.96875 L 411.875,504.09375 L 412.65625,504.09375 L 412.65625,502.34375 C 412.65626,501.07624 413.235,500.71875 413.9375,500.71875 L 413.9375,499.875 z M 403.1875,499.96875 L 404.75,504.09375 L 405.5625,504.09375 L 407,499.96875 L 406.125,499.96875 L 405.15625,502.96875 L 404.0625,499.96875 L 403.1875,499.96875 z M 355.59375,500.28125 C 355.71375,500.3 355.80499,500.3325 355.84375,500.40625 C 355.93375,500.57375 355.84375,500.84375 355.84375,500.84375 C 355.84375,500.84375 355.76124,501.03376 355.625,501.125 C 355.52875,501.19 355.60874,501.47 355.4375,501.71875 C 355.365,501.8225 355.26751,501.86749 355.09375,501.9375 C 354.945,501.9975 354.87375,502.0575 354.8125,502.09375 C 354.6325,502.1975 354.695,502.17124 354.4375,502.15625 C 354.25125,502.145 354.02749,502.00124 353.875,501.8125 C 353.795,501.68 353.67249,501.41625 353.6875,501.3125 C 353.73875,500.9675 353.96624,500.92626 354.0625,500.9375 C 354.15875,500.95 354.87624,500.94124 354.96875,500.8125 C 355.06125,500.685 355.06251,500.65625 355.0625,500.65625 C 355.0625,500.65625 355.2,500.22125 355.59375,500.28125 z M 401,500.46875 C 401.84124,500.46876 401.96875,501.3625 401.96875,502.03125 C 401.96876,502.68999 401.84125,503.59375 401,503.59375 C 400.13999,503.59375 400.03125,502.69 400.03125,502.03125 C 400.03124,501.36249 400.14,500.46875 401,500.46875 z M 409.1875,500.46875 C 409.78625,500.46876 409.9375,500.95875 409.9375,501.21875 L 408.34375,501.21875 C 408.34374,501.0375 408.545,500.46875 409.1875,500.46875 z M 358.59375,500.625 C 358.4225,500.5925 358.37499,500.90626 358.375,500.90625 C 358.375,500.90625 358.35124,500.96001 358.34375,501 C 358.335,501.04 358.40249,501.31249 358.53125,501.3125 C 358.66,501.3125 358.75375,501.07374 358.78125,500.9375 C 358.80875,500.80125 358.76624,500.65624 358.59375,500.625 z M 387.9375,502.25 L 388.09375,502.25 L 388.09375,502.46875 C 388.09375,502.95376 387.69375,503.59375 387.15625,503.59375 C 386.92125,503.59375 386.6875,503.38375 386.6875,503.0625 C 386.68751,502.53375 387.32125,502.25 387.9375,502.25 z M 353.71875,502.71875 C 353.73375,502.72 353.76,502.71876 353.8125,502.8125 C 353.8125,502.8125 353.82251,502.83001 353.71875,502.8125 C 353.71625,502.795 353.7025,502.71625 353.71875,502.71875 z M 358.9375,502.8125 C 358.87922,502.81656 358.80625,502.84875 358.75,502.875 C 358.63875,502.9275 358.78125,503.09376 358.78125,503.09375 C 358.78125,503.09375 359.11124,503.495 359.34375,503.375 C 359.57625,503.255 359.26124,502.975 359.125,502.875 C 359.05687,502.825 358.99578,502.80844 358.9375,502.8125 z M 364.96875,502.84375 L 365,502.875 C 364.97975,502.86863 364.97963,502.89453 364.96875,502.90625 C 364.97247,502.88625 364.9664,502.84375 364.96875,502.84375 z M 358.90625,504.03125 C 358.73375,503.99875 358.68751,504.28124 358.6875,504.28125 C 358.6875,504.28125 358.66501,504.36626 358.65625,504.40625 C 358.64875,504.44625 358.71499,504.71875 358.84375,504.71875 C 358.97125,504.71875 359.06499,504.48 359.09375,504.34375 C 359.12125,504.2075 359.07874,504.06249 358.90625,504.03125 z" transform="matrix(0.8, 0, 0, -0.8, 0, 595.276)" id="path299" style="fill:#ffffff;fill-opacity:1;fill-rule:evenodd;stroke:none"/>
    </g>
  </g>
</svg>