<svg id="Layer_1" data-name="Layer 1" xmlns="http://www.w3.org/2000/svg" width="587.32" height="286.03" viewBox="0 0 587.32 286.03"><defs><style>.cls-1{fill:#33475b;}.cls-2{fill:#fff;}</style></defs><title>02-freelogovectors.net_</title><rect class="cls-1" y="0.37" width="284.55" height="284.92"/><path class="cls-2" d="M53.84,474a19.59,19.59,0,0,1-1.49,9.3c-2.23,4.47-6.69,6.7-11.53,6.7s-9.3-2.23-11.16-6.7a16.14,16.14,0,0,1-1.85-9.3v-26H33v26.78c0,6.69,3,10.78,7.81,10.78s7.81-4.09,7.81-10.78V447.93h5.21Z" transform="translate(-4 -277.94)"/><path class="cls-2" d="M62.77,465.41c0-2.23-.37-4.09-.37-6.32h4.83v4.46h.37A6.88,6.88,0,0,1,75,458.71c5.58,0,8.93,3,8.93,9.67v21.21H79.14V469.87c0-4.83-1.86-7.06-5.21-7.06-3.72,0-6.33,2.6-6.33,8.18v18.22H62.77Z" transform="translate(-4 -277.94)"/><path class="cls-2" d="M97.36,446.44v5.95H92.15v-5.95Zm-5.21,12.27h5.21v30.88H92.15Z" transform="translate(-4 -277.94)"/><polygon class="cls-2" points="98.57 181.14 103.78 181.14 110.47 206.44 110.84 206.44 117.54 181.14 122.75 181.14 113.82 211.64 107.87 211.64 98.57 181.14"/><path class="cls-2" d="M135.3,475.82c0,7.07,2.6,10.05,8.18,10.05a11.43,11.43,0,0,0,7.07-2.24l.37,4.47a23.72,23.72,0,0,1-8.55,1.86c-8.19,0-12.28-6.33-12.28-15.62,0-9.68,4.09-15.63,11.53-15.63,7.07,0,10.79,5.21,10.79,14.14v3Zm12.28-4.09c0-6.32-1.86-9.3-6-9.3-3.34,0-6,2.23-6.32,9.3Z" transform="translate(-4 -277.94)"/><path class="cls-2" d="M158.36,465.41v-6.32h4.84v4.83c1.49-3.72,4.83-5.95,8.55-5.21v4.84a15.83,15.83,0,0,0-1.86-.37c-3.72,0-6.32,3.34-6.32,10v16.37h-5.21Z" transform="translate(-4 -277.94)"/><path class="cls-2" d="M175.47,483.63a19.86,19.86,0,0,0,7.07,2.24c3.72,0,5.58-2.24,5.58-4.47s-.75-3.34-3.72-4.83l-3.35-1.49c-4.46-1.86-6-3.72-6-7.81a8.61,8.61,0,0,1,9.3-8.56h.37a14.15,14.15,0,0,1,6.7,1.12l-.38,4.09a15.67,15.67,0,0,0-6-1.49c-3.34,0-4.83,1.86-4.83,4.47,0,2.23,1.49,3.72,4.83,4.83l1.86.75a7.93,7.93,0,0,1,5.95,7.81c0,5.2-2.6,9.67-9.67,9.67a20.36,20.36,0,0,1-8.18-1.86Z" transform="translate(-4 -277.94)"/><path class="cls-2" d="M204.86,446.44v5.95h-5.21v-5.95Zm-5.21,12.27h5.21v30.88h-5.21Z" transform="translate(-4 -277.94)"/><path class="cls-2" d="M226.43,488.84a9.64,9.64,0,0,1-4.09,1.12c-4.84,0-7.07-1.86-7.07-7.44V463.18h-4.83v-4.09h4.83v-6.33l4.84-1.49v7.82h6.32v4.09h-6.32V481c0,3.35.74,4.84,3.34,4.84a11.63,11.63,0,0,0,3-.75Z" transform="translate(-4 -277.94)"/><path class="cls-2" d="M232.38,461a17.29,17.29,0,0,1,8.56-2.24,10.9,10.9,0,0,1,8.18,2.61c1.86,2.23,3,4.83,2.6,7.44v16a17.86,17.86,0,0,0,.38,4.84h-4.84v-4.47h-.37a9.13,9.13,0,0,1-8.56,4.84,8,8,0,0,1-8.55-7.44V481c0-5.95,3.72-10.41,14.13-10.41h3V469.5c.37-1.86-.37-3.35-1.12-4.84a7.38,7.38,0,0,0-5.21-2.23,10.73,10.73,0,0,0-7.81,3.35Zm1.86-14.14h4.46v5.95h-4.46Zm12.65,27.53h-3.35c-5.95,0-8.93,2.6-8.93,6.32a5,5,0,0,0,4.09,5.58h1.12a7.16,7.16,0,0,0,7.07-7.44v-4.46Zm-3-27.53h4.47v5.95h-4.47Z" transform="translate(-4 -277.94)"/><path class="cls-2" d="M266.6,453.51v7.06h7.81v4.09H266.6v15.26c0,3.71,1.12,5.95,4.09,5.95,1.12,0,1.86-.38,3-.38l.37,3.72a10.9,10.9,0,0,1-4.83.75c-1.86.37-4.1-.75-5.58-2.23a10.67,10.67,0,0,1-1.86-7.44V464.66H257.3v-4.09h4.47V455Z" transform="translate(-4 -277.94)"/><polygon class="cls-2" points="84.81 261.49 97.83 242.89 85.18 242.89 85.18 237.31 105.26 237.31 105.26 243.63 92.25 262.23 105.64 262.23 105.64 267.81 84.81 267.81 84.81 261.49"/><path class="cls-2" d="M139.39,540.92a21.31,21.31,0,0,0,.37,4.83H132.7v-4.46h-.37a9.17,9.17,0,0,1-8.19,5.21c-6.69,0-8.92-5.58-8.92-11.54V515.25h7.43v18.23c0,4.83,1.12,6.69,4.1,6.69,4.09,0,5.2-3.35,5.2-7.44V515.25h7.44Z" transform="translate(-4 -277.94)"/><polygon class="cls-2" points="158.83 226.15 166.26 226.15 166.26 244 166.64 244 178.17 226.15 187.09 226.15 172.96 245.86 188.21 267.81 178.91 267.81 166.64 248.47 166.26 248.47 166.26 267.81 158.83 267.81 158.83 226.15"/><path class="cls-2" d="M209,514.51c6.32,0,13.76,3.34,13.76,16,0,12.28-7.44,16-13.76,16s-13.39-3-13.39-16S202.62,514.51,209,514.51Zm-7.81-11.16h6V510h-6ZM209,541.29c4.83,0,6-5.58,6-10.79s-1.12-10.41-6-10.41S203,525.29,203,530.5s1.48,10.42,5.95,10.42Zm2.23-37.94h5.58V510h-5.58Z" transform="translate(-4 -277.94)"/><rect class="cls-2" x="225.41" y="222.8" width="7.81" height="45.38"/><path class="cls-2" d="M245,520.09a21.36,21.36,0,0,0-.37-4.84h7.06v4.46a9.61,9.61,0,0,1,8.19-5.2c7.06,0,9.3,5.2,9.3,11.53v19.71h-7.44V527.53c0-4.84-1.12-6.7-4.47-6.7-3.72,0-5.2,3.35-5.2,7.07v17.85H245Z" transform="translate(-4 -277.94)"/><path class="cls-1" d="M402.74,502.23a10.26,10.26,0,0,0,8.55,8.56C410.92,506,407.2,502.23,402.74,502.23Zm-.37-2.23a11.21,11.21,0,0,0,9.29-6.32,8.2,8.2,0,0,0-9.29,5.95Zm-18.23-5.58c3.35,3.72,11.16,10,15.62,5.95C396.41,493.68,387.86,493.31,384.14,494.42Zm-3.35-.74c3-2.23,15.25-3,20.09,4.83,1.11-4.83,6.69-7.81,13-5.95a10.85,10.85,0,0,1-7.81,8.56c4.46,1.11,7.43,5.95,6.69,11.53-5.95.37-11.16-4.47-11.9-10.42C394.93,506.7,384.88,499.26,380.79,493.68Zm-5.58-3a103.17,103.17,0,0,0,39.06,24.92V490.7ZM383,379.11a1.16,1.16,0,0,0,.75-.37,2.85,2.85,0,0,0-1.49-.37h-.74c0,.74,1.11,1.12,1.48,1.12Zm-1.11,2.24c-.37,0-.37,0-.75.37.38,0,.38.37.75.37a.36.36,0,0,0,.37-.37v-.37Zm-.75-1.86a.36.36,0,0,0-.37.37c0,.37.37.74.75,1.11h1.11a.81.81,0,0,0,.75-.74C382.65,379.86,381.91,380.23,381.16,379.49Zm-.74-5.21c-.37.37-.37.37-.74.37v.75h.74c-.37.74.37,1.11.74,1.11a1.3,1.3,0,0,0,.75-.37l.37-.37H383c0-.75-1.86-1.49-3-1.49Zm-9.67,37.2s.74-.38.74-.75a.8.8,0,0,0-.74-.74c-.74,0-1.12.37-1.12.74S370.38,411.48,370.75,411.48ZM392,390.65c.37,0,.74,0,.74-.75s-.37-.74-.74-.74-.74.74-.74.74C391.21,390.27,392,390.65,392,390.65ZM395.67,410l.37-.37v-.38h-.74v.38h-4.09a4.64,4.64,0,0,0-2.23-.38v.38a1.92,1.92,0,0,0,1.48.74h4.09C394.93,410.36,395.3,410,395.67,410Zm46.12-10.05a.81.81,0,0,0-.74.75s.37.74.74.74c.75,0,1.12-.37,1.12-.74C442.91,399.94,442.17,399.94,441.79,399.94ZM435.1,420.4l-.37.37a6.18,6.18,0,0,0,.74,1.86,16.75,16.75,0,0,1,.37,1.86,4.77,4.77,0,0,0,.37,2.24v1.11a3.31,3.31,0,0,1,.38,1.86l.37,8.93v8.55c0,.38-.37,2.23-.37,2.61V458a6.66,6.66,0,0,0,1.48,5.21c.38,0,.38.37.75.37,0,0,.74-.37.74-.74,0,0-.74-.75-1.11-.75,0-1.11-.38-1.86-.38-3v-2.24l-.37-3.34.37-.75v-8.92l-.37-11.54c-.37-3.34-.37-8.18-2.23-11.53A.36.36,0,0,0,435.1,420.4Zm-12.65-43.89h-.37v.75a5.55,5.55,0,0,0,.37,2.6,1.29,1.29,0,0,0,.37.74c.38.75,1.12.75,1.49,1.49a1.37,1.37,0,0,1,.37,1.12c.38,0,1.12.37,1.49.37s1.49-.37,1.49-1.12c-.37.37-.74.37-1.49.75l-.74-.75c0-.37-.37-.74-.37-1.11a3.75,3.75,0,0,1-1.86-1.49A10.66,10.66,0,0,1,422.45,376.51Zm2.61,4.09h.74c.37-.37,1.49,0,1.49-.74h-2.23a1.28,1.28,0,0,0-.38.74Zm1.11.37s-.74,0-.74.38,0,.37.37.37l.74-.37C426.92,381,426.54,381,426.17,381Zm-2.23-6.69c0,.37,0,.37.37,0a1.29,1.29,0,0,0-.74-.37,2.25,2.25,0,0,0-1.49.37.36.36,0,0,0-.37.37h.74s0,1.12.75,1.12c.37,0,.37-.37.37-.75v-.37ZM425.8,378c-.74.74-1.49,0-1.49.74v.37h.75c.37,0,1.11-.37,1.11-.74s-.37-.74-.74-1.11v.37Zm1.86-3.72c.74,0,.74,0,.74-.37h-.74c-.37,0-2.6.37-2.6.74V375a1.36,1.36,0,0,1,1.11-.37h.37c0,.75,0,.75.38.75.74,0,.74,0,.74-.75Zm5.58,7.07c.74,0,1.11-.38,1.11-.75a16.74,16.74,0,0,1-2.23-2.6,17.75,17.75,0,0,0-1.49-4.09v.74a9.25,9.25,0,0,1,.75,2.61,1.3,1.3,0,0,1-.75.37c-.37,0,0,0-.74-.37v-1.12a12.9,12.9,0,0,0-1.12-4.09v.37a9.54,9.54,0,0,0,.75,2.6v2.24c0,1.48,1.11,1.11,1.86,1.11s1.49,3,2.23,3Zm15.25-35v-.74h3.72l4.83-5.95-9.3,5.2,1.86-5.2-2.6-5.58v11.16h-.37c-.37-.38-.75-.38-1.12-.75l-8.92-4.46,4.46,5.95h5.21l-8.56,6.32a19.74,19.74,0,0,0,6.33-1.48c1.11-.75,1.48-3,2.6-4.1H447v11.16c1.12-2.23,1.86-4.46,3-6.69a1.18,1.18,0,0,1,.37-.75l7.44.75L448.86,346Zm17.11,58s-.37-.75-.75-.75-.74.75-.74,1.12,0,.74.74.74C465.23,405.52,465.6,405.15,465.6,404.41Zm2.23-6.7c-.37-.74-1.12-1.49-1.12-1.86a2.76,2.76,0,0,0,1.12-1.11,16.28,16.28,0,0,0,.37-1.86s0-1.49-.74-1.49a.36.36,0,0,0-.37.37v1.12c0,.74,0,1.11-.38,1.49-.74,1.11-1.48,1.11-1.48,1.85,0,1.12,1.11,2.61,1.11,3.72v.75c0,.37,0,.74.37.74h0c.75,0,1.49-1.49,1.49-1.86A16.28,16.28,0,0,0,467.83,397.71Zm3-2.6a1.15,1.15,0,0,0,.37-.74c0-.38,0-.38-.37-.38,0,0-2.24,1.12-2.24,1.49v.37H469a1.29,1.29,0,0,0,.74-.37c.37,0,0,.74,1.12.74a1.29,1.29,0,0,0,.37-.74A.36.36,0,0,0,470.81,395.11Zm4.46,5.58c.37-.37.74-.75,1.12-.75v-.37h-1.12a.36.36,0,0,0-.37.37l-1.12,1.12a.36.36,0,0,0,.37.37c.38,0,.38,0,.75-.37A.36.36,0,0,1,475.27,400.69Zm.74,1.11.38-.74a.37.37,0,0,0-.38-.37l-1.11,1.11H476Zm5.21,15.63h.37v-.38h-1.11C480.85,417.43,480.85,417.43,481.22,417.43Zm30.87-41.66h0c-.37.37-1.11.37-1.48.74h-.75c0,.37.75.75,1.12.75s1.49-.75,1.49-1.49ZM511,382.83c-.75.38-1.12,0-1.49,0a.8.8,0,0,0,.74.75s1.12-.37,1.12-.75S511.35,382.83,511,382.83Zm-1.86-.74a.36.36,0,0,0-.37.37h1.86c.74.37,1.11,0,1.11-.37h-2.6Zm-.37-4.83-.38,3.71a.37.37,0,0,0,.38.38h1.11a.37.37,0,0,0,.37-.38l-.37-.37h-1.11c0-.37.37-2.23.37-2.6s-.37-.74-.37-1.12Zm-1.86,0a.37.37,0,0,0-.38.37,1.39,1.39,0,0,0,1.12.37.8.8,0,0,0,.74-.74c-.37,0-.37.37-.74.37S507.26,377.26,506.89,377.26Zm-12.28,16.36a.36.36,0,0,0-.37.37c.37,0,.74,0,.74-.37Zm-1.11-.74v.37a1.29,1.29,0,0,0,.74.37c.37,0,.37-.37.74-.74H493.5Zm0-.75a.8.8,0,0,0,.74-.74s-.37-2.23-1.86-2.23a.72.72,0,0,0-.74.74s.37.75.74.75a.37.37,0,0,0,.37-.38c.37.38,0,1.12.37,1.49Zm2.23-4.09s-1.49.75-1.49,1.12a.8.8,0,0,0,.74.74c.38,0,.75,0,.75-.37v-.37l.37-.37v-.38A.36.36,0,0,0,495.73,388Zm3.34,1.49a.37.37,0,0,0,.38-.37c0-.37-.38-.37-.75-.37s0,0,0-.38v-1.48c0-.75-.37-1.12-.74-1.86-.37,0-.75-.38-1.12-.38s-.37,0-1.11.75v.37h.74c.37.37,1.12.74,1.12,1.12v1.48a1,1,0,0,0,1.11,1.12Zm11.54-26.78c.37-.37.74-.37.74-.75s-.37-1.11-.74-1.11h-.38v.37a1.35,1.35,0,0,1,.38,1.12Zm3,3.35a.72.72,0,0,1-.74.74.81.81,0,0,1-.75-.74,1.68,1.68,0,0,1,1.12-1.12A1.37,1.37,0,0,1,513.58,366.1Zm3.72-3c-.37-.37-.37-.37-.74-.37h-.38a8.39,8.39,0,0,0-1.48-.37H514a1.29,1.29,0,0,0-.74.37h-1.12a1.29,1.29,0,0,0-.74-.37.36.36,0,0,1-.37.37c.37.74,1.11,0,1.49,1.11a2.05,2.05,0,0,0-1.12,1.86,2.37,2.37,0,0,0,1.86,2.24c1.49,0,1.86-1.86,1.86-3-.37-.37-.37-.74-.75-1.12h.75c.37,0,.74.38,1.11.38.38-.38.75-.75.75-1.12ZM493.5,502.6c-4.84.38-8.56,4.1-8.56,8.56A10.27,10.27,0,0,0,493.5,502.6Zm.37-2.23a8.07,8.07,0,0,0-9.3-6.32h0A10.14,10.14,0,0,0,493.87,500.37Zm18.22-5.58c-3.72-1.11-12.27-.37-15.62,5.95C500.93,504.84,508.75,498.88,512.09,494.79Zm3.35-.74c-4.09,5.95-14.13,13.39-20.08,8.55A11.84,11.84,0,0,1,483.08,513c-.37-5.58,2.23-10.42,7.07-11.53a10.82,10.82,0,0,1-7.81-8.56c6.32-1.86,11.53,1.12,13,5.95C499.82,491.07,512.47,492.19,515.44,494.05Zm5.21-3H482V516A97.31,97.31,0,0,0,521,490.7ZM489.78,468a.36.36,0,0,0,.37-.37c0-.37,0-.37-.37-.37h0a.37.37,0,0,0-.38.37C489,468,489.4,468,489.78,468Zm-4.47,4.84-.37.37c0,.74,0,1.12.37,1.49l.37.37a1.39,1.39,0,0,0,1.12.37,2.39,2.39,0,0,0,2.23-2.23,7.07,7.07,0,0,1,3-.74h-3.35c-.37,0-.37.37-.74.74,0,0,0,1.12-.75,1.12-.37,0-.37-.38-.37-.75,0-1.49,1.49-1.49,1.86-1.49h1.12a1.29,1.29,0,0,0,.37-.74c0-.37-.37-2.6-1.49-2.6a.36.36,0,0,0-.37.37c.37.74.37,1.11.74,1.86h-.37A2.66,2.66,0,0,0,485.31,472.85Zm-24.18,35c0,1.12,3.35,1.49,3.72,1.49h3s3.72-.37,3.72-1.49c0-1.49-4.46-1.86-5.58-1.86-.37,0-5.21.37-5.21,1.86Zm1.12-9.3c-1.12-.37-1.86-2.6-3.72-3.34a18.81,18.81,0,0,1,2.6,6.32v4.83a6.33,6.33,0,0,1,3.72-1.11h2.61a7.23,7.23,0,0,1,3.72,1.11v-4.46a13.32,13.32,0,0,1,2.6-6.69,6.66,6.66,0,0,0-1.86,1.48c-.37.75-1.86,2.23-2.6,1.86v4.09c0,.38.74,1.12.74,1.12h0c-1.11,0-2.23-.37-3.35-.37,1.49-1.49,1.12-3.35,1.86-4.84-2.6-1.86-1.48-4.46-2.23-6.69a1.36,1.36,0,0,0-.37,1.11h0v.75a6.93,6.93,0,0,1-1.86,5.2c.74,1.12.74,3.35,1.86,4.47a4.73,4.73,0,0,0-2.23.37c-.37,0-.75.37-1.12.37h0a10.88,10.88,0,0,0,.75-3.35v-1.48a.81.81,0,0,0-.75-.75Zm-19,9.3c0,1.12,3,1.49,3.72,1.49h3s3.72-.37,3.72-1.49c0-1.49-4.84-1.86-5.21-1.86S443.28,506,443.28,507.81Zm1.86-8.93c-1.49,0-2.6-3-4.46-3.34a5,5,0,0,1,1.11,1.49,10.94,10.94,0,0,1,1.49,3.71l.37,1.49v4.09a6,6,0,0,1,3.35-1.11h3a8.38,8.38,0,0,1,3.72,1.11v-4.09a12.65,12.65,0,0,1,2.6-7.06c-1.86.74-2.6,3.34-4.46,3.71v1.86c-.38.75,0,1.49,0,2.24,0,.37.37.74.37,1.11a5.94,5.94,0,0,1-1.49-.37c-.74-.37-1.12,0-1.49,0,1.12-1.49.75-3.35,1.49-4.46v-.38c-2.23-2.23-1.49-4.46-1.86-6.69h-.37c-.75,2.23,0,4.84-2.23,6.69a18.46,18.46,0,0,0,1.86,4.84,10.33,10.33,0,0,0-3.35.37,5.54,5.54,0,0,0,.74-3.35Zm-20.08,8.93c0,1.12,3.71,1.49,3.71,1.49h3a10.92,10.92,0,0,0,3.35-.74l.74-.75c0-1.49-5.21-1.86-5.58-1.86C430.26,506,425.06,506,425.06,507.81Zm1.11-9.3c-1.11-1.11-2.23-3-3.35-3.34a16.64,16.64,0,0,1,2.61,6.69v4.46a6.29,6.29,0,0,1,3.72-1.11h2.6a6.31,6.31,0,0,1,3.72,1.11v-4.83a1.3,1.3,0,0,0,.37-.75,17.57,17.57,0,0,1,2.23-5.57,8.38,8.38,0,0,0-1.86,1.48c-.37.75-1.86,2.23-2.6,1.86v2.23a10.86,10.86,0,0,0,.74,3.35c-.74-.37-1.48-.37-2.23-.74H431c1.11-1.49,1.11-2.61,1.86-4.47-2.61-1.85-1.49-4.46-2.24-6.69h-.37c-.74,2.23.37,4.46-2.23,6.69,1.12,1.49.74,3.35,1.86,4.47a16.28,16.28,0,0,0-1.86.37,3.73,3.73,0,0,0-1.11.37h0a10.33,10.33,0,0,0,.37-3.35v-1.86a1.3,1.3,0,0,0-.75-.37Zm2.6,34.6,4.47-5.58-4.47-6-4.46,5.58Zm12.28,0,4.46-5.58-4.46-6-4.46,5.58ZM451.46,535,447,529.39l-4.46,5.2,4.46,5.95Zm1.49-1.85,4.84-5.58-4.84-6-4.46,5.58Zm7.81-6,4.47,5.58,4.46-5.58-4.84-5.2ZM454.44,535l4.84,5.58,4.09-5.95L458.9,529Zm-5.95,7.44,4.83,5.58,4.1-5.58L453,536.82ZM447,544.26l-4.46,5.58,4.46,5.95,4.46-5.95Zm-5.95-7.44-4.46,5.58,4.46,5.58,4.46-5.58Zm-10.42-2.23,4.84,5.58,4.09-5.21-4.83-5.57Zm1.86,12.65c-.37-.37-.74-1.12-1.11-1.49l2.6-3.35-4.46-5.95-2.6,3.35a18.79,18.79,0,0,0-1.12-2.6l2.23-2.61-3.72-4.83v-6l3.35-3.72-3-3.72h3l1.49,1.86,1.11-1.86h3l-2.61,3.34,4.47,6,4.46-5.58-2.6-3.72h2.6l1.49,1.86,1.12-1.86h3l-3,3.34,4.83,6,4.46-5.58-2.6-3.72h3l1.48,1.86,1.12-1.86H457l-2.6,3.34,4.46,6,4.47-5.58-2.61-3.72h3l1.11,1.86,1.49-1.86h3l-3,3.34,4.84,6,1.11-1.49v6.69L470.81,529l-4.47,5.58,3.72,4.09c-.37.75-1.11,1.86-1.49,2.61l-3.72-4.84L460.39,542l3.72,4.84a8.16,8.16,0,0,1-1.49,1.86l-4.09-4.84-4.46,5.58,3,3.72-2.23,1.12-2.23-2.61-4.46,5.58c-1.12-.37-1.86-.37-3-.74L440.68,551l-1.49,2.23c-.74-.37-1.12-.74-1.86-1.12l1.86-2.23-4.46-6Zm-11.9-58h54.68v24.93H420.59ZM475.64,474v.75c-1.49.37-2.23,1.86-3,3-.38,0-.75.38-1.12.38a4,4,0,0,1-2.23-1.49,6.73,6.73,0,0,0,1.86-2.61c.37-.74.74-1.11,1.11-1.86a4,4,0,0,1,.75-1.86,8.76,8.76,0,0,1,.74-3c.37-1.86.75-5.21.75-5.21v-5.95a7.1,7.1,0,0,0-.38-2.6,2.22,2.22,0,0,0-.37,1.48v7.07a36.84,36.84,0,0,1-3,10.42,7.82,7.82,0,0,1-2.24,3.72,27.4,27.4,0,0,1-4.46,2.6,5.3,5.3,0,0,1-2.23-.74c-.75,0-.75-.75-1.12-1.12l-.74-.74a15.63,15.63,0,0,1-2.23-5.21c-.37-1.12-1.12-2.23-1.49-3.35a9.82,9.82,0,0,0-3-2.6l1.12-.38c4.46,0,5.21,4.1,9.3,4.84a2.85,2.85,0,0,1,1.49.37c.37,0,.37.37.74.37s.37,0,.37-.37h0c0-.37-.37-.74-.74-1.11-.75,0-1.49-.38-2.23-.38h0c-.38-.37-.75-.74-1.12-.74l-3-3a.36.36,0,0,1,.37-.37,3.35,3.35,0,0,0,1.86.37H463c.38-.37.38,0,.38-.37,0-.74,0-.74-.38-.74s-1.11.37-1.48.37-.75-.37-1.12-.74-.37-1.12-.74-1.49a7.34,7.34,0,0,1-1.49-3V457.6l.74-4.09a24.09,24.09,0,0,0-.74-2.61,17.65,17.65,0,0,0-2.6-4.46c-.38-.37-.38-1.49-.75-2.23a2.8,2.8,0,0,1-.37-1.86c0-2.23.37-2.23,1.49-5.21a6.34,6.34,0,0,0,.37-2.6,8.45,8.45,0,0,0-1.12-4.1V429a2.76,2.76,0,0,1,.75,1.48,4.57,4.57,0,0,0,4.09,2.61h1.49c1.11,0,1.86-.75,3.34-1.12.38-.37.75-.74,1.12-.74a24.25,24.25,0,0,0,3-3.35,11.8,11.8,0,0,1,3.72,1.86v3a46.4,46.4,0,0,1-1.86,6.69,22.06,22.06,0,0,1-2.24,4.09v.38c0,.37-.37.74-.37,1.11a.36.36,0,0,0,.37.37c.38,0,.75,0,.75-.37.74-1.49,1.86-2.6,2.6-4.09.75-1.86,1.12-2.6,1.49-3.72a17.19,17.19,0,0,1,.37,3.72v2.23c0,.75-.37,1.49-.37,2.23v1.12c0,.74-.37,1.12-.37,1.86a33.81,33.81,0,0,0-1.12,3.35l.37.37h.38a40.34,40.34,0,0,1,1.86-4.09l1.11-3.35c.75,0,1.49.74,2.61,1.12s2.6.37,3.71.74c.75.74.75,1.86,1.12,2.6v1.86c-.37.75-.37,1.49-.74,2.23a7.84,7.84,0,0,1-.75,2.24c-.74,2.23-1.49,4.46-2.23,6.69v1.86a5,5,0,0,0-1.86-1.11,1.29,1.29,0,0,0-.74.37c0,.37.37.74.37,1.11a7,7,0,0,1,.74,2.61,6.57,6.57,0,0,1-.37,1.86,3.39,3.39,0,0,1-.37,1.86c-.37,1.11-1.49,2.6-1.12,3.72Zm1.86-.74a34.09,34.09,0,0,0,1.49-6c0-.37-.37-1.49-.37-2.23.74,0,.74,0,1.11.74.37.37.37,1.86,1.12,2.6a6.28,6.28,0,0,0,1.49,1.86c-.38.38-1.86.75-1.86,1.86,0,.75.74,1.86,1.48,1.49,1.86,0,2.61-1.86,2.61-3,0-.38-.37-1.12-.37-1.49-.38-.37-.38-.37-.38-.75h1.49c.37,0,1.12-1.48,1.86-1.86a26,26,0,0,1,3-1.11l-.37.37a1.29,1.29,0,0,0,.37.74,1.12,1.12,0,0,0,0-2.23c-1.49.37-2.61.75-3.72,1.12v-1.12l.37-6.32.74-6.32v-1.49l-1.11-4.46c0-3,3.72-6,4.46-8.56,0-.37.37-.74.37-1.12a.36.36,0,0,0-.37-.37c-.37.75-.74,1.12-1.11,1.86-.75-1.49-1.49-1.49-1.49-3,.37-.75.37-1.49.74-1.86.37-.75,2.61-3.35,3.35-3.35a8.18,8.18,0,0,1,1.86,1.11,7.07,7.07,0,0,0-1.86,4.84,14.18,14.18,0,0,1-.37,3V445l-.37,5.21-.38,3.35a.37.37,0,0,0,.38.37v3.35a15.9,15.9,0,0,1-.38,1.86v1.48c0,.38,0,.38.38.38s.37-.75.37-1.12c0-.74.37-1.12.37-1.86v-1.12c0-1.48.37-2.6.37-3.72a20.48,20.48,0,0,1,.37-3.34v-.38l.38-3v-9.67l1.11-4.47a.36.36,0,0,1,.37-.37.81.81,0,0,1,.75-.74h1.11c1.49,0,2.61-.75,2.61-1.86v-1.12c2.23-1.11,4.46-1.48,6.69-2.23l4.47-1.11a1.37,1.37,0,0,0-1.12-.38c-.37,0-1.49.38-2.23.38a9.61,9.61,0,0,0-2.61.74,18.91,18.91,0,0,0-4.83.74c0-.37.37-.74.74-1.11a8.16,8.16,0,0,1,1.86-1.49,17.71,17.71,0,0,1,3.72-1.86h.37c.38,0,1.49-.37,1.86-.37,1.12,0,5.21,4.09,6.33,4.83a1.9,1.9,0,0,0,1.48.75.37.37,0,0,0,.38-.37c0-.75-1.12-.75-1.49-1.12s-.37-1.12-.75-1.49L511,420.77a1.29,1.29,0,0,1,.74-.37,8.25,8.25,0,0,1,3,.37h.74c.74,0,1.12-.37,1.86-.37,5.58-1.86,9.67-9.3,10-13.76,0-.37.38-.37.38-.74,0,0-.38-.75-.75-.75,0,0-.74.37-.74.75V407a21.14,21.14,0,0,1-1.49,4.47,11.64,11.64,0,0,1-1.86,3.71,12.8,12.8,0,0,1-3,1.86c-.37.38-1.11.75-1.48,1.12L514,419.29h-3c-.37,0-1.12-.38-1.49-.38a14.09,14.09,0,0,0,4.83-3.34c0-.38.38-.38.38-.75a11.11,11.11,0,0,0,1.48-3.72,18.18,18.18,0,0,0,.75-4.46l.37-5.21a12.75,12.75,0,0,1,.37-3.72,13.29,13.29,0,0,1,.37-2.6V394a4.25,4.25,0,0,0-1.11,3,34.84,34.84,0,0,0-.75,5.21V404c0,1.11-.37,2.23-.37,3.34a18.84,18.84,0,0,1-8.18,11.16h-1.12a5.53,5.53,0,0,1-2.6-.37c1.49-1.49,3-3.35,3.35-5.21v-1.48h1.49c1.11-.38,1.86-.75,3-1.12a.36.36,0,0,0,.37-.37l1.49-.37s1.49-1.12,1.49-1.49a.36.36,0,0,0-.37-.37c-.38.37-1.12.74-1.49,1.11-.37-.74-.37-1.49-.74-1.86a3.19,3.19,0,0,1-1.12-2.23,17.71,17.71,0,0,1-1.86-6.32c0-2.61,1.86-4.84,3.35-7.81v-1.12h0c.37,0,.74.37,1.11.37a14,14,0,0,0,4.47-2.6s.74-.75.74-1.12a.36.36,0,0,0-.37-.37,5.29,5.29,0,0,0-1.12.74,7.73,7.73,0,0,1-3.72,2.24c-.37-.38-.74-.38-1.11-.75v-1.11a2,2,0,0,1,1.11-1.86v.37c0,.37-.74.37-.74,1.11a.8.8,0,0,0,.74.75c.75-.37,1.12-.37,1.86-.75.37,0,.75-.37,1.49-.74.74-.74,1.49-1.12,1.49-1.86a.8.8,0,0,0-.75-.74c-.74,0-.74,1.48-.74,1.86a5.3,5.3,0,0,1-2.23.74c0-.74-.75-1.49-1.49-2.23a2.85,2.85,0,0,0,.74-1.86c.38-.75,1.49-1.49,1.49-2.23-.37-.38-.37-.38,0-.75,2.23,1.12,2.61,4.09,3,5.58,0,.37.37.75.37,1.12a4.75,4.75,0,0,0,2.6,3.35c.38.37,1.49,0,1.86.74.38,0,.38.37.38.74.74,1.12,1.86,1.86,2.6,3.35a4.26,4.26,0,0,1,1.12,3c0,.37.37.74.37,1.11s.37,1.12.37,1.49l-.37,3.35V404s-.37,2.6-.37,3.72a15,15,0,0,0-.38,3.72v3.34a4.26,4.26,0,0,0,1.12,3c0,.74-1.12,2.23-1.12,2.6a23.39,23.39,0,0,1,.75,3.35,12.72,12.72,0,0,1,.37,3.72,4.08,4.08,0,0,1,0,3,4.77,4.77,0,0,1-.37,2.24c0,.74-.37,1.48-.37,2.23-1.12,2.6-4.84,3.35-6.7,3.35h-2.23c-.37-.38-.75-.38-1.12-.75-.37,0-1.11-.37-1.49-.37-.37-.37-.37-.37-.74-.37a4.62,4.62,0,0,1-1.86.74,8.2,8.2,0,0,1-3,.37h-4.1c-.37-.37-.37-1.86-1.48-1.86h-.38v.38a1.37,1.37,0,0,1,.75,1.11v1.12c.37.74,1.11.37,1.49.74h14.5a9,9,0,0,0,7.07-3,11.39,11.39,0,0,0,1.86-2.61,10.62,10.62,0,0,0,1.49-4.46v-1.12a13.06,13.06,0,0,0,.37-2.23l.37-7.07V407l-.37-5.95V399.2a9.15,9.15,0,0,1-.37-2.6v-.38a41.69,41.69,0,0,0-.75-5.2,6.51,6.51,0,0,1,.37-1.86,2.85,2.85,0,0,1,.75-1.49c.74-.37,1.49-.37,1.49-1.12s-1.49-.74-1.49-2.23c0-2.23,1.86-1.11,1.86-4.46V366.1c-.37-1.12-1.49-1.12-1.86-1.49s-.37-.37-.37-.75c0-.74.37-1.11,1.11-1.48l.75.37H534c0-.37-.75-.75-.75-1.86,0-.37.38-1.86,1.49-1.86.75,0,1.49,1.49,1.49,1.86a5.51,5.51,0,0,1-.74,1.49c0,.37.74.37.74.37a1.29,1.29,0,0,1,.74-.37c.75,0,1.12,1.11,1.12,1.11,0,1.86-2.6,1.49-2.6,3v8.93c0,1.11,1.11,5.57,1.11,6s.37.74.75,1.11.74.37.74.75v1.48c-.37.38-.74,1.12-1.12,1.12a.69.69,0,0,1-1.11,0v.74c.37,0,.37,0,.74.38.37,0,.37.37.75.74a3.22,3.22,0,0,1,1.11,2.23,24.32,24.32,0,0,1-.74,4.09c-.75,5.58-1.12,9.67-1.86,16.74l-.37,9.3v5.58c0,.37.37.74.37,1.12a74.18,74.18,0,0,0,1.49,9.67c1.11,0,1.48,1.48,1.48,2.23,0,.37-.37,1.86-1.48,1.86l-21.95.37H503.91a2.78,2.78,0,0,1-2.23-2.6c0-1.49,0-1.86,1.86-1.86V436c0-.74-.75-.37-1.12-.37-1.49,0-2.23,1.12-2.6,2.61a1.29,1.29,0,0,1,.37.74,3.79,3.79,0,0,0,1.86,3l-.37,13.76a.36.36,0,0,0-.37.37c-1.86,0-1.86,1.49-1.86,2.6-.38,1.12.37,2.24,1.86,2.61h0v1.11c-.38,2.23-.75,4.84-1.12,7.44a35,35,0,0,1-2.6,8.19h-1.12c-.37,0-2.23-.75-2.23-1.12v-1.12a4,4,0,0,0,.37-1.86c.37-.37,1.12-.37,1.49-.74a1.29,1.29,0,0,1-.37-.74v-1.12c.74-3.72,1.48-11.9,1.48-11.9V458l.38-4.46L498,442a3.84,3.84,0,0,1,.37-1.49c0-.37,0-.37-.37-.75a.37.37,0,0,0-.37.38c0,.74-.38,1.48-.38,2.23-.37.74,0,.74,0,.74a12.75,12.75,0,0,0-.37,3.72l-.37.75v6.32c0,3.35-1.49,8.55-1.11,11.9a1.28,1.28,0,0,1-.38.74,7.56,7.56,0,0,1-1.11,4.1c0,.74-1.12,1.48-1.12,1.48v.38h1.49v.37c-1.49.37-3,1.49-4.46,1.86-3.35,1.86-2.61,4.46-5.21,4.46a2.83,2.83,0,0,1-1.86-.74h-.37c-2.61-.75-5.58-3.35-5.58-5.21Zm2.23,16H524c-11.91,13.77-27.16,23.44-44.27,29.39Zm48.36-5.2H500.93l-2.6-5.95c0-.38.37-.75.74-1.49l2.24,5.21h28.27A8.19,8.19,0,0,1,528.09,484Zm1.86-3.35h-27.9v-18.6h34.59v9.67c0,.37-2.6,4.09-3.72,5.95-.37.75-1.11,1.49-1.49,2.24-.74.74-.74.74-1.11.74Zm-26.78-24.55.37-13.76h33.1l.37.37v13.39Zm35.7,3.72H500.93c-.74,0-.74-1.12-.74-1.12,0-.37.37-1.48,1.12-1.48H538.5a1.18,1.18,0,0,1,.75.37v1.11s-.38,1.12-.75,1.12ZM525.48,388a.81.81,0,0,1-.74.75,7.15,7.15,0,0,1-3.35-1.49A3.65,3.65,0,0,1,519.9,384v-.74c0-.38-.37-.75-.37-1.12a25.26,25.26,0,0,1-1.11-3,6,6,0,0,0-2.61-1.48,17.26,17.26,0,0,1-2.6-2.61c-.37-1.11-.74-3-2.23-3.72a7,7,0,0,0-2.61-.74c-.74,0-1.11,0-1.48.37-.38,0-.38.37-1.12.75v-.38c0-.37.37-.37.74-.37.75-.37,1.12-.74,1.86-1.11h1.12a19.25,19.25,0,0,1,4.83-.38c3.35,0,4.47,1.12,7.44,5.21l1.12,1.12c.74,1.11,1.49,1.49,1.49,2.6a16.28,16.28,0,0,0-.37,1.86c0,1.49,1.11,2.23,1.86,3.72v1.49Zm-22.31-2.23a4.63,4.63,0,0,0-1.49-3,25.64,25.64,0,0,1,3.72-1.48c.37,0,.74,2.23.74,2.6a2.8,2.8,0,0,1-.37,1.86c0,.37-1.86,5.21-3.72,5.21-.37,0-.74,0-.74-.37a21.22,21.22,0,0,1,1.48-2.61C502.79,387.3,503.17,386.55,503.17,385.81Zm21.2-18.23v3.35c-.37.37-.37.75-.75,1.12-.37.74-.37,1.11-.74,1.49-.37,0-.74-.38-1.12-.75s-.74-.74-.74-1.11c-.37-.75-2.6-2.61-2.6-3.35a3.72,3.72,0,0,1,.37-1.49,21.11,21.11,0,0,0,.37-2.6h0c.37-.75.74-1.12.74-1.49s.75-.75.75-1.12c.37,0,.37-.37.37-.74s-.37-.37-.37-.74h-.75c-.37,0-3,.74-3,1.85l.74.38s.75-.75,1.12-.75c0,.37-.37.75-.75,1.12a14.12,14.12,0,0,0-1.11,3.72,1.76,1.76,0,0,1-1.86,1.86h-5.21c-1.11.37-1.86.74-3,1.11a16.36,16.36,0,0,1-1.86.38c-1.49,0-1.86-1.12-3.72-1.86-.75-.38-1.86-.75-2.61-1.12a.36.36,0,0,0,.37-.37h1.49c1.86,0,1.12.74,2.23.74,1.49,0,1.12-.74,1.86-1.49H505v.38c0,.74,1.86,0,1.86,1.48,0,.38,0,.38-.38.38a.81.81,0,0,1-.74-.75h-.37c-.37,0-.37.37-.37.75s.37,1.11.74,1.11h.74a3.06,3.06,0,0,0,2.24-1.49v-.74c-.38-.74-.75-1.12-1.12-1.86h-.74c-.38,0-.75,0-.75-.74,0-.38,1.12-.75,1.12-1.12v-1.49c0-.37,0-3,.74-3,.37,0,.75.37,1.12.37l.37-.37c0-1.12-1.49-1.12-1.86-1.12a2.8,2.8,0,0,0-1.12,1.12c-.37.74-.37,1.49-.74,2.23V362a2.24,2.24,0,0,1-.37,1.49l-.37.37c0,.38,0,.75-.38.75a12.33,12.33,0,0,0-1.86,1.11,3.35,3.35,0,0,0-1.86-.37c-.37,0-4.09.37-4.09,1.49,0,.37.75.74,1.12.74l2.23,1.12a22.67,22.67,0,0,1,3.72,2.6c1.12,1.49.74,3,1.86,4.47h0v-1.49a3.34,3.34,0,0,1,1.12-2.6,1.13,1.13,0,0,0,.74-.38h.74c1.49,0,3.35,1.12,3.35,3V375a3.69,3.69,0,0,0,1.49,1.86c.37.75,1.49,1.12,1.49,1.86A5.27,5.27,0,0,1,514,381a.37.37,0,0,0-.37.38,8,8,0,0,1-1.86,3,2.24,2.24,0,0,1-1.49.37c-.74,0-1.11-.74-1.86-1.86-.37-1.11-1.11-1.48-1.48-2.23s0-1.86-.75-2.6a.36.36,0,0,1-.37.37l-.74-.74c-.38,0-.75-.37-1.12-.37h0a22.08,22.08,0,0,0,1.49,3l-4.47,1.49a1.29,1.29,0,0,0-.37.74,6.64,6.64,0,0,1,1.49,3.35v1.49c-.37.74-.74,1.49-1.12,2.23l-.74.74c-.37,0-.37-.37-.74-.37a.37.37,0,0,0-.38-.37v.37c.38.37.38.75.75,1.12h.74v.74c.37.75.75.37,1.12.75.37,0,.74.74,1.11,1.11,0,.37.38.37.75.75a7.8,7.8,0,0,1,1.49,4.09v.74a16.28,16.28,0,0,0,.37,1.86c0,.37-.37,1.49-.37,1.86,0,1.12.74,1.49,1.48,3,.38.37.38,1.11.75,1.86-.37.74-.37,1.48-.75,1.86,0,.37-.37.74-.74,1.11s-1.49.75-1.49,1.49a5.3,5.3,0,0,0-2.23-.74h-1.12c-1.48,0-1.11-1.49-2.6-1.49-.37-.37-.74,0-.74.37v.37a2.83,2.83,0,0,0,.74,1.49c-1.49-.74-1.49-2.6-3.35-2.6,0-.38-.37-.38-.37,0,.75-2.24,3.35-3.35,4.46-4.1.38-.37.38-1.48.75-1.86,0-.37.74-1.11,1.11-1.48a15.47,15.47,0,0,1,.38-1.86v-.38h0c-.75,0-1.12,1.49-1.12,1.86a7.36,7.36,0,0,0-1.12,1.49c-.37.37,0,1.12-.74,1.86-1.49,1.12-3.72,1.49-4.46,3.35a1.15,1.15,0,0,1-.37.74c-1.12,1.12-1.49,1.49-2.61,1.49h-.74S489,410,489,409.62s.37-.75,1.12-1.49v-.75a.36.36,0,0,1,.37-.37h1.86c1.12,0,1.49-1.49,1.49-1.86.37-1.11,2.6-2.6,3-3.72,0-.37-.37-1.11,0-1.49a9.37,9.37,0,0,1,1.49-2.6H498c-.75,0-1.86,1.86-1.86,2.23v1.86c0,.37-1.49,1.86-1.86,2.23a6.05,6.05,0,0,0-1.49,2.61c0,.37-.37.37-.74.37h-1.49c-.37,0-1.12,1.12-1.12,1.12v.74a1.93,1.93,0,0,0-.74,1.49h0a1,1,0,0,1-1.12-1.12c0-.74.38-.74.75-1.49h-.37c-.38-.37-.38-.37-.38-.74,0-.74,1.12-.74,1.49-.74s.75-.38,1.12-.38a5.11,5.11,0,0,0,1.11-1.48,1.35,1.35,0,0,1,.38-1.12c.74-1.12,1.86-1.12,1.86-2.23.37-.75,0-1.12,0-1.86a4.62,4.62,0,0,1,1.48-3h.75a6.28,6.28,0,0,0,2.6-3.72c0-.37,0-.74-.74-.74-.38,0,0,0-.38.37-.37,1.49-.74,2.61-1.85,2.61a1.35,1.35,0,0,1-1.12-.38c-1.12-.37-2.23-1.48-2.23-2.23,0-.37.37-.74.37-1.11l-.37-.38c-.75.75-.37.75-.75.75-3.34,0-5.2-5.21-5.2-7.07a8.81,8.81,0,0,1,.74-3l1.12.75a14.91,14.91,0,0,1,2.23.74,3.54,3.54,0,0,0-.75,2.61c0,1.48,0,2.6,1.49,2.6.75,0,.75,0,1.49-.74.37,0,.74-.75,1.12-.75.37-.37.37,0,.37-.37.37-.37-.37-.37-.37-.37-1.12,0-1.86,1.11-2.61,1.11-1.11,0-.74-1.11-.74-1.11l1.11-3.35c-1.11-.74-3-1.12-4.46-2.23a20.8,20.8,0,0,1,2.23-3c1.12,1.12,2.61,3,3.72,4.09a5.34,5.34,0,0,1,2.23-.74h1.49c.74,0,1.86.37,2.6.37.38,0,.75.75,1.12.75,0,0,.74-.38.74-.75a25.19,25.19,0,0,0,2.61-4.09c0-.74-.75-1.11-1.49-1.86-.37,0-.74-.37-1.12-.37a6,6,0,0,0-3.34-1.12,1.13,1.13,0,0,1-.38-.74,8.81,8.81,0,0,1-.74-3V368a9.86,9.86,0,0,1,1.12-4.47,16.55,16.55,0,0,1,3.72-5.2,11.71,11.71,0,0,1,6.32-3.35h2.23a3.82,3.82,0,0,0,1.12-.37c1.49.37,3,.74,4.09,1.11a12.62,12.62,0,0,1,4.46,2.23,19.46,19.46,0,0,1,4.09,5.21c.38,1.49.75,3,1.12,4.46Zm-28.27,6.33c.74,0,1.49.37,2.23.37l2.23,1.12s1.49.74,1.49,1.11a11.7,11.7,0,0,1-1.86,3.72,10.92,10.92,0,0,0-3.35-.74h-1.11a7.31,7.31,0,0,0-3,.37l-2.6-3.72C491.64,374.65,493.87,374.28,496.1,373.91Zm4.09,39c0-.37-1.12-.74-1.12-.74-.37-.37-.37-1.12-.74-1.49h.37c.37,0,.37.75,2.23,1.49a4.08,4.08,0,0,0,1.86.37,17.23,17.23,0,0,1,2.61,1.12v.37a6,6,0,0,1-4.47,1.49c-.37,0-.74.37-1.11.37-2.61,0-4.09-4.09-4.84-5.58h.38c.74,0,.74,2.23,3.34,3a1.29,1.29,0,0,0,.75.38A.81.81,0,0,0,500.19,413Zm-1.86,14.14v1.49c0,.74,0,1.85-1.49,1.85-1.11,0-3.34-1.85-4.46-1.85a3.82,3.82,0,0,0-1.12.37c-.37,0-1.48-.37-1.48-1.12s1.11-.74,1.11-.74c.37,0,.37.37.75.37H495c.75-.37.75-.74,1.12-1.12,0-1.11-.74-2.23-.74-3.34l.37-3c0-1.12-.75-1.49-.75-2.23,0-.37,1.12-2.23,1.86-2.23,0,0,.75.74,1.12.74a5.3,5.3,0,0,0,2.23.74h1.49c-.75,1.49-2.61,1.49-2.61,3a15.47,15.47,0,0,0,.75,2.23A18.55,18.55,0,0,1,498.33,427.1Zm-10-11.53c0,.74-3.72,1.11-3.72,1.11h-1.86c-.37,0-.37.75-.37.75,0,.37,1.11.37,1.11.37a15.41,15.41,0,0,0,4.09-.75c.38,0,.75-.37,1.12-.74,0,1.12-1.12,2.6-2.6,3.35,0,.37-.75.37-1.12.74v3c-.74.74-.74,1.49-1.49,1.86-.37,0-1.11,0-1.11.37s.74.37.74.37c.74,0,1.86-.74,1.86-1.49h.37a1.33,1.33,0,0,1,.37.75c0,.74-1.11.74-1.48,1.49h-.38c.38.37.38.37.75.37s3-.75,3-1.49a1.66,1.66,0,0,0-.37-1.12,1.29,1.29,0,0,1,.37-.74c.38,0,.38,0,1.12.74s1.12.38,1.86.38c.74.37,1.49,0,2.23-.75,0-.37,0-.37.37-.74l-.74-2.61c0-.37.37-1.86.37-2.23,0-.74-.74-1.49-.74-2.23s1.49-2.23,2.23-3c.37-.37.37-.74.74-.74a3.79,3.79,0,0,0,1.49,1.86c0,.37-.74.74-1.11,1.12s-.75,1.11-1.12,1.48a.37.37,0,0,1-.37.38c0,.37,1.11,1.86,1.11,3a16.28,16.28,0,0,0-.37,1.86l.37,3c0,.74-.37,1.11-.74,1.11h-3.35a8.14,8.14,0,0,1-1.49.38,1.34,1.34,0,0,0-1.11-.38c-.37,0-.37,0-.37.38a3.38,3.38,0,0,1-2.24,2.23,1.36,1.36,0,0,0-1.11.37l-5.21-.37v-.37a5.94,5.94,0,0,1,1.12-3.35,12.76,12.76,0,0,0,2.23-1.12v-3.35c0-.74-1.12-1.11-1.49-1.48-.74-.75-1.49-1.12-1.49-1.86-.37-.38-.37-.75-.74-1.49,0-.37.37-.75.37-1.12.37-.37,1.12-.37,1.49-.74.74,0,1.86-.37,2.6-.37s4.84.37,4.84,1.48Zm-15.62,0v-3a13,13,0,0,0-3-5.95h1.86a5.29,5.29,0,0,1,3,3.35,6.72,6.72,0,0,1,.74,3.72v3.72l-.37,2.23a1.7,1.7,0,0,1,0,1.86,9.65,9.65,0,0,0-3.35-1.86v-.37s.74-.75.74-1.12c.38-.74.38-1.86.75-2.6Zm6.69-13a.36.36,0,0,1-.37.37c-.37.37-.74.37-1.12.74-.37,0-.74.75-.74,1.12.37.37.37.37,0,.74a2.21,2.21,0,0,1-1.49.38c-.37,0-1.11-.38-1.49-.38-.37-.37-.74-.37-1.11-.74v-2.23c0-.75,0-1.12-.75-1.12h0c-1.11,0-.37.37-1.86.75-1.11-.75,0-1.86-1.11-2.24H469v1.49c0,.75,0,1.86,1.11,1.86.37,0,1.49-.74,1.86-.74h.37a10.33,10.33,0,0,0-.37,3.35c-1.49-.38-2.6-.75-3.72-1.12a5.32,5.32,0,0,0-1.11-.74.8.8,0,0,0-.75.74s.75.37.75.74h.37a5.52,5.52,0,0,1,1.49,1.12,10.55,10.55,0,0,1,3.34,6.32v1.86a10.92,10.92,0,0,1-.74,3.35c-1.12-.74-1.12-2.23-1.49-3L469,413c0-.74-.75-1.48-1.12-2.23a10.88,10.88,0,0,0-1.49-3s-1.49-1.86-1.86-1.86h-.37a26.09,26.09,0,0,1,4.84,8.92c.74,1.12.74,2.61,1.11,4.09a4.62,4.62,0,0,0-.74,1.86c0,.38,0,.38.37.38h0c.74,0,.74-1.12,1.49-1.12s1.11.74,1.49.74c.74.75,1.86,1.12,2.6,1.86,1.12.38,1.86.75,3,1.12h2.23c-.38.37-.75.74-.75,1.12a13.28,13.28,0,0,0-1.48,4.09v1.86s.74,1.86,1.11,1.86c.74,0,1.86-1.49,1.86-1.86V429.7h1.12a.37.37,0,0,0-.38.37v1.12a2.76,2.76,0,0,1-2.23,2.23c-.74,0-1.86-1.12-2.23-2.23a9.91,9.91,0,0,0-3-2.6c-1.12-1.12-2.61-1.49-3.72-2.24-1.49-.74-3.35-1.48-5.21-2.23a1.93,1.93,0,0,1-.75-1.49,2.79,2.79,0,0,1-.37-1.86,28,28,0,0,0-4.83-8.55c.37,1.11,1.11,2.23,1.48,3.35A40.13,40.13,0,0,1,463,420.4a13.13,13.13,0,0,0,2.24,5.21,9.91,9.91,0,0,1-3.35,1.86c-1.12,0-1.49-.37-2.23-1.86h-.37c-.38,0-.38.74-.38.74,0,.38.75,1.12.75,1.12.37.37.37.37.37.74a5.18,5.18,0,0,0,2.23.75c.74,0,1.12-.37,1.49-.37,1.11-.75,2.23-2.61,2.6-2.61s1.12.37,1.49.37c-1.12,3-4.09,4.47-7.07,4.84-1.48,0-3-1.12-3.34-3.35V426a5,5,0,0,1,1.11-3c-.37-1.12-1.11-2.24-1.49-3.72-.37-1.12-.37-2.24-.74-3.72v-5.21a5.3,5.3,0,0,1,.74-2.23c0-.75,1.49-1.49,1.86-1.86l.38-.37c.37-.38,5.57-2.24,5.57-3.35,0-.75-.74-.75-1.11-.75s-.37,0-.37-.37a2.8,2.8,0,0,0,.74-1.49c0-.37-.37-1.11-.37-1.48-.75-1.12-1.49-1.12-2.61-1.86a3.15,3.15,0,0,1-1.48-2.61,4.23,4.23,0,0,1,1.11-3,8,8,0,0,1,7.07-4.09c.37,0,2.6.37,2.6.74,0,.74-2.6,1.49-3,1.49h1.11a1.37,1.37,0,0,0,1.12-.37,3.85,3.85,0,0,0,1.86-2.24l.37-.37c.37,0,.75,1.12.75,1.49v1.12c0,.37-.75.74-.75.74,0,.37,1.86,2.23,1.86,2.6v.38a.36.36,0,0,0-.37.37c-.74.37-1.12.74-1.12,1.11,0,2.23,3.35,2.61,3.35,3.35s-1.11.74-1.11,1.12,0,.37.37.37a1.68,1.68,0,0,0,1.11-1.12,1.77,1.77,0,0,1,1.12,1.86c.37.75.37,1.12.74,1.49A5.41,5.41,0,0,0,479.36,402.55Zm-4.09-6.7A2.4,2.4,0,0,1,473,394a.37.37,0,0,0,.37.38c.37,0,.37-.38.74-.38S475.27,395.85,475.27,395.85Zm-20.83-51v.38l6.32,6.69-8.92-.37h-.38c-1.48,3-3,5.58-4.46,8.18-1.12-2.23-1.86-4.83-3-7.06h-.38l-7.81,1.11v-.37l3.72-7.81-4.83-6.7c0-.37,0-.37.37-.37l8.18,1.12h.37c.75-1.86,2.23-5.95,2.23-5.95v-.38a5.14,5.14,0,0,0,.75-2.23H447c1.12,2.61,2.6,5.21,3.72,7.44a1.33,1.33,0,0,0,.37.75l8.19-1.12Zm-19.71,31.25a6.18,6.18,0,0,0,2.23,2.23v1.12c0,.37-1.86,1.86-1.86,1.86a39.51,39.51,0,0,1-.75.74l-1.11-.74h-.75c-1.48,0-1.48-1.86-1.48-2.61-.38.37-.38,1.12-.75,1.86-.74,1.12-.74.75-.74,1.49s0,1.12.74,1.49c-1.11.74-1.86,1.49-3,1.49a10.94,10.94,0,0,1-3.35-.75c.37-.74.74-.74.74-1.49,0-.37-.37-1.11-.74-1.11l-.37.37c-.37,0-3-1.12-3-1.86a13,13,0,0,0,1.49-3.35c0-1.11-.74-3-.74-4.09-.38-.37,0-1.11,0-1.49.37,0,.74-.37,1.11-.37a12.28,12.28,0,0,1,6.32-1.49s2.24.38,3,.38a11.37,11.37,0,0,1,2.6,5.2C434.35,375.4,434.73,375.77,434.73,376.14Zm-.38-14.51a10,10,0,0,0-2.6,5.21V368h-.37s-2.23-.38-3-.38a13.43,13.43,0,0,0-7.44,2.24c-.74-2.61-3.72-4.47-4.83-6,.37,0,.74-.37,1.11-.37,1.12,0,2.61,1.86,3.35,1.86s1.12-.37,1.49-.37v.37c0,.37-.74,1.12-.74,1.12a1.36,1.36,0,0,0,1.48,1.49h.38a1.6,1.6,0,0,0,1.48-1.49v-.37c0-1.12-.37-1.86-1.86-3,0-.74.75-.74,1.12-1.12a10.86,10.86,0,0,1,.74-3.34v-.37a.37.37,0,0,1,.38-.38c.37,0,1.48,1.86,1.48,1.86a1.35,1.35,0,0,0,.38,1.12c.37.74,1.11.37,1.85.74,0,.37-.74.75-.74,1.12a2.74,2.74,0,0,0-.74,2.23c-.37.74.37,1.49,1.48,1.49s1.49-2.61,1.49-3,.37-.74.37-1.11a6,6,0,0,1,3.35-1.12h.37Zm5.21,111.59c-.74.37-.74,1.12-1.49,1.49-1.11.74-2.23,1.86-3.34,2.6-.38.37-.38.75-.75,1.12-.74.37-1.11,1.11-1.86,1.49a11,11,0,0,1-3.72.74,3.73,3.73,0,0,1-1.11-.37c0-.37,0-.75.37-.75h.74a1.33,1.33,0,0,0,.75-.37c.37-.37.74-1.11,1.11-1.49s.37,0,.75,0c.37-.37.74-.37.74-.74a8.71,8.71,0,0,0,2.23-3.35c.37-.74,1.12-1.49,1.49-2.23s.74-1.86,1.12-2.6c1.48-.38,2.23.74,3.34.74.75,0,.75-.37,1.49-.37a17.81,17.81,0,0,1,1.49,3.72,1.36,1.36,0,0,1-.37,1.11,2.85,2.85,0,0,0-1.86-.74Zm13.76-7.44c.75.37,1.12,1.12,1.86,1.86a8.55,8.55,0,0,0,1.12,1.86,42.66,42.66,0,0,0,1.86,4.09c.37,1.12,1.49,1.86,1.86,3-1.12,0-2.6-.37-3.72-.37h-1.86a17.47,17.47,0,0,0-6.32.74,38.43,38.43,0,0,1-5.21,1.49c-1.49,0-2.23-.75-2.23-1.86a1.38,1.38,0,0,1,.37-1.12c1.12,1.49,1.12,2.23,2.6,2.23,1.12,0,1.49-1.48,1.49-2.23v-1.11c-.37-.75-.37-1.49-.74-2.24,0-.37-.37-.74-.37-1.11s-.75-.75-.75-.75a41.9,41.9,0,0,0-2.23-4.09h5.21c.74,0,4.09-.74,4.09-.74C451.46,465.41,452.58,465.78,453.32,465.78Zm4.1-87v.37c-.38,0-.75,1.12-1.12,1.12a11,11,0,0,0-5.95,5.58c-.37.74-1.86,1.49-2.61,2.6-.37,1.12-.74,2.61-1.11,3.72l.37,7.44a21.92,21.92,0,0,1-.74,4.84c-.75,3.72-4.47,7.07-7.07,7.07A2.51,2.51,0,0,1,437,410c.74,0,1.49-.37,2.23-.37.37-.38,1.12-.75,1.49-1.12a8.71,8.71,0,0,0,2.6-2.6c0-.38.37-.38.37-.75a13,13,0,0,0,1.49-4.09,14,14,0,0,0,.37-4.09V384.32a21.46,21.46,0,0,1,1.49-5.21l1.12-1.11a29.6,29.6,0,0,1,4.83-2.6c.37,1.11.37,4.09,2.23,4.09a1,1,0,0,0,1.12-1.12,3.73,3.73,0,0,0-.37-1.11c0-.38.37-.38.37-.75a2.85,2.85,0,0,1,.37,1.49Zm0-10.78-.38-2.24c0-.74,0-1.11.38-1.48.37,0,.37,1.11.37,1.48.37.38.37.75.37,1.49a3.41,3.41,0,0,1,1.12,2.61v1.11c-.38.75,0,1.86-.38,2.61a17.73,17.73,0,0,1-3.72,3.72,3.17,3.17,0,0,1-.74-2.61l.37-2.6a2.81,2.81,0,0,0-1.49-2.61.37.37,0,0,1,.38-.37c1.48,0,1.11.75,2.6,1.86v-.37a8.56,8.56,0,0,1-.37-1.49c0-.37,0-.37.37-.74h1.12Zm-40.18,43.52c0,1.11-.37,1.85-.37,2.6a11,11,0,0,1-1.49,3.72v-.37c0-.38-1.48-1.12-1.48-2.24a6.34,6.34,0,0,0,.37-2.6,3.73,3.73,0,0,1,1.11-.37,3,3,0,0,0,1.49-2.23c0-.75-.37-2.23-1.49-2.23V407a3.14,3.14,0,0,1,1.49-2.6A45.22,45.22,0,0,1,417.24,411.48Zm.38-9.3c-.75.74-1.49,1.11-1.86,1.86a1.9,1.9,0,0,0-.75,1.48,2.88,2.88,0,0,0-.74,1.86v1.12c1.11.37,1.49.74,1.49,1.49v.37c0,.37-.38.74-.75,1.12h-.37c-.37,0-.74.37-1.12.37-.37.37-.37.37-.37.74v2.23a1.78,1.78,0,0,0,.75,2.23,11.77,11.77,0,0,1-3,.38c-.37,0-1.86,0-2.23-.75a7.62,7.62,0,0,0,2.23-1.49c0-.37.37-.74.37-1.11,0-.75.37-1.49.37-2.6,0-.38-.74-.38-.74-.75-.37-.37-.74-.74-.37-1.11V408.5a3.35,3.35,0,0,1,1.86-.37h.74a14,14,0,0,0,.37-4.09v-1.12c-.37,0,0,0,0,.37a8.18,8.18,0,0,0-1.11-1.86c.37-.37,1.11-.74,1.49-1.11a5.32,5.32,0,0,0,1.11-1.49,18.31,18.31,0,0,0,1.12-2.61h.37v2.61c0,1.49.74,2.23,1.49,3.35Zm.37-7.44h0l-.37.74c.37-.37.37-.37.37-.74v0a.36.36,0,0,1-.37.37.8.8,0,0,1-.75-.74c0-.38,0-.38.37-.75a.36.36,0,0,0-.37-.37h.75c.37,0,.74.37,1.11.74v.75a1.29,1.29,0,0,1-.74.37Zm-3.72-5.21a10,10,0,0,1,4.46-1.12,3.94,3.94,0,0,1,1.86-.74l.75.74a6.19,6.19,0,0,0,2.6.38c2.23,0,4.83-1.49,6.69-1.49H431v.37a.81.81,0,0,1-.75.74,4.09,4.09,0,0,1-3.72,2.24,4.64,4.64,0,0,1-2.23-.38s-.37-.74-.74-.74-.75.74-.75,1.12,1.12.74,1.12.74c.37,0,.74.37,1.12.37h1.48c1.86,0,6.33-1.86,6.33-4.46,0-.75-.38-1.49-1.12-1.49h-.37c-1.12,0-5.58,1.86-6.7,1.86H423.2c-.75,0-2.61-1.12-2.61-1.49s.37-1.11.75-1.11a24.2,24.2,0,0,0,2.6,1.11c.74.37,1.49.37,2.23.75a7.8,7.8,0,0,0,2.23-.75h.37a3.4,3.4,0,0,1,2.61-1.11h.74c.37,0,1.12,1.48,1.86,2.23h3.72c.37,0,1.12-.75,1.49-.75l.37.75v.37c0,1.12-1.49,2.23-1.86,3h.37c.38,0,1.86-1.12,1.86-1.49.38-.37.38-1.12.75-1.86l-.75-1.49c0-.37,0-.74.38-.74a3.14,3.14,0,0,1,1.48-2.61,7,7,0,0,1,2.61-2.23h1.11a21.44,21.44,0,0,0-.74,3.72,14,14,0,0,0,.37,3l-.37,9.29a21.92,21.92,0,0,1-.74,4.84,8.84,8.84,0,0,1-.75,3,1.15,1.15,0,0,1-.37.74,8.67,8.67,0,0,1-4.46,3.72,11.25,11.25,0,0,0,3-6.32h.37v-.38h-.37c-1.11,0-1.49,3-1.49,3a6.87,6.87,0,0,1-2.6,3s-.74,0-.74.37h-.38a8.25,8.25,0,0,1-.37-3v-4.09h0c-.37,0-.74,1.49-.74,2.23a4.11,4.11,0,0,0,0,3,23.06,23.06,0,0,0,3,8.92,43.34,43.34,0,0,1,1.49,7.44c0,.38.37.75.37,1.12v1.49a1.34,1.34,0,0,1,.38,1.11l1.11,14.88.75,8.18V455a9.18,9.18,0,0,1,.37,2.61v3l-.37,4.84h-1.86a1.37,1.37,0,0,0-1.12.37c-.37.37-.74.74-.74,1.12s.37.74.37,1.48a4.75,4.75,0,0,0-2.23-.37c-1.12,0-1.86,1.12-2.24,2.61a3.79,3.79,0,0,1-1.86,2.23c-.74,0-1.11-1.12-2.23-1.12s-2.23,1.49-2.6,1.49l-.37-.37,1.11-6.7a28,28,0,0,0,.37-4.46v-7.81c0-.75-.37-3.35-.37-4.09v-1.12a57.8,57.8,0,0,0-1.48-11.53l-.38-.37c0,.37-.37.37-.37.74,0,1.86,1.12,4.84,1.12,5.95V445l.37,3.72v11.16l-.37,6.32c0,.75-.37,1.12-.37,1.86-.38,1.12-.75,2.61-1.12,4.09-.37,0-.74.38-1.12.38a3.4,3.4,0,0,1-2.23,1.48c-.37,0-1.11-.37-1.49-.37v-.74a.37.37,0,0,0,.38-.37,12.75,12.75,0,0,0,.37-3.72l.74-8.19V448.3l-1.86-19v-3l-.37-.37h-.37a18.21,18.21,0,0,0-.37,4.46c.74,6,.37,3.72,1.11,12.28L421,445l.38,5.21v7.07l-.75,7.06v2.61a20.09,20.09,0,0,0-.37,4.09c0,.37-.37.37-.74.74A5.51,5.51,0,0,0,418,471a2.25,2.25,0,0,1-1.49-.37c-.37,1.48-.74,1.48-.74,2.6,0,.37.37,3,.37,3,0,.37,0,1.86-.75,1.86h-2.6c-.74,0-1.12,0-1.49.37a2.87,2.87,0,0,0-1.49.74c-1.11.75-2.6,3-3,3h-4.46c-.38-.37-1.12-.37-1.49-.75a1.29,1.29,0,0,0,.37-.74c2.23-.74,4.46-.74,6.32-3.35a25.76,25.76,0,0,1,4.09-4.83v-2.24a1.29,1.29,0,0,0-.74-.37h-.74c-.38,0-1.12,0-1.12-.74,0,0,.37-3,.74-4.47v-6l-.37-14.5v-4.09c0-.38.37-.75.37-1.12.38-1.12.75-1.86,1.12-3,.37-.74.37-1.48.74-2.23a30.18,30.18,0,0,0,1.49-4.46,16.69,16.69,0,0,0,.75-3c.37-1.48,1.11-3.34,1.48-5.2a1.37,1.37,0,0,1,1.12-.38,5.3,5.3,0,0,0,1.12-1.48c0-.75-1.12-1.12-1.12-1.49s.37-.75.37-1.12a8.2,8.2,0,0,0,.37-3,15.47,15.47,0,0,1,.38-1.86V407a10.13,10.13,0,0,0-.38-3.35c.38,0,.75-.37,1.49-.74v-.37c0-.37-1.11-.37-1.86-3.35v-1.49a1.36,1.36,0,0,1,.37-1.11c.75,0,1.49-1.12,1.49-2.23a2.4,2.4,0,0,0-2.23-2.24c-.74,0-2.6.38-2.6,1.49.37.75.37,1.49.74,2.23,0,.37-.37.75-.37,1.12-1.12,3.72-3.72,3.72-3.72,4.46,0,.37,1.49,1.49,1.49,2.23v1.12a7.1,7.1,0,0,1-.38,2.6,2.46,2.46,0,0,0-2.6,2.24h-.37c.37.74.37,1.48.74,1.86,0,.37.75.74.75.74,0,.74-.38,1.49-.38,2.23-.37.37-.74,1.12-1.48,1.49,0,0-1.12.37-1.12,1.11,0,.38.37.38.75.75a5.36,5.36,0,0,0,2.6.74h2.23a.81.81,0,0,1-.74.75h0a1.36,1.36,0,0,0,1.11.37,8.56,8.56,0,0,0,1.49-.37h1.86v.37l-3.35,1.11c-.37.38-1.11,1.12-1.49,1.12a1.36,1.36,0,0,1-1.11-.37H408c-.38-.37-.38-1.12-.75-1.49a5.3,5.3,0,0,0-.74-2.23c0-.75-1.12-.37-1.49-.75a11,11,0,0,0,.74-3.72l-.37-4.83a3.51,3.51,0,0,1,.75-2.6v-.38a15.76,15.76,0,0,1,1.48-3.72c.75-1.86,1.86-4.09,3-6.32v-.37c.37-.37.74-1.12,1.11-1.49a5.46,5.46,0,0,1,2.24-3.35A1.29,1.29,0,0,1,414.27,389.53Zm-14.14,19.34c0,1.86-4.46,2.61-5.2,2.61h-5.21l.74,5.2v1.49a15.9,15.9,0,0,1,.38,1.86v1.12L392,434.91l.37,7.44c0,.37,0,.37.37.74V461a10.86,10.86,0,0,1-.74,3.34,1.33,1.33,0,0,1-.37.75c-.74,2.23-3.72,4.09-5.21,5.2-.37,0-.37,0-.74.38-.75,0-1.49.37-2.23.37H383a1.7,1.7,0,0,1,0-1.86c.38,0,.75-.37,1.12-.37,2.6,0,7.44-5.21,7.44-8.19a7.14,7.14,0,0,0-1.49-4.46c-1.86-2.23-3-3.72-3-5.21,0-1.86.37-1.86,2.23-3a4.6,4.6,0,0,0,1.86-3.72v-.75c-.37-2.23-3.35-3-4.84-3.34a5.51,5.51,0,0,1-.74-1.49c0-.37.74-1.49.74-2.23.75-2.24.75-1.86.75-3.72,0,0,.37-1.86.37-2.24v-6.32l-.37-6.32L386,411.1a2.05,2.05,0,0,1,1.12-1.86c.74-.74,1.86-.37,2.23-.74,1.49-.37,3.72-1.86,4.09-3.35v-4.83a8,8,0,0,0-1.12-1.86.37.37,0,0,0,.37-.38c0-.37-.37,0-.37-.37s.37,0,.37-.37h-.37c0-.37.37,0,.37,0h-.37V391H392v6a5.32,5.32,0,0,1-1.11,1.49l-.38.37h-.74v-10c0-.38.37-2.61,1.49-2.61l.37.37c.37,0,.74.38,1.11.38h1.12c.37,0,2.6-.38,2.6-1.12,0-.37-.37-.37-.74-.37a8.56,8.56,0,0,1-1.49.37s-2.23-.37-2.23-.74a6.07,6.07,0,0,0,1.12-3.35V381h0a2.84,2.84,0,0,1-.75,1.86c0,.75-.37,1.12-1.11,1.49,0,.37,0,.37-.37.37v-.37a3.94,3.94,0,0,0,1.48-2.23v-1.86c-.74,0-1.48-1.49-1.48-2.23a3.17,3.17,0,0,1,2.23-2.6h.37c.37,0,1.11.37,1.49.37h-1.12a2.76,2.76,0,0,0-2.23,2.23c0,.74,1.49,1.11,1.86,1.11.74,0,1.11,0,1.11-.37,0-.74-.74-.74-.74-1.11a1.18,1.18,0,0,1,1.12-1.12c.74,0,1.11.75,1.11,1.49h0c0,1.49-1.11,1.11-1.11,1.86a1.29,1.29,0,0,0,.37.74,3.82,3.82,0,0,1-.37,1.12,7.6,7.6,0,0,0,1.86,3.35c0,.37.74.74,1.11.74.37.74.37,1.12.75,1.49v10.78h-.38a1.65,1.65,0,0,1-1.48-1.11c-.38-4.46,0-4.46,0-4.84v-1.86a1.29,1.29,0,0,1,.37-.74.8.8,0,0,0-.75-.74h0c-.37,0-.74,0-.74.37v.37c.37,0,.37.37.37.74v7.81a5.36,5.36,0,0,1-.74,1.49v5.21a2.25,2.25,0,0,0,.37,1.49,1.33,1.33,0,0,0-.37-.75v.38c0,1.11,1.11,3,2.23,3a.36.36,0,0,0-.37.37c0,.38.37.38.74.38,0,0,1.12,0,1.12-.75,0,0,0-.74-.37-.74s-.38-.37-.75-.37c-.74,0-1.49-.75-1.86-1.12.37.37,1.12,1.12,1.86,1.12l.75.37C399,408.13,400.13,408.13,400.13,408.87ZM360,438.26c-1.11,0-1.11-1.12-1.11-1.49a3.82,3.82,0,0,1,.37-1.12c.37,0,.37-1.11.74-1.49V432.3a9.86,9.86,0,0,1,1.12,4.47C361.08,437.51,361.08,438.26,360,438.26Zm-3,24.17c-.75,0-.75-.74-.75-1.11a4.56,4.56,0,0,1,1.12-3.35c.37,0,.74,1.86.74,2.6C358.1,461.69,358.1,462.43,357,462.43Zm3.72-6.69a1.19,1.19,0,0,1-1.12-1.12v-1.11a7,7,0,0,1,.74-2.61c0-.37.38-.74.75-1.11.37,1.11.37,2.23.74,3.34v1.12a2.89,2.89,0,0,1-1.49,1.49Zm33.84-89.27a.8.8,0,0,1-.74.74,11.69,11.69,0,0,0-4.09,3.35c0,.37-.37,1.49-1.12,1.49a1.33,1.33,0,0,0-.37-.75,9.58,9.58,0,0,0-7.07-2.23,11.56,11.56,0,0,0-4.83,2.23,8,8,0,0,0-1.86,3v1.49a.36.36,0,0,0-.37.37v1.12c0,1.48-6,2.6-6,4.46,0,.74,2.6,1.11,3.34,1.49v.37a7.37,7.37,0,0,1,3,4.46l.37.37c1.49,3,3,6.33,4.84,9.3.37.37.74,1.12,1.48,1.86a29.65,29.65,0,0,0,3,4.09,2.8,2.8,0,0,1-.74,1.49,3.41,3.41,0,0,1-1.12,2.61c-.37,0-1.12.37-1.49.37-1.11,0-2.23.37-3.35.37h-3.71c-1.49,0-3.35,0-4.47-1.49-.37,0,0-.74,0-1.11a7,7,0,0,1-.74-2.61c-.37-1.11-.75-1.86-1.12-3-.37-.38-.74-.75-.74-1.12s.37-.74.74-1.12a11.35,11.35,0,0,1,1.86-2.6.36.36,0,0,1,.37-.37c.38,0,.38,0,.38.37h.37c.37,0,.37-.74.37-.74a.36.36,0,0,0-.37-.37c-1.49,0-3.72,3-4.09,3.34l-6.7,6.7a1.29,1.29,0,0,0-.37.74v.37a27.36,27.36,0,0,0,1.49,6,16,16,0,0,0,.37,1.85c0,1.12.37,2.24.37,3.35a4.55,4.55,0,0,0,.74,1.86c0,.37-.37.75-1.11.75-.37.37-.37.74-.75,1.11a2.85,2.85,0,0,1,1.49-.37,6.39,6.39,0,0,1,2.61.37,1.36,1.36,0,0,1,1.11.37,2,2,0,0,1,1.86.75v.37h-1.11a8.56,8.56,0,0,0-1.49-.37s-.75.37-.75.74,3.35,3.72,3.72,4.09c-.37.38-.37.38-.74.38a3.29,3.29,0,0,1-1.86-.38,15.33,15.33,0,0,1-2.6-2.23,3.84,3.84,0,0,0-1.86-1.49,6.28,6.28,0,0,1-1.49-1.86,21.76,21.76,0,0,1-3-8.18v-.37c-.37-.37,0-.74,0-1.12-.37-1.48-1.48-4.46-1.48-4.46v-4.09h0c0-1.12,1.48-2.23,2.6-3a28.11,28.11,0,0,1,5.58-5.95,26.56,26.56,0,0,1,5.21-3.72,13.61,13.61,0,0,1,3.34-1.49h2.24a2,2,0,0,0-1.49-.74h-1.12a6.25,6.25,0,0,0-3.72,1.12l-1.11,1.11c-4.1,2.23-7.44,7.07-11.53,10.79a1.28,1.28,0,0,0-.38.74,24.09,24.09,0,0,0-.74,2.61v1.11c.37,1.86.74,3,1.12,4.47.37,2.23.37,4.09.74,5.95.37,1.11.74,2.23,1.12,3.34a7,7,0,0,1,.74,2.61,18.79,18.79,0,0,0,2.23,4.83v1.12c0,1.49-1.12,1.86-2.6,3.35a1.38,1.38,0,0,0-1.12.37l-2.23,1.11a7.87,7.87,0,0,0-1.49,4.1,14.19,14.19,0,0,0,.75,2.23,4.59,4.59,0,0,0,1.48,3c.38.38.38.38.75.38a2.8,2.8,0,0,0,1.49.74c1.48.37,3,.37,4.46.74a2.88,2.88,0,0,1,.74,1.86c0,1.49-3,5.58-3.72,6.33-.74,1.11-2.6,2.6-3.34,3.72a8.38,8.38,0,0,0-1.12,4.09,6.25,6.25,0,0,0,1.12,3.72c.37.37.37.74.74,1.11a6.57,6.57,0,0,0,3.35,3c1.11.37,2.6.37,3.72.74h1.86v1.49h-.75c-2.23,0-8.55-1.49-8.92-4.09,0-.37-.75-.75-.75-1.12a9.9,9.9,0,0,1-1.11-4.46V457.6a13.38,13.38,0,0,1,.74-4.09,1.37,1.37,0,0,1,.37-1.12s.37-3.72.37-4.46v-3c0-.37.38-.37.75-.37,1.49,0,2.6.74,2.6,2.23a19.4,19.4,0,0,1-1.86,5.58,8.19,8.19,0,0,0,3-5.21v-1.11c0-1.49-2.23-2.23-3.35-2.23a10.92,10.92,0,0,0-3.35.74h-.74c0,.37-.37.37-.75.37h-.74c-.37-.74-.74-1.49-1.12-2.23a45,45,0,0,1,1.49-6.7,18.67,18.67,0,0,0,.75-4.46,11.43,11.43,0,0,0,0-3.72,20.3,20.3,0,0,0,0-6.69l-.38-16.37c0-1.12.38-1.86.38-2.6a3.91,3.91,0,0,1,2.23-2.61c1.11-.37,1.86-1.11,3-1.49a7.37,7.37,0,0,0,1.49-3,20,20,0,0,1,1.86-4.09,19.57,19.57,0,0,1,3-2.23,24.77,24.77,0,0,1,4.09-2.61,1.29,1.29,0,0,0-.37-.74v-.75c0-1.11.37-1.86,1.11-1.86a1.92,1.92,0,0,1-.74-1.48c0-1.12,1.49-2.24,3-3,.38-.37,3.35-1.11,3.35-2.23v-1.86a9.55,9.55,0,0,1,4.46-5.58h.38v-1.49a11,11,0,0,0-.75-3.35,25.72,25.72,0,0,1-1.11-3h.74c1.12,0,2.23,1.86,2.6,2.6s1.12.75,1.12,1.12c0,.74-.74,1.11-.74,1.86s0,1.11.74,1.49c.37,0,.74.37,1.12.37a3.1,3.1,0,0,0,1.86-1.86,12.41,12.41,0,0,1-1.12-2.23c.74-1.12,1.86-2.24,2.6-3.35.38-.37.38-.37.75-.37h0c.37.37.37,1.11.74,1.48,0,.75,1.12,2.61,1.12,3,0,0-2.23,1.12-2.23,2.6,0,.75.37,1.86,1.48,1.86a2.83,2.83,0,0,0,1.86-.74c.38-.74,0-1.49.38-1.86h1.86a11,11,0,0,0,3.71-.74Zm-30.5,97.08v1.86h-1.11c-.75-.37-1.12-.75-1.12-1.12.37-1.48.75-3.34,1.12-4.83C363.31,461,363.68,462.43,364.05,463.55Zm-.74-19.71a13,13,0,0,1,1.12-2.61c.37-.74.37-.74.37-1.11.37.37.37,1.11.74,1.48v2.24c0,.74,0,1.48-1.11,1.48h-.38l-.74-.74ZM371.87,423c1.86-.75,1.11-.75,2.23-.75a5.28,5.28,0,0,1,2.6.75,4.06,4.06,0,0,0,1.86.37,1.37,1.37,0,0,0,1.12.37c.74.37,1.11.37,1.48,0,.38,0,2.61-.37,2.61-.37.37,0,1.49,0,1.49.74-.38.37-.75,1.12-1.12,1.12-1.86,1.11-3.72,2.23-5.21,3-.74.38-1.49.38-2.23.75a2.83,2.83,0,0,1-1.49.37H374.1a18.81,18.81,0,0,1-8.19-5.95.36.36,0,0,0-.37-.37h.75a9.63,9.63,0,0,1,1.86.74c1.48-.37,2.6-.37,3.72-1.12Zm-8.56-16.74c-.74,0-.74-1.12-.74-1.12a5.39,5.39,0,0,1,.74-2.6c.74.74.74,1.49,1.12,2.23C364.43,405.15,364.05,406.27,363.31,406.27Zm1.86,4.46a9.56,9.56,0,0,1,.74,2.6,1.59,1.59,0,0,1-1.48,1.49c-.75,0-.75-1.11-.75-1.11C363.68,412.59,364.8,411.85,365.17,410.73Zm8.18.75c0,.74,1.12.74,1.49.74h4.84c.74.37,1.48.37,2.23.74.37.75,1.11,1.12,1.11,1.86a65.68,65.68,0,0,1,1.86,7.07v.74h-.74l-3.72.38c-2.23,0-3.72-1.86-5.95-1.86s-3.72,1.48-5.21,1.48h-.74c-.37-2.23-3-2.6-4.09-3a12.18,12.18,0,0,1,2.6-6c.37-.38.37-.75.74-1.12a3.1,3.1,0,0,0,1.12-1.86c0-1.11-1.49-1.11-1.49-2.23a5.18,5.18,0,0,1,1.12-1.49c-.37,2.23,5.58,2.61,7.06,2.61a41.15,41.15,0,0,0,6.7-.75h.37V410a3.22,3.22,0,0,1-2.23,1.11H374.1a.73.73,0,0,0-.75.75Zm14.14-3.72c-.37.37-1.12.74-1.49,1.48-.74.38-.74,1.12-1.12,1.86-1.11,0-.74-1.86-.74-2.23a4.35,4.35,0,0,1,.74-3.72A8.78,8.78,0,0,1,387.49,407.76Zm2.6-.38a1.28,1.28,0,0,0-.74.38,5.22,5.22,0,0,1-1.49-1.12,42.1,42.1,0,0,1-8.18-10c-.75-1.49-1.86-3-2.61-4.47a21.44,21.44,0,0,1,2.61,3c1.48,1.49,2.6,3.72,4.09,5.21,1.49,1.86,3,3.34,4.46,5.2a7.9,7.9,0,0,0,1.86,1.49ZM387.49,391c0,.37.37.37.37.74v4.46l.37,2.24v.74l.37,3.35v.74c.38.75.38,1.49.75,1.86-.75-.37-3.35-2.6-3.35-3.72,0-1.86.74-1.11.74-4.09a12,12,0,0,0-1.11-5.21h0v.75a8.2,8.2,0,0,1,.37,3,10.25,10.25,0,0,1-1.12,4.84.8.8,0,0,1-.74-.75c-1.49-1.86-3-3.72-4.09-5.2l-1.49-1.49a59.67,59.67,0,0,1-3.72-6.7,16.23,16.23,0,0,0,7.07,2.61,2.31,2.31,0,0,0,2.23-1.49C385.63,388.41,387.49,389.53,387.49,391Zm-11.91-5.95c1.12.74,2.61,1.11,3.72,1.86h1.49c.75,0,2.23-1.12,2.61-1.12s.74,1.49.74,1.49c0,.37-.74.37-1.12.74h-3a13.45,13.45,0,0,1-4.09-1.86,4.62,4.62,0,0,1-3-2.23c-.37,0-.37-.37-.74-.37h1.11l.75.74C374.47,384.69,375.21,384.69,375.58,385.07Zm2.61-5.58V375.4a7.66,7.66,0,0,1,1.49-2.24,4.75,4.75,0,0,1,4.09-1.86,3.31,3.31,0,0,1,1.86.38c.74,0,1.11.37,1.86.74v.74a7.53,7.53,0,0,1-.75,2.24v.37H386l-.74-.37c-.38,0-1.12,0-1.12.37,0,.74.37.37.74.74,0,.37.38.75,1.12.75v1.85a1.18,1.18,0,0,0-.37.75c-.37.74-1.12,1.11-1.49,1.49a1.92,1.92,0,0,1-.74,1.48c-.38.38-.75.75-1.12.75a.36.36,0,0,1-.37-.37,3.55,3.55,0,0,1-3-3h-.37V381c.37.38.37,1.12.74,1.49a3.73,3.73,0,0,0,1.86,1.49h1.49v.37a1.38,1.38,0,0,0-.37,1.12c-.74,0-1.12.37-1.86.37a13,13,0,0,1-4.09-1.49c-.37-.37-.75-.74-.75-1.11,0-.75.38-.38,1.12-.75a4.73,4.73,0,0,0,1.49-3.35ZM386,458.71c.37.75,1.49,2.24,1.49,3v.74c0,.38-1.12.75-1.49.75a.8.8,0,0,1-.74-.75v-1.11A5.43,5.43,0,0,1,386,458.71ZM362.94,478.8c0-.74.37-.74.74-1.86.37-2.23,1.12-4.46,1.12-7.07a5.53,5.53,0,0,0,.37-2.6V465c0-.38-.37-.38-.37-.75,0-1.11-.37-2.6-.37-4.09v-1.49a8.82,8.82,0,0,1,1.86-5.2,20.66,20.66,0,0,0,1.86-4.1,2.77,2.77,0,0,0,.37-1.85v-.75c0-.74-.37-1.86-.37-3-.75-3.35-1.49-10.79-1.49-11.16v-1.12c0-.37-.37-1.86-.37-2.6-.38-1.12,0-1.12,0-1.49h1.86l.37-.37c.37,0,2.6,2.23,4.46,3,.37.37.75.37,1.49.37a16,16,0,0,0,5.95-1.85c.37,0,.37.37.74.74.75,2.6,1.86,5.21,3,8.18a4.71,4.71,0,0,0,.37,2.23c.37,1.86,1.12,3.72,1.49,5.21,0,.37.37,1.12.37,1.49a11,11,0,0,1-1.49,3.72,18.73,18.73,0,0,0-.74,4.46l-1.86,11.53a18.15,18.15,0,0,0,0,6.33,3.73,3.73,0,0,0,.37,1.11v1.49c0,1.86,4.09,4.46,4.84,5.21h.37a13.67,13.67,0,0,0,3.35,1.49l2.23,1.11c-.37.37-1.49,0-1.86.37l-7.81-1.11c-.75.37-1.86.37-2.61.74a6.91,6.91,0,0,1-2.6.74,1.15,1.15,0,0,1-.74-.37c-.75,0-1.12-1.48-1.12-2.23a7.53,7.53,0,0,0,.37-1.86,19.33,19.33,0,0,0,.75-4.09v-3a36.67,36.67,0,0,0-.75-4.46,5.36,5.36,0,0,0-.74-2.6c-.37-.75,0-1.49-.37-1.86a4.64,4.64,0,0,1-.38-2.23,20.13,20.13,0,0,1,2.24-9.3,4.08,4.08,0,0,0,.37-1.86,3.84,3.84,0,0,1,.37-1.49v-1.12a6.92,6.92,0,0,0-1.49-3.34,32.27,32.27,0,0,0-4.83-5.21,12.59,12.59,0,0,1-3.35-5.21v-1.49s-.37-1.11-.74-1.11a.37.37,0,0,0-.38.37c0,.37.38.37.38.74,0,.75.37,1.49.37,2.61a34.06,34.06,0,0,0,6.32,8.55c.37,1.12.74,1.86,1.12,3,0,.74-.38,1.49-.38,2.23-.74,1.86-1.85,3.72-2.23,5.21a43.82,43.82,0,0,0-1.86,4.83c-.74,2.23-1.48,4.84-2.23,7.07v3.35c-.37,1.86-.74,5.2-.74,5.2v1.12l1.86,1.86c.74.74,1.49,2.23,2.6,2.6a25.25,25.25,0,0,1,2.6.75v1.49h-1.11a11.06,11.06,0,0,1-3.72-.75c-1.12,0-2.23-.74-3-.74h-2.6c-.37,0-1.86-.37-1.86-.75C362.94,479.17,362.94,479.17,362.94,478.8Zm12.27-11.53c-.74,0-1.11-.37-1.11-.75a5.34,5.34,0,0,1,.74-2.23c.37,1.12,1.12,2.61,1.12,3Zm1.12,1.49V471l-6.7-.75v-1.48s0-.75.38-.75a1.62,1.62,0,0,1,1.11.37h1.49c.37,0,.74.38,1.12.38h1.48a1.36,1.36,0,0,0,1.12-.38Zm-4.46,20.08H416.5v29A102.28,102.28,0,0,1,371.87,488.84Zm76.25,70.3c7.44,0,26.41-13.39,26.41-28.27v-4.09a109.35,109.35,0,0,0,27.89-200.85v18.22a2.8,2.8,0,0,1,1.49,2.6,2.61,2.61,0,1,1-5.21,0,2.26,2.26,0,0,1,1.12-2.6V321.46c-4.46-4.83-8.93-9.3-13.39-13.76h-.37L471.92,323v14.88a21.52,21.52,0,0,1,1.49-2.61c.37-.74,2.23-3,2.23-3.34a2.24,2.24,0,0,0-.37-1.49,1.6,1.6,0,0,1-1.49,1.49c-.74,0-.74-.75-.74-1.12.37-1.12.37-2.23,1.11-3-1.11-.74-1.86-1.48-1.86-2.6a1.37,1.37,0,0,1,1.49-1.49c.75,0,1.49.38,1.49,1.12v.74a2.83,2.83,0,0,1,1.49-.74c.74,0,1.49.37,1.49,1.12h0c-.38,1.11-.75,2.23-1.86,2.6v1.11c0,.38.37,1.12.37,1.49,1.49-1.86,3.72-3.35,3.72-5.2a1.35,1.35,0,0,0-.38-1.12c-.37,0-.74.37-1.11.37-1.12,0-1.12-.74-1.12-1.49a1.36,1.36,0,0,1,.75-1.86,2.63,2.63,0,0,1-1.12-2.23c0-.74.37-1.86,1.49-1.86.74,0,1.11,0,1.49,1.12v1.49c0-.38.37-.38,1.11-.38a1,1,0,0,1,1.12,1.12v.37c0,.75,0,1.12-1.12,2.23v.38a4.75,4.75,0,0,0,.37,2.23,6,6,0,0,1,2.61-1.49c0-.74.37-1.49.37-2.23v-1.86h-.74c-1.49,0-1.49-1.12-1.49-1.86s.37-2.23,1.86-2.23c-.37-1.49-.75-1.49-.75-2.61s0-2.23,1.86-2.23,1.86,1.12,1.86,2.23-.37,1.12-.74,3a1.75,1.75,0,0,1,1.86,1.86h0c0,.74,0,1.86-1.49,1.86h-.74V323a2.25,2.25,0,0,0,.37,1.49,17,17,0,0,0,2.6,1.49,6.79,6.79,0,0,0,.75-2.61,2,2,0,0,1-1.12-1.86v-1.11c.37,0,.37-.38.75-.38h1.11a1.29,1.29,0,0,0,.75.38s-.38-.38,0-1.49c0-1.49.37-1.12,1.11-1.12,1.12,0,1.49,1.12,1.49,2.23a2,2,0,0,1-1.12,1.86,2.05,2.05,0,0,1,1.12,1.86,1.36,1.36,0,0,1-1.49,1.49c-.37,0-1.11-.74-1.49-.74-.37.74-.37,1.49-.74,2.23,0,.37.37.37.37.74a24.25,24.25,0,0,1,3,3.35.36.36,0,0,0,.37-.37v-1.12a2.66,2.66,0,0,1-1.12-2.23c0-.74.38-1.49,1.12-1.49h.37a2,2,0,0,1,1.49,1.12c-.37-1.49.37-2.23,1.49-2.23a1.7,1.7,0,0,1,1.48,1.86h0c0,.74-1.11,1.86-1.86,2.23a2.23,2.23,0,0,1,1.12,2.23c0,.74,0,1.49-1.49,1.49-1.11,0-.74-.75-1.48-1.49a3.83,3.83,0,0,1-.38,1.49V333a23.87,23.87,0,0,1,3,5.21c.37.74.74,1.12.74,1.86v1.12a36.38,36.38,0,0,0-10.41-13.4,18.39,18.39,0,0,0-2.61-1.11c-1.86,0-5.58,4.46-6.69,5.58-.37.37-.37,1.11-.74,1.11a64,64,0,0,0-4.84,8.56,23.2,23.2,0,0,1-.74,2.6v.75a2.22,2.22,0,0,1,.37,1.48,2.63,2.63,0,1,1-5.21,0v-.37a1.29,1.29,0,0,1,.37-.74A45,45,0,0,0,466,340.8c-1.12-2.23-2.6-4.83-4.09-7.44a75.84,75.84,0,0,0-4.84-6.69,42.57,42.57,0,0,0-4.09-4.46,12.86,12.86,0,0,0-5.95-3,4,4,0,0,0-2.6,1.12c-3,1.48-5.21,4.09-7.44,6.69a32.71,32.71,0,0,1-3,3.72,23.89,23.89,0,0,0-1.49,2.6l-1.11,1.86c-.75,1.49-1.86,3.35-2.61,5.21a34.63,34.63,0,0,0-2.6,4.84,2.8,2.8,0,0,1,.37,1.48,3.15,3.15,0,0,1-2.6,3,3.25,3.25,0,0,1-2.6-3.35c0-.74.74-1.49,1.11-2.23V322.21L408,307.33a11.12,11.12,0,0,0-3,3c-3.35,3.72-10.42,11.16-10.42,11.16v17.11a27.91,27.91,0,0,1,2.61-4.46l.37-.37c.37-.75.74-.75.74-1.12,0-.74-.37-1.49-.37-2.23-.37.74-.74,1.49-1.49,1.49s-.74-.75-.74-1.12a4.93,4.93,0,0,1,1.12-3c-1.49-1.11-1.86-1.11-1.86-2.23s.37-1.86,1.48-1.86c.75,0,1.12.75,1.49,1.49h0v.75c.37-.75.75-1.12,1.49-1.12a1.68,1.68,0,0,1,1.12,1.12v.37a3.78,3.78,0,0,1-1.49,2.6v.74a3.35,3.35,0,0,0,.37,1.86,38.67,38.67,0,0,0,3.35-4.09c0-.37.37-.74.37-1.11a2.25,2.25,0,0,1-.37-1.49c-.37.37-.75.74-1.12.74a1.36,1.36,0,0,1-1.49-1.48,2.27,2.27,0,0,1,1.12-2.24c-.74-.74-1.12-1.11-1.12-1.86s.38-2.23,1.49-2.23c.75,0,1.12,0,1.12,1.12a1.7,1.7,0,0,1,0,1.86l.74-.75c1.12,0,1.86.38,1.86,1.86,0,.75-.37,1.12-1.49,1.86v.38a5.37,5.37,0,0,0,.75,2.23,16.2,16.2,0,0,1,2.6-1.49,16.28,16.28,0,0,0,.37-1.86v-1.86h-1.11c-1.12,0-1.12-1.12-1.12-1.86s0-2.23,1.86-2.23a5.43,5.43,0,0,1-.74-2.61c0-1.11,0-2.23,1.86-2.23s1.86,1.12,1.86,2.23a1.35,1.35,0,0,1-.38,1.12c0,.74-.37,1.12-.37,1.49a2,2,0,0,1,1.86,1.86v.37c0,.74,0,1.86-1.49,1.86h-.74v2.23c0,.37.37,1.12.37,1.49a7.49,7.49,0,0,1,2.23,1.49c.38-.75.75-1.86,1.12-2.61a2,2,0,0,1-1.12-1.86,1.36,1.36,0,0,1,1.49-1.48h.37a1.33,1.33,0,0,0,.75.37c-.37-.75-.37-1.12,0-1.49a1,1,0,0,1,1.11-1.12c1.12,0,1.49,1.49,1.49,1.86,0,.75-.37,1.12-.37,1.49a.8.8,0,0,0-.74.75,2,2,0,0,1,1.11,1.86,1.36,1.36,0,0,1-1.49,1.48c-.37,0-1.11-.74-1.48-.74-.38.74-.38,1.49-.75,2.23,0,.37,0,.37.37.74a24.17,24.17,0,0,1,3,3.35l.37-.37v-1.12a3.2,3.2,0,0,1-1.11-2.23c0-.74.37-1.48,1.11-1.48h.37a2,2,0,0,1,1.49,1.11v-1.11a1.19,1.19,0,0,1,1.12-1.12,1.76,1.76,0,0,1,1.86,1.86c0,.74-1.12,1.86-1.86,2.23a2,2,0,0,1,1.11,1.86c0,1.12-.37,1.86-1.48,1.86s-1.12-.74-1.49-1.49a3.84,3.84,0,0,1-.37,1.49v.74a20.17,20.17,0,0,1,2.6,4.84,6.28,6.28,0,0,1,.74,1.86,1.28,1.28,0,0,0,.38.74.37.37,0,0,1-.38.38,21.88,21.88,0,0,0-1.48-3c-.38-.74-1.86-2.23-2.24-3.72-.74-1.12-7.06-7.81-9.29-7.81s-8.19,7.81-8.19,8.18a25.86,25.86,0,0,0-4.09,8.56,1.36,1.36,0,0,0-.37,1.11c0,.37.74.75.74,2.23a2.88,2.88,0,0,1-3,2.61,2.55,2.55,0,0,1-2.61-2.61,2.88,2.88,0,0,1,.75-1.86V327.78c-51.7,31.25-67.7,98.57-36.45,150.28a110.52,110.52,0,0,0,66.95,49.09v3.72c0,14.88,19,28.64,26.41,28.64Zm50.58-32.36,4.47,7.81-.38,1.12,3.72,1.11.75-3.71-1.49-.75-3.72-6.69v-2.61l-3.35.37-1.86,3.35Zm7.44-4.09,4.84,7.44v.74L514.7,532l.74-3.72-1.86-.37-4.46-6.7V519l-3.35.37-1.49,3.72Zm19,4.84c.37,0,.37,0,.37.37a.36.36,0,0,0-.37.37V529h.37c.38-.37.75-.37.75-.74a23.2,23.2,0,0,1,.74-2.6c0-.75-1.49-1.12-2.23-1.12a9.46,9.46,0,0,1-2.6-.74,7.19,7.19,0,0,1-3.72-1.12L514,517.11a1.33,1.33,0,0,0,.75-.37c.37,0,1.48-.74,1.86-.74a.37.37,0,0,1,.37-.38h.37l5.21,6H524v2.24a18.39,18.39,0,0,0,1.11-2.61l.75-1.11c0-.38-5.58-6.7-6-7.44v-1.49h0L513.58,513h-.37v1.86c0,.37-1.86,4.46-1.86,4.46,0,.37,3.35,4.84,5.21,7.07a.8.8,0,0,1,.74.74h1.12Zm5.58-14.14-5.58-5.58c0-.37.37-.37.37-.74a1.36,1.36,0,0,1,.38-1.12c.74,0,1.48-.37,2.23-.37a36.24,36.24,0,0,1,3.72,3.72,6.34,6.34,0,0,1,2.23,2.23v.75h4.09v-3.72h-1.86a9.06,9.06,0,0,1-1.86-1.86,21.18,21.18,0,0,1-4.09-4.1c-.37-.37,0-1.48-.37-2.23a40.91,40.91,0,0,1-5.58,3A6.34,6.34,0,0,1,524,506c0,.37,0,.37-.38.37-.74.38-1.86.75-2.6,1.12a12.72,12.72,0,0,0-.37,3.72,7.65,7.65,0,0,0,1.86-.37h.37c1.86,1.86,4.09,3.72,6,5.95v.74h4.09v-4.09h-1.49A.51.51,0,0,1,530.69,513.39Zm6.7-23.06,13,8.93-2.6.37.37,2.6c0,.37,0,.75.37.75l4.1-.75v-1.11a3.75,3.75,0,0,1-.38-1.12v-1.86a6.56,6.56,0,0,0-.37-2.23c-2.6-1.86-5.2-3.35-7.81-5.21l-4.46-3c0-.38-.37-.38-.75-.75,0-.37-.37-.74-.37-1.11v-.75h-.37a.8.8,0,0,0-.74.75Zm11.9-17.11,5.21,3c1.11-.75,2.6-1.12,3.72-1.86V474c0-.37-.75-1.86-.75-2.23,0,0,.75-1.11,1.12-1.11,1.11.37,2.6,1.11,3.72,1.48v1.12a14.91,14.91,0,0,1-2.23.74c-.38,0-1.49-.74-1.86-.74l1.11,6.32c.37-.74.75-1.86,1.86-2.23a12.12,12.12,0,0,0,2.23-1.11s1.12,0,1.12-.38v-2.23h0V471c0-.75-.37-1.12-.37-1.86-1.86-.75-5.58-2.61-5.95-2.61-1.12.75-1.86,1.86-3,2.61L556,471a1.92,1.92,0,0,1-1.48.74l-2.61-1.49a19.08,19.08,0,0,0,4.09-3.72,21.37,21.37,0,0,0-.74-3.71c-.37-.38-.74,0-1.12-.38v1.49l-4.83,3.72Zm7.81,10c-1.49.37-2.6.75-4.09,1.12v1.11c.37,1.12.37,2.24.74,3h.37c.75,0,1.49-.37,2.24-.37l1.11-.37h.75V487C557.84,485.87,557.47,484.38,557.1,483.26Zm20.09-72.16h0c-.38-.37-1.49-.74-1.86-1.48-.75-.38-1.86-1.86-2.24-1.86,0,0-1.48,1.48-2.23,1.48h-.74c-1.49,0-3,.38-5.21.38a25.27,25.27,0,0,0-5.21.74h0c-.37,0-1.11-.74-1.11-.74h-.37a22,22,0,0,0,2.6,3.71l5.58-.37h6a13.86,13.86,0,0,1,3.35-.74c.37,0,.74.37,1.11.74-.74.37-1.48,1.12-1.48,1.49h0c1.11.74,3,1.86,3,1.86a16.33,16.33,0,0,0,2.61-2.23v-.37ZM575,403.66l-2.23-1.11a14.77,14.77,0,0,0,1.86-3.35l-3.72-1.86h-.37c-.37.37-.37,1.12-.74,1.86a52.53,52.53,0,0,0-8.19,1.49c-.37-.75-.74-1.12-1.48-1.12h-.38l-.74,5.58c0,.75,1.49,1.49,1.86,1.49.37.37.74.74,1.12.74h0v-1.86a16.75,16.75,0,0,1,.37-1.86c1.11-.37,2.23-.37,3-.74,1.12,0,2.23-.37,3.35-.37.74,0,1.12.74,1.49,1.11a10,10,0,0,0-2.23,1.86c.74.75,1.48,1.86,2.23,2.61l4.83-3.35Zm-9.67-24.92c0,.37.37.37.37.75,0,.74-.37,1.11-.74,1.86,0,.37-.74.37-1.11.37l-6,2.23c-.37.37-.37.37-.74,0v-3c.74-.37,1.49-.37,2.23-1.11l5.58-1.86h1.49c.37-1.12.74-1.86,1.11-3h0v-1.11a12.65,12.65,0,0,1-3.71-.37,3.28,3.28,0,0,0-.38,1.86l-8.18,3a2.25,2.25,0,0,1-1.49-.37h0v6.32l2.23,1.12,3,1.49c.37,0,.74-.38,1.12-.38l5.95-1.86c.37.38.74.38,1.11.75h.37l1.86-5.95a21,21,0,0,0-2.6-.75l-1.86-.37Zm-8.55-21.57s.37,0,.37-.74c-.37-.75,0-2.24,0-2.61v-.74l-3.35-.37v1.11a1.38,1.38,0,0,1-.37,1.12c-.37.37-.74.37-1.12.74l-7.06,4.09a1.38,1.38,0,0,1-1.12-.37h-.74v.75c0,.37.37,1.48.37,2.23v1.48a15.19,15.19,0,0,1,3.35.75h.37v-2.23l5.21-3c.74-.37,1.11-.74,1.86-.74a14.91,14.91,0,0,1,2.23.74h0a16.28,16.28,0,0,1-.37,1.86v1.12h-1.12a8.18,8.18,0,0,0-1.86,1.11,32.07,32.07,0,0,1-5.21,2.61h-1.11a.37.37,0,0,0-.37-.38h-.38v1.12a1.28,1.28,0,0,1,.38.74v2.24a32.77,32.77,0,0,1,3.71,1.86h.38v-3l2.23-1.12,2.23-1.48c.74,0,1.12-.75,1.86-.75h2.23v-1.11a30.35,30.35,0,0,0,1.49-5.58,2.85,2.85,0,0,1-1.49-.37c-.37,0-1.11-.38-1.49-.38-.37-.37-1.48-.37-1.48-.74Zm-7.81-9.67h0a1.13,1.13,0,0,1-.38.74,82.12,82.12,0,0,1-6.69,5.21c-1.12-.37-1.86-.37-1.86-1.49,0-.37-.37-1.11-.37-1.49l8.18-6h.74c0-1.11.75-1.86.38-2.6.37-.37.37-.37,0-.37.37-.37.37-.75,0-.75l-3.72-.74a3.82,3.82,0,0,1-.37,1.12v.74c-2.24,2.23-4.84,4.09-7.07,5.95h-3v.37l2.23,4.84v.37c.38.37.75.37.75,0h.74l1.12,1.12v.37h0c.37,1.11.37,2.23.74,3.35h.37c1.12.37,2.24.37,3.35.74v-1.12a1.29,1.29,0,0,0-.37-.74l5.21-4.46a31.58,31.58,0,0,0,3-2.24h.75c0-1.11.37-2.23.37-3.72a28.93,28.93,0,0,1-3.35-.37h-.37C549.29,346.75,548.92,347.13,548.92,347.5Zm-11.16-10.79,3.72-.37v-1.12h0a5.53,5.53,0,0,0-.37-2.6,12.69,12.69,0,0,0-3.72.37v.37l.37,1.86v1.49Zm-11.53-6.32c0,.37.37,1.11.37,1.49a6.8,6.8,0,0,1-2.6,1.86c-.75-1.49-1.49-3.35-2.24-4.84-.74,0-1.48-.37-2.23-.37l-1.49-.37c-.37,0-.74.74-.74,1.11v.37h1.12a36.72,36.72,0,0,0,2.6,5.58,21.2,21.2,0,0,0,4.84,1.49,36,36,0,0,1,3.34-2.6c.38-.75.75-.75,1.12-1.12v-.37l-.74-3.72h-1.86a1.16,1.16,0,0,1-.75-.37c-.37-.37-.74-.75-.74-1.12a21.3,21.3,0,0,1,2.6-3,1.38,1.38,0,0,1,1.12.37V327a7.36,7.36,0,0,1-1.49,1.12v.37h1.86c1.49.37,3,.37,4.83.74-.37-.74-1.86-1.86-1.86-2.23v-3.72l-6.69-1.49-4.46,4.84a17.24,17.24,0,0,0,1.86,3.72h2.23Zm-4.84-11.16c0-.74-.37-1.12-.37-1.49V317c0-.75-.37-1.12-.37-1.49h-.37s-3,.37-3.72.37l.74,4.09H518C519.16,319.6,520.28,319.6,521.39,319.23ZM534,341.18v-.75c-.37,0-.37-.37,0-.74h-1.12a7.26,7.26,0,0,0-3,.37v3a.36.36,0,0,1,.37.37s-.37.37,0,.37H534v-1.12a3.73,3.73,0,0,1-.37-1.11v-.37Zm27.52,25.66c-.37.74-.37,1.49-1.11,1.86l-8.19,3.72H550.4v3.35l3.35,1.86h.37V375.4l8.93-4.1c.37,0,.75.38,1.12.38l1.11-3.35V368C563.8,367.58,562.68,367.21,561.56,366.84Zm7.81,22.69h.75v.37c0,.37.37,0,.37,0,0,.37,0,.37-.37.37l-.37.38h-.38L566,392.88c-.38,0-.38-.37-.75-.37,0-.38-.37-.75-.74-1.12l-.37-.37a1.29,1.29,0,0,1,.74-.37h0a23.59,23.59,0,0,0,2.6-.75h.75Zm.75-.74c-1.12-.75-1.49-1.86-2.23-1.86a.37.37,0,0,0-.38.37l-7.81,1.86c-.37,0-.74-.37-1.11-.37,0,0-1.49.37-1.49.74,0,0-.37,3.72-.37,6.32a14.57,14.57,0,0,0,3.35,1.86h.37v-5.58a6.28,6.28,0,0,1,1.86-.74s3.72,4.09,4.09,4.09h1.49a5.74,5.74,0,0,0,3-2.23c.75-.37,2.61-1.49,2.61-2.23v-.37c0-.75-3.35-2.24-3.35-2.24Zm-8.56,26.78-1.48,3,2.23,3h.37c.37-.75.74-1.12,1.12-1.86h9.67l.74.74a11.37,11.37,0,0,0,3-3c-1.12-.75-1.86-1.49-3-2.24h0c-.37,0-1.12,1.12-2.23,1.12h-6.7c0,.37-.37.37-.74,0h-.74C563.05,415.94,562.31,415.94,561.56,415.57Zm13,11.9h5.21l-3-3H575v-.74a7,7,0,0,1-3-.74c-.37.74-.37,1.11-.75,1.48h-6.32l-1.86-1.86h-.37l-2.23,4.47a8.71,8.71,0,0,0,2.6,2.6c.75-.74,1.12-1.49,1.86-2.23h6.32a16.28,16.28,0,0,0-.37,1.86v1.49a1.38,1.38,0,0,1,1.12.37,15.83,15.83,0,0,0,1.86.37h0v-.37a12.72,12.72,0,0,0,.37-3.72Zm1.49,12.65c.37-.38.74-.38,1.12-.75-1.86-1.11-2.24-2.6-3.72-4.46h-.38v1.86c-1.11,1.11-1.86,2.6-3,3.72L562.68,439v-.37a5.43,5.43,0,0,0,.74-2.61h7.81c.38.38.38.38.75.38h.37V436a7.69,7.69,0,0,1-1.49-2.23c-.37-.37-.37-.37-.37-.74h-6a1.15,1.15,0,0,1-.74-.37c-.38-.75-1.12-1.12-1.49-1.49-.37,0-1.49,2.6-1.86,2.6-.37,1.12-1.12,1.86-1.49,3l1.86,2.23-3,3a35.76,35.76,0,0,0,3.35,3.72,8,8,0,0,1,1.12-1.86c0-.38,0-.75.74-.75l8.18,1.49a5.52,5.52,0,0,1,1.49-1.12,24.14,24.14,0,0,1,3.35-3ZM572,452.76c1.11.37,2.6.75,3.72,1.12a13.3,13.3,0,0,0-2.61-3.72c-.37-.37-1.11,0-1.48-.37A1.16,1.16,0,0,1,572,449v-.37a20.31,20.31,0,0,1-3-1.49.37.37,0,0,0-.37.38,1.29,1.29,0,0,1-.37.74,21,21,0,0,0-2.61-.37l-4.46-1.12A3.75,3.75,0,0,1,559.7,445h-.37l-2.6,5.95c.74.75,1.11,1.86,1.86,2.61H559a20.25,20.25,0,0,1,2.23-3l5.58,1.12a.36.36,0,0,1,.37.37,15.28,15.28,0,0,0-1.11,3c1.11.75,1.86,1.49,3,2.24h.37a1.35,1.35,0,0,1,.38-1.12,5.3,5.3,0,0,1,.74-2.23c0-.37,0-1.12.37-1.12C571.61,452.39,571.61,452.76,572,452.76Zm-5.21,11.16,3.72-1.86c-.37-.74-.37-1.11-.74-1.49-.38-.74-.38-1.48-.75-1.86h-.37c-.37.38-1.12.38-1.86.75l-5.95-2.23c-.37,0-.74-.38-1.12-.75a3.68,3.68,0,0,1-1.48-1.86h-.38l-3.72,4.47c.38,1.11,1.12,1.86,1.49,3h0l3-2.23,5.21,1.86a18.79,18.79,0,0,0,2.6,1.12A1.36,1.36,0,0,0,566.77,463.92ZM549.29,481a6.75,6.75,0,0,0-.75-2.6l-4.09,1.11v.38a8.21,8.21,0,0,1,.38,1.48,7.62,7.62,0,0,0,.74,2.23l4.09-1.11V481.4C549.66,481,549.29,481.4,549.29,481Zm-2.6,26.41h.37v-.37c0-.37-.37-.37-.37-.75a8,8,0,0,0-.38-3c0-.37-1.11-.37-1.11-1.12v-.37a9.91,9.91,0,0,0-1.86-2.23c-.37,0-1.12.74-1.12.74-.37,0-3.72-2.6-5.58-4.46a7.27,7.27,0,0,0-.37-2.6h-.37a27.18,27.18,0,0,0-4.47,2.6,19.63,19.63,0,0,1,.38,3v.38c1.11-.38,2.23-.38,3-.75L540,502.6c-.74.75-2.23,1.86-2.23,2.24a8,8,0,0,0,1.86,3,23.58,23.58,0,0,0,3-3.35Zm-49.48,33.85,1.49-4.09-4.46-1.12-1.12,3.72Zm-4.83-8.56,1.49-4.09-4.09-1.11-1.49,4.09ZM511,325.18c0,1.12.37,1.86.37,3a13.43,13.43,0,0,0,4.09-.75V327a19.08,19.08,0,0,0-.74-3.35h-1.12c-.74,0-1.86.38-2.6.38v1.11ZM500.93,314c2.61,0,4.1-1.49,4.1-3.72a3.91,3.91,0,0,0-4.1-4.09c-1.48-.37-3,.75-3.34,2.61a3.66,3.66,0,0,1-.38,1.11v1.12a3.49,3.49,0,0,0,4.1,3Zm-14.5-7.81a3.73,3.73,0,0,0,3.72-3.72v-.37a4.06,4.06,0,0,0-3.72-4.09h-.37l-1.49.74c-1.49.37-2.23,1.86-2.23,3.72A4.07,4.07,0,0,0,486.43,306.21ZM453,301v.75h-3a29.79,29.79,0,0,1,3,5.95h.37a6.93,6.93,0,0,1,.75-2.6c0-.38.37-.75.37-1.12a5.56,5.56,0,0,0-.74-1.12c-.38-.37-.38-.74-.75-1.11h5.21a3.68,3.68,0,0,1-1.49,1.86,2.88,2.88,0,0,1,1.12,2.6c0,.37,0,1.86-.75,1.86-1.48,0-1.11-2.23-1.86-3a1.29,1.29,0,0,0-.37.74,4.73,4.73,0,0,0-.37,2.23v2.6a20.5,20.5,0,0,0,3.35,6.33.36.36,0,0,0,.37.37,6.91,6.91,0,0,1,.74-2.6,1.29,1.29,0,0,1,.38-.75c0-.37-1.86-1.86-1.86-3.72,0-.37,0-1.48,1.11-1.48.75,0,1.12,1.11,1.12,1.85.37-1.11.74-2.23,1.86-2.23s1.48,1.12,1.48,1.86a4.42,4.42,0,0,1-1.86,3.35,1.91,1.91,0,0,1,1.49,2.23c0,.37,0,2.23-1.11,2.23s-1.12-2.23-1.49-3.34h-.37a9.25,9.25,0,0,0-.37,3,3.1,3.1,0,0,0,0,2.61,27.87,27.87,0,0,0,3.34,6.69c.37-.74.37-1.49.75-2.23,0-.37.74-1.12.74-1.49L463,322.21a5.34,5.34,0,0,1-.74-2.24c0-.74,0-1.86.74-1.86,1.12,0,1.49,1.86,1.49,2.24,0-.75.37-2.61,1.86-2.61,1.12,0,1.12,1.12,1.12,1.86A3.23,3.23,0,0,1,466,323a2.48,2.48,0,0,1,1.49,2.6c0,.75,0,1.86-1.12,1.86s-1.11-2.23-1.49-2.6l-.37-.37c-.37.74-.37,1.11-.74,1.86v3.34c.74,1.49,1.86,3,2.23,4.47.74,1.11,1.12,2.6,2.23,3.72h0V301.75H457.79a1.65,1.65,0,0,0-.75-2.23h-.74c-.37,0-1.12.74-1.49,1.48-.37-1.11-.37-1.11-1.11-1.11a1,1,0,0,0-1.12,1.11H453Zm-16.74-.74v1.49H425.8V338.2l4.83-8.93v-2.6c-.37-.74-.37-1.49-.74-1.86,0-.37,0-.37-.37-.37v1.49c-.37.37-.75,1.48-1.49,1.48s-.74-1.11-.74-1.86-.37-2.23,1.11-2.6a3,3,0,0,1-1.86-3,1.34,1.34,0,0,1,.38-1.11c0-.37,0-.75.37-.75.37-.37.37-.37.74,0,1.12,0,1.49.75,1.86,2.24,0-1.12.37-2.24,1.49-2.24.74,0,.74,1.12.74,1.86a5.49,5.49,0,0,1-1.49,3.35c0,.37.38,1.12.38,1.49a5.3,5.3,0,0,1,.74,2.23,66,66,0,0,1,3.72-7.07v-1.48a10.86,10.86,0,0,0-.74-3.35.37.37,0,0,0-.38-.37c0,.74,0,3.34-1.48,3.34-1.12,0-1.12-1.48-1.12-2.23,0-.37,0-2.23,1.49-2.23a5.07,5.07,0,0,1-1.86-3c0-.74.37-2.23,1.49-2.23s1.86,1.49,1.86,2.61c0-.75,0-2.23,1.48-2.23,1.12,0,.75.74.75,1.48A5.17,5.17,0,0,1,435.1,314s.74.75.74,1.12a5.39,5.39,0,0,1,.75,2.6l3.72-7.07v-3.34c-.38-.75-.38-1.49-.75-1.86,0-.37,0-.37-.37-.37,0,.37,0,3-1.49,3-1.11,0-1.11-1.11-1.11-1.86s0-2.23,1.48-2.6a2.47,2.47,0,0,1-1.48-1.86h4.83a22,22,0,0,1-1.49,2.23c.38.37.38.74.75,1.12.37.74.37,1.86.74,2.6h0l3-5.95h-2.61c0-1.12,0-1.86-1.11-1.86a1,1,0,0,0-1.12,1.11c0-.74-1.11-1.48-1.86-1.48-.37,0-1.11.37-1.11.74Zm-12.64,1.49a4.1,4.1,0,0,0,0-8.19,4.47,4.47,0,0,0-3.72,2.61v2.23a4,4,0,0,0,4.09,3.35ZM441.79,314a43.69,43.69,0,0,0-3,5.58c0,.75,0,.75.37.75.74,0,7.44-5.21,8.18-5.58,2.61,1.86,5.21,3.72,8.19,5.58a1.33,1.33,0,0,0,.37-.75c-.75-1.11-1.12-2.6-1.86-3.72l-6.33-12.27-.37-.37c-.37,0-.37.37-.74.37-1.49,3.35-3.35,7.06-4.84,10Zm1.86-20.46a3.71,3.71,0,0,1-.37,1.12v1.12a3.48,3.48,0,0,0,4.09,3,4.09,4.09,0,0,0,0-8.18A3.63,3.63,0,0,0,443.65,293.56Zm22.69,1.49a4,4,0,0,0-.74,2.23,5.34,5.34,0,0,0,.74,2.24,3.93,3.93,0,0,0,3.35,1.86,4.08,4.08,0,0,0,3.72-4.1h0a3.82,3.82,0,0,0-3.72-4.09h-.37a3.92,3.92,0,0,0-3.35,1.86ZM408,306.21a4,4,0,0,0,3.71-3.72v-.37A4.07,4.07,0,0,0,408,298h-.38a3.73,3.73,0,0,0-3.72,3.72h0a4.42,4.42,0,0,0,3.72,4.46Zm-14.51,7.07a4,4,0,0,0,4.09-3.35v-.74c0-1.86-1.86-3.72-3.72-4.09h-.37c-2.23.37-4.09,2.23-3.72,4.46h0v.74A3.62,3.62,0,0,0,393.44,313.28Zm-23.43,6c.37-.37.37-.74.74-1.12h2.6c.38.75.75,1.12,1.12,1.86l1.49-6.69c-.75.74-1.86,1.86-2.23,1.86h-4.1l-2.23,6.32,4.84,4.84a13,13,0,0,1,4.09-1.49,6.09,6.09,0,0,1,0-2.6h1.49s1.48,1.86,2.23,2.6l-3,1.12c-.74,0-3,.74-3,1.11a30.08,30.08,0,0,1-.75,3.72c.75,0,1.12.37,1.12.74a2.22,2.22,0,0,1,.37-1.48c1.49-.38,3-1.12,4.46-1.49.38,0,1.49,0,1.86-.37a25.32,25.32,0,0,0,1.86-4.84,27.83,27.83,0,0,0-4.09-5.21,32.17,32.17,0,0,0-3.72.75v2.6c-.74.37-1.11.75-1.86.75a1.68,1.68,0,0,1-1.11-1.12c-.75-.74-1.49-1.12-1.86-1.86Zm-2.24,20.09-13-11.16h3.34v-4.09h-.74a6.34,6.34,0,0,0-2.6.37,2.52,2.52,0,0,0-1.49,3l-.37,3.35v.37l3.72,3.35c3.71,3.35,7.06,6.32,10.78,9.3l.37-.37Zm-21.2-1.12.37,2.23c.38,0,0,.37,0,.37l-3.34,1.12a.36.36,0,0,0,.37.37c0,1.12.74,2.6,1.11,4.09h0a1.93,1.93,0,0,0,1.49-.74c2.61,1.49,4.47,3,6.7,4.46.37.75.37,1.86.74,2.61l3.72-1.86v-.38l-1.11-3.72a2.81,2.81,0,0,1-1.49.75l-.37-.37c-2.24-1.49-4.47-3-6.33-4.47v-1.48a.37.37,0,0,1,.37-.38,16.53,16.53,0,0,1,2.61-1.86s0,1.49.37,1.86c1.86,1.49,4.46,2.24,6,3.72.37.37.37,1.49.74,2.23l4.1-2.23-.38-3.34a7.71,7.71,0,0,1-2.23.74,35.06,35.06,0,0,1-6.69-4.46c-.75-.75-.37-1.86-.75-2.61l-4.46,2.23C347.69,337.46,346.57,337.83,346.57,338.2Zm-17.48,29,1.12,3.35a11.39,11.39,0,0,0-2.61,1.86,18.22,18.22,0,0,0,1.49,4.09,14.54,14.54,0,0,1,2.23-.74,45.27,45.27,0,0,1,7.07,2.6c.74,0,.74,1.12,1.12,1.49l3-2.23a22.27,22.27,0,0,0-1.49-3c-.74.37-1.11.37-1.86.75a36.67,36.67,0,0,1-6.69-3c-.75-.37-.75-1.49-.75-1.86v-.37l2.61-1.12c0,.37.37.37.37.75,2.23.74,4.46,1.86,6.69,2.6.38.37.38,1.12.75,1.49l3-2.61L343.6,368l-1.86,1.48A37.9,37.9,0,0,1,338,368c-.75-.38-1.49-.38-2.23-.75a15.48,15.48,0,0,1-1.49-2.6Zm21.57,133.53v-2.23l6.7-5.58,1.11,3.35c-.74.75-1.85,1.49-2.6,2.23a11.49,11.49,0,0,1-4.09,3.35c-.37.37-.74.37-1.49.37v4.09h.37l3.72-.74c.38-.74,0-.74,0-1.49a43.37,43.37,0,0,1,4.09-3.72l.75-.74c1.49-1.12,1.49-1.86,3.35-1.86h0c-.75-1.86-1.49-4.09-2.24-5.95-1.86-.37-5.57-.75-5.95-.75-.74,0-5.95,4.84-6.32,4.84a1.29,1.29,0,0,1-.74-.37h-.38v6.32l4.47-.37C351,501.12,350.66,501.12,350.66,500.74Zm3.72,8.19v3.72h4.09v-1.86c2.61-2.23,4.47-4.84,7.07-6.7a2.75,2.75,0,0,1,2.23-.74L366.66,500l-4.09-.37c.37.37.37,1.11.74,1.86-2.23,2.23-5.21,4.46-7.07,7.07C355.5,508.93,354.76,508.56,354.38,508.93Zm13.39,9.67c1.86-2.23,4.1-5.21,6.7-7.81a2.26,2.26,0,0,0,1.49-.37l-4.47-5.21-4.09.74,3,3.35a2.25,2.25,0,0,1-.37,1.49c-1.49,2.23-3.72,4.09-5.21,5.95V513h-4.09v5.58h7.06Zm10.05,5.21-4.47,1.11.75,4.47h.37l4.46-1.12v-.37ZM346.2,494.05a80.18,80.18,0,0,1,7.07-4.84c.74,0,1.86-.37,2.6-.37-.37-1.11-.37-2.23-.74-3.35l-3.72-1.11a2.8,2.8,0,0,0,.37,1.86L344,491.45c-.37.37-.75,0-1.12,0h-.37a11.56,11.56,0,0,1-.37,3.72c1.11.37,2.6.37,3.72.74C346.2,495.17,345.83,494.42,346.2,494.05Zm-6.32-5.58a8.76,8.76,0,0,0,3-.74c0-.38-.37-1.12-.37-1.49l6.32-3.72a8.81,8.81,0,0,0,3,.74l-.74-5.2-3.72-.75v3a52.46,52.46,0,0,1-6,3.72l-1.85-3.35c-1.12,0-2.24.37-3,.37v.37l1.86,4.09-4.84,2.61v.37c1.12.37,2.24.37,3.35.74a1.16,1.16,0,0,1,.75.38,20.63,20.63,0,0,1,1.86-1.12.36.36,0,0,0,.37.37Zm-10.79-11.16a17.6,17.6,0,0,1,6.32,1.49c0-.37-.74-1.49-.74-1.86v-4.09l7.81-2.61,1.12,2.61-7.81,4.46,3.34,1.49,5.58-3c1.12,0,1.86.38,3,.38l-.37-4.84c0-.37,0-.37-.38-.74l-3-1.12.74-3.72a20.51,20.51,0,0,1-4.46-1.49v3c-2.6.74-5.58,1.86-8.56,3a7,7,0,0,1-.74,2.61,8.21,8.21,0,0,1-1.86,4.09Zm-.37-10.79h.74c.37,0,1.86-.37,2.61-.37a2.22,2.22,0,0,0-.38-1.49l7.07-2.6,2.6,1.12.38-4.84V458a13.31,13.31,0,0,0-3.35-1.49c-.37,1.12-.37,2.23-.74,3l-.38.37c-1.86.74-4.09,1.49-6.32,2.23-.37-1.11-.74-2.23-1.12-3.35h-2.6c-.37,0-.37,0-.37.38l1.11,4.09-5.2,2.23c1.48.37,2.6,1.11,4.09,1.49l1.86-.75c0,.37.37.37.37.75Zm9.3-11.9c.37-1.11.37-2.23.74-3.35l-3.35-2.6a4.73,4.73,0,0,0-.37,2.23c-3,.75-8.93,2.61-8.93,2.61-.37,0-.74-.38-1.11-.38l-1.86,3.35,3.35,1.86c.37-.37.74-1.11,1.11-1.49v-.37c3-.74,7.81-2.23,8.19-2.23s1.86.37,2.23.37h0ZM319.42,445l5.21,4.84,6.32-2.23v-1.12a20.8,20.8,0,0,1,.37-2.6v-.38l-2.23-1.11a5.51,5.51,0,0,1,.74-1.49,10.39,10.39,0,0,1,3.35-.37h0l-.74,5.21c0,.74,1.11,1.11,1.49,1.48a3.64,3.64,0,0,0,1.86,1.49c.37-.37.74-.37,1.11-.74l-1.11-1.12,1.11-5.95a9.91,9.91,0,0,1-1.86-2.23l-1.86-1.86c-.37,0-4.09.74-6.32,1.11a15.47,15.47,0,0,1-1.49,3.72c.74.75,2.6,1.49,2.6,1.86a2.24,2.24,0,0,1-.37,1.49,36.4,36.4,0,0,1-4.09,1.12c-.37,0-.37-.37-.74-.75,0,0,1.11-2.6,1.48-2.6h1.86l-5.2-4.46a8.18,8.18,0,0,0,.37,2.23c0,.37-1.49,3-1.86,4.09Zm12.65-13.76,2.6-3.35-3.35-3-3,3.72V429Zm-13.77-.75,3.72,2.61,2.61-3.72-4.09-2.6Zm-1.48-15.62a32.27,32.27,0,0,1,4.83,5.21h10c.38.37,1.12.74,1.49,1.12a31.57,31.57,0,0,1,1.49-6.33l-3.35-3c0,.37-.37.74-.37,1.11a14.5,14.5,0,0,1-.37,3.35c-.37,0-.75.37-1.49.74h-8.18a9.91,9.91,0,0,0,3-2.6,20.74,20.74,0,0,0-2.6-3Zm4.46-9.3c.37-.37,2.6-2.6,3-2.6l8.56.74a9.17,9.17,0,0,1-1.49,2.61l-8.55-.75Zm-3-1.86,4.47,6,3.34-1.12,3.35.37h1.86c.75.37,1.12,1.12,1.86,1.49l2.61-5.21-3.72-5.21c-1.12.38-.75.38-1.49.38l-3.35-.38a10.36,10.36,0,0,1-3.35-.37,6.39,6.39,0,0,1-1.86-.74v1.11c0,.38-3.34,3.35-3.72,4.1Zm15.25-9.29L318.3,391v.37s.75,1.86,1.12,3l12.65,3h1.11a12.41,12.41,0,0,0,1.12,2.23l2.23-3.72a15.11,15.11,0,0,0-1.86-3.34C334.3,393.25,333.93,393.62,333.55,394.37Zm-7.81-9.3,3.35-2.61,8.18,2.61a5.41,5.41,0,0,1-1.86,2.23l-8.18-2.23Zm1.49-5.58a16.57,16.57,0,0,1-4.09,3l3,6.7a15.51,15.51,0,0,1,3.72-.37,18.54,18.54,0,0,1,4.84,1.48c1.12.38,1.12,1.12,1.86,1.49l3.35-4.46-2.61-5.95h-1.11c-.75,0-1.49-.38-2.23-.38-1.86-.74-4.1-.74-6.33-3a2.8,2.8,0,0,1-.37,1.86Zm9.67-21.58-3.72,1.49a24.71,24.71,0,0,1,1.49,3.72c.74-.37,1.12-.37,1.86-.74,2.6,1.11,4.83,2.23,7.44,3.34.37.38.74,1.49,1.11,1.86l3-2.23a13.21,13.21,0,0,1-.74-3.72,8,8,0,0,0-1.86,1.12A1.9,1.9,0,0,1,344,362a52.19,52.19,0,0,1-6.7-3C336.9,359,337.27,358.29,336.9,357.91Zm3-6.32,5.58,1.12.37.37v2.23l-5.95-2.6v-1.12ZM338,349l1.49,4.83v1.49h0l5.2,2.6a11.71,11.71,0,0,1,2.61,1.86c.37,0,0,.38,0,.75.37.37.74.37,1.48.74l4.84-4.46-1.49-4.09-3.72,3.72-1.49-.75V350.1a2.94,2.94,0,0,0-1.48-1.49l-6.33-.37c-.37,0-.37,0-1.11.75Zm26-24.92H360v3.71h2.23c2.24,2.24,4.1,4.1,6,6.33a4.73,4.73,0,0,1,.37,2.23h.37l3.35-1.12v-.74l.37-3v-.37a4,4,0,0,1-1.86.75l-4.09-4.1a20.76,20.76,0,0,1-2.61-3Zm20.46,195.64-.74-4.83L378.93,516v.37l1.12,4.09h.37Zm29.76,11.91a10.88,10.88,0,0,1,3-1.49.8.8,0,0,0-.74-.74l-4.09,1.48h-1.49l-5.58,14.51a25.26,25.26,0,0,1-1.11-3,16.4,16.4,0,0,0-3.72.75c.37,1.11.74,2.6,1.11,3.72l2.23,1.11a3.9,3.9,0,0,0,1.86-.74,2.79,2.79,0,0,0,1.86-.37c.75,0,1.12,0,1.12-.37C410.18,541.66,412.41,536.45,414.27,531.62Zm4.83,10L415,543.89a41.69,41.69,0,0,0,2.23,4.09,39.06,39.06,0,0,0,4.1-2.23Zm-23.43-.74,6.32-1.86h.38c1.48-3,2.6-5.95,4.09-8.93.37-.74.74-.74,1.49-1.12l-5.58-3.72-4.1,1.49c1.49,1.12,4.1,2.61,4.1,2.61v1.48L399,538.31a7.15,7.15,0,0,0-1.12-3.72l-4.09,1.12a5.3,5.3,0,0,1,.74,2.23A27.8,27.8,0,0,0,395.67,540.92ZM392,529.39l-2.6,5.57h-1.49a11.5,11.5,0,0,0,.74-3s.38-3,.75-3Zm.74,5.57a17.89,17.89,0,0,1,1.86-3.71c.75-1.49,1.12-3,1.86-4.1.38-.37.75,0,1.12-.37.37,0,.37-1.11.37-1.49a29.82,29.82,0,0,0-4.83-4.83l-3.72,1.11,4.46,4.1-1.12,2.23h-5.95c-1.11,1.11-1.48,1.11-1.48,2.23l-.38,5.21,1.12,1.11,4.46-1.11h1.86ZM586.48,420.77A138.33,138.33,0,0,0,448.12,282.41c-76.25,0-138.37,62.11-138.37,138.36,0,73.65,57.65,134.65,131.3,138.37a27.4,27.4,0,0,1-4.46-2.6C361.82,550.22,306,484.38,312.35,409.62a136.07,136.07,0,0,1,147.3-124.24c74.76,6.33,130.55,72.16,124.23,146.92A136.08,136.08,0,0,1,459.65,556.54a27.91,27.91,0,0,1-4.47,2.6C528.83,555.42,586.48,494.42,586.48,420.77Zm3,0a141.35,141.35,0,1,1-282.69,0c0-77.73,63.24-141,141.35-141S589.46,343,589.46,420.77Zm1.49,0a142.83,142.83,0,0,0-285.66,0c0,79.23,64,143.21,142.83,143.21S591,500,591.32,421.15v-.38Z" transform="translate(-4 -277.94)"/></svg>