<?xml version="1.0" encoding="UTF-8" standalone="no"?>
<!-- Created with Inkscape (http://www.inkscape.org/) -->

<svg
   width="41.692757mm"
   height="54.858799mm"
   viewBox="0 0 41.692757 54.858799"
   version="1.1"
   id="svg1"
   xmlns="http://www.w3.org/2000/svg"
   xmlns:svg="http://www.w3.org/2000/svg">
  <defs
     id="defs1" />
  <g
     id="layer1"
     transform="translate(-143.17848,-217.14812)">
    <g
       id="g100"
       transform="matrix(0.37204605,0,0,0.37204605,58.429906,65.922272)">
      <g
         id="g75"
         transform="rotate(-23.729284,627.88639,1065.589)">
        <rect
           style="fill:#253047;fill-opacity:1;stroke:none;stroke-width:4.96982;stroke-linecap:round;stroke-linejoin:round;stroke-dasharray:none;stroke-opacity:1;paint-order:markers stroke fill"
           id="rect74"
           width="11.532341"
           height="79.358139"
           x="532"
           y="334"
           ry="5.7661705" />
        <path
           id="rect75"
           style="fill:#253047;stroke-width:4;stroke-linecap:round;stroke-linejoin:round;paint-order:markers stroke fill"
           d="m 519,325 h 32.00002 a 12.000013,12.000013 18.43493 0 1 7.2,2.4 l 3.6,2.69999 a 2.9999979,2.9999979 89.999982 0 1 0,4.8 l -3.6,2.7 a 12,12 161.56505 0 1 -7.2,2.4 H 519 a 3.9999999,3.9999999 45 0 1 -4,-4 V 329 a 3.9999999,3.9999999 135 0 1 4,-4 z" />
      </g>
      <g
         id="g73"
         transform="rotate(14.430054,-226.94372,-54.635954)">
        <rect
           style="fill:#253047;fill-opacity:1;stroke:none;stroke-width:4;stroke-linecap:round;stroke-linejoin:round;stroke-dasharray:none;stroke-opacity:1;paint-order:markers stroke fill"
           id="rect72"
           width="10.225829"
           height="86.368927"
           x="387.95227"
           y="270.90579"
           ry="5.1129146" />
        <rect
           style="fill:#253047;fill-opacity:1;stroke:none;stroke-width:4;stroke-linecap:round;stroke-linejoin:round;stroke-dasharray:none;stroke-opacity:1;paint-order:markers stroke fill"
           id="rect73"
           width="13.8442"
           height="23.755388"
           x="386.22171"
           y="262.56784"
           ry="5.1129146" />
      </g>
      <g
         id="g70"
         transform="matrix(0.9141577,0.3255062,-0.3255062,0.9141577,14.179765,17.997387)">
        <path
           id="path68"
           style="fill:#253047;fill-opacity:1;stroke:none;stroke-width:4;stroke-linecap:round;stroke-linejoin:round;stroke-dasharray:none;stroke-opacity:1;paint-order:markers stroke fill"
           d="m 483.20555,309.6387 c -2.1187,2.96783 -3.31342,6.58363 -3.3134,10.37277 0,9.75831 7.78937,17.66892 17.39791,17.66869 9.60833,-6e-5 17.39739,-7.91059 17.39739,-17.66869 9e-5,-3.78902 -1.1945,-7.40473 -3.31303,-10.37255 -2.3594,-3.30525 -5.43166,-1.63941 -5.43166,2.4521 v 6.32572 c 0,4.79355 -3.85915,8.6527 -8.6527,8.6527 -4.79355,0 -8.6527,-3.85915 -8.6527,-8.6527 v -6.32572 c 0,-4.09151 -3.0723,-5.75747 -5.43181,-2.45232 z"
           transform="translate(-54.063787,-23.805865)" />
        <rect
           style="fill:#253047;fill-opacity:1;stroke:none;stroke-width:4;stroke-linecap:round;stroke-linejoin:round;stroke-dasharray:none;stroke-opacity:1;paint-order:markers stroke fill"
           id="rect70"
           width="17.305237"
           height="69.220993"
           x="434.57352"
           y="303.42072"
           ry="8.6526251" />
      </g>
      <path
         id="path43"
         style="fill:#253047;fill-opacity:1;stroke:#253047;stroke-width:9.46583;stroke-linecap:round;stroke-linejoin:round;stroke-dasharray:none;stroke-opacity:1;paint-order:markers stroke fill"
         d="m 284.70243,442.69931 -47.32874,23.66437 v 59.16152 l 47.32872,23.66437 47.32874,-23.66437 v -59.1615 z" />
      <g
         id="g18-8"
         transform="translate(289.03433,605.52259)">
        <path
           style="fill:#7a8db8;fill-opacity:1;stroke:#7a8db8;stroke-width:3.06308;stroke-linecap:round;stroke-linejoin:round;stroke-opacity:1;paint-order:markers stroke fill"
           d="m 22.799874,-77.747663 c -0.757483,-0.16459 -1.618291,-0.653257 -2.325063,-1.319903 -0.339191,-0.319935 -1.513687,-1.435235 -2.609991,-2.478445 -2.218732,-2.111282 -2.444895,-2.266945 -3.310436,-2.278475 -0.669526,-0.0089 -0.864833,0.07359 -2.137932,0.903136 -3.4750888,2.264363 -7.1601544,3.777912 -11.214279,4.605983 -1.00145826,0.204552 -3.3000725,0.527532 -3.7543907,0.527532 h -0.2435396 v -3.645972 -3.645974 l 0.8017245,-0.09802 c 3.7848719,-0.462743 7.6703197,-1.935345 10.8335597,-4.105963 2.2502941,-1.544153 4.5268911,-3.780991 6.1256491,-6.01867 1.892482,-2.648783 3.387104,-6.029236 4.018179,-9.088096 1.168737,-5.66495 0.428517,-11.36244 -2.125691,-16.36152 -2.886229,-5.6489 -7.7023746,-9.8732 -13.7357297,-12.04779 -1.1782653,-0.42467 -3.27437272,-0.93801 -4.519813,-1.10689 -0.5653185,-0.0767 -1.1111079,-0.15539 -1.2128653,-0.17495 l -0.1850133,-0.0356 v -3.65601 -3.65601 l 0.3494697,0.0389 c 1.64763941,0.18333 2.66283101,0.3315 3.6904461,0.53863 12.5544495,2.5305 22.4116615,12.38927 24.9422865,24.94621 0.499033,2.4762 0.577085,3.32078 0.578,6.25431 5.29e-4,1.65632 -0.03856,2.95122 -0.105471,3.4947 -0.568319,4.61647 -1.94853,8.788318 -4.177923,12.628261 -0.743375,1.280401 -0.79647,1.413849 -0.799052,2.008352 -0.0044,1.004382 0.08484,1.123987 2.697425,3.61687 2.831858,2.702107 3.176043,3.070023 3.482217,3.722301 0.852852,1.816946 0.504153,3.784954 -0.922814,5.208209 -1.115783,1.112885 -2.61395,1.556255 -4.138953,1.224894 z"
           id="path17-5" />
        <path
           id="path18-7"
           style="baseline-shift:baseline;display:inline;overflow:visible;vector-effect:none;fill:#ffffff;fill-opacity:1;stroke-linecap:round;stroke-linejoin:round;enable-background:accumulate;stop-color:#000000"
           d="m -5.0663574,-146.03295 c -20.1012236,8e-5 -36.4452376,16.34203 -36.4453206,36.44326 8.3e-5,20.101214 16.344097,36.445234 36.4453206,36.445317 a 2.25,2.25 0 0 0 0.3074748,-0.02222 c 6.7274487,-0.05973 13.2574738,-2.039871 18.9481976,-5.592941 l 3.312459,3.153813 c 3.619922,3.44697 9.415706,3.307203 12.863298,-0.312126 3.448593,-3.620427 3.307116,-9.419764 -0.314193,-12.867431 l -3.322278,-3.164148 c 2.99445,-5.399377 4.648331,-11.445784 4.648295,-17.640264 -8.2e-5,-20.10123 -16.342029,-36.44318 -36.4432534,-36.44326 z m -2.2499919,4.5775 v 12.1853 c -2.9354017,-1.10236 -5.7993307,-1.93481 -8.5198937,-2.48925 0.214303,-0.52917 0.435977,-1.04273 0.664559,-1.53944 1.378442,-2.99533 3.007942,-5.37845 4.740279,-6.97063 0.412446,-0.37908 0.827999,-0.71314 1.2469527,-1.00201 0.6172272,-0.0791 1.240264,-0.14048 1.868103,-0.18397 z m 4.4999837,0 c 16.6153746,1.15093 29.6932096,14.95301 29.6932776,31.86576 3.5e-5,5.97706 -1.676973,11.834409 -4.840014,16.905942 a 2.250225,2.250225 0 0 0 0.357601,2.820499 l 4.552693,4.335653 c 1.859633,1.770464 1.931136,4.644815 0.160197,6.503996 -1.770397,1.858586 -4.645104,1.930274 -6.503995,0.160197 l -4.537191,-4.322217 a 2.250225,2.250225 0 0 0 -2.83962,-0.214974 c -4.747563,3.316275 -10.2942466,5.270955 -16.0429486,5.676656 v -7.403682 c 12.4894428,-1.140775 22.3123316,-11.681396 22.3123336,-24.46207 3e-6,-12.78069 -9.8228867,-23.31995 -22.3123336,-24.46053 z m -10.5585284,1.00924 c -1.443144,1.68712 -2.726735,3.78414 -3.842143,6.20789 -0.307242,0.66763 -0.601582,1.36015 -0.882633,2.07636 -0.760975,-0.11474 -1.508217,-0.20562 -2.240174,-0.27337 -1.749821,-0.16196 -3.413523,-0.19025 -4.968689,-0.0744 -0.80794,0.0602 -1.586372,0.1594 -2.332674,0.29869 3.893704,-3.88524 8.787332,-6.76855 14.266313,-8.23516 z m -9.555489,10.12031 c 0.766892,0.0113 1.562504,0.0547 2.383317,0.13075 0.544099,0.0504 1.099455,0.11485 1.664498,0.19378 -1.103688,3.30224 -1.94153,7.01806 -2.456181,11.01742 -3.206166,2.44585 -6.005252,5.02996 -8.313188,7.63726 -0.351005,-0.45003 -0.68468,-0.89844 -1.000456,-1.34462 -1.90481,-2.69143 -3.153226,-5.29545 -3.665926,-7.59179 -0.124296,-0.55671 -0.206349,-1.09331 -0.246496,-1.6092 1.06185,-2.5491 2.4442,-4.9298 4.096907,-7.09259 0.465827,-0.22241 0.970053,-0.41879 1.513086,-0.58911 1.122519,-0.35208 2.4035,-0.58467 3.814238,-0.68988 0.705369,-0.0526 1.443309,-0.0733 2.210201,-0.062 z m 6.297807,0.70435 c 2.738448,0.5382 5.665375,1.38183 8.6837072,2.52388 -1.8438431,0.8688 -3.6989882,1.83817 -5.5490152,2.90628 -1.84987,1.06803 -3.617031,2.18988 -5.29115,3.35225 0.52027,-3.18511 1.253202,-6.14163 2.156458,-8.78241 z m 13.8162104,0.093 c 10.0419516,1.1131 17.8123526,9.59256 17.8123496,19.93884 -2e-6,10.346261 -7.7704014,18.827054 -17.8123496,19.940382 v -9.773047 c 4.6540322,-1.036375 8.1638388,-5.214155 8.1638428,-10.167335 2.1e-6,-4.9532 -3.5098062,-9.13139 -8.1638428,-10.16786 z m -4.4999837,4.62453 v 5.14645 c -4.6545047,1.03644 -8.1659117,5.21462 -8.1659097,10.16786 4e-6,4.95321 3.51141,9.131 8.1659097,10.167335 v 5.148523 c -1.6797166,-0.800759 -3.3704947,-1.688415 -5.0565387,-2.661853 -2.440851,-1.409227 -4.731029,-2.916404 -6.84351,-4.482935 -0.30068,-2.61367 -0.461471,-5.35159 -0.461471,-8.17107 1e-6,-2.8187 0.160952,-5.55599 0.461471,-8.16901 2.11255,-1.56658 4.402564,-3.07417 6.84351,-4.48345 1.686045,-0.97344 3.3768224,-1.86109 5.0565387,-2.66185 z m -28.6277097,7.07863 c 0.739318,2.09369 1.913634,4.25394 3.455603,6.43269 0.424761,0.60017 0.877569,1.20219 1.35754,1.80402 -0.479971,0.60183 -0.932779,1.20334 -1.35754,1.80351 -1.541788,2.17849 -2.716269,4.33871 -3.455603,6.43216 -0.696687,-2.62692 -1.067624,-5.38772 -1.067635,-8.2367 1.1e-5,-2.84863 0.371116,-5.60913 1.067635,-8.23568 z m 14.274064,1.97663 c -0.169449,2.03114 -0.257865,4.1228 -0.257866,6.25905 0,2.13689 0.08832,4.22872 0.257866,6.2606 -2.498811,-2.04343 -4.69369,-4.15655 -6.529317,-6.25957 1.835589,-2.10297 4.030569,-4.21669 6.529317,-6.26008 z m -7.981942,8.0176 c 2.307979,2.60734 5.107468,5.19136 8.313705,7.63726 0.514681,3.999248 1.352078,7.715246 2.455664,11.017411 -0.565072,0.07894 -1.120372,0.143939 -1.664498,0.194303 -3.283251,0.303899 -6.162719,0.083 -8.407756,-0.62115 -0.542442,-0.170137 -1.046648,-0.366254 -1.512052,-0.588595 -1.653338,-2.163423 -3.035776,-4.545248 -4.097941,-7.095174 0.04018,-0.515388 0.122284,-1.051316 0.246496,-1.607654 0.512699,-2.296341 1.761117,-4.900351 3.665926,-7.591781 0.315783,-0.44619 0.649442,-0.89458 1.000456,-1.34462 z m 10.86342,9.49244 c 1.674014,1.162286 3.440893,2.284302 5.290633,3.35225 1.850052,1.068128 3.7051478,2.037478 5.5490152,2.906282 -3.0181232,1.141974 -5.9449042,1.985676 -8.6831912,2.523877 -0.903344,-2.640653 -1.636086,-5.597373 -2.156457,-8.782409 z m 11.4721677,8.43101 v 12.185302 c -0.6269989,-0.04344 -1.249103,-0.104493 -1.8655192,-0.183451 -0.4197922,-0.289403 -0.8362765,-0.62425 -1.2495365,-1.004073 -1.732337,-1.59218 -3.361837,-3.975822 -4.740279,-6.971151 -0.228325,-0.496147 -0.449964,-1.008834 -0.664042,-1.537374 2.720352,-0.554441 5.584174,-1.386944 8.5193767,-2.489253 z m -10.7833207,2.891813 c 0.281047,0.716237 0.575397,1.40874 0.882633,2.076359 1.115775,2.424557 2.399969,4.521433 3.843693,6.208406 -5.479168,-1.466561 -10.373439,-4.350191 -14.267346,-8.235673 2.183292,0.407144 4.642142,0.470883 7.300846,0.224793 0.731961,-0.06775 1.479194,-0.159148 2.240174,-0.273885 z" />
      </g>
    </g>
  </g>
</svg>
